<?xml version="1.0" encoding="utf-8"?>
<!-- Uploaded to: SVG Repo, www.svgrepo.com, Generator: SVG Repo Mixer Tools -->
<svg width="800px" height="800px" viewBox="0 0 1024 1024" class="icon"  version="1.1" xmlns="http://www.w3.org/2000/svg"><path d="M959.720175 543.628232a287.820112 287.820112 0 0 0-447.720175-239.274453 287.820112 287.820112 0 0 0-447.720175 239.274453c0 95.940037 31.980012 223.860087 63.960025 287.820113 63.960025 127.92005 132.237352 191.880075 255.8401 191.880075a222.516927 222.516927 0 0 0 127.92005-40.326796 222.516927 222.516927 0 0 0 127.92005 40.326796c123.602748 0 200.546658-81.325172 255.8401-191.880075 31.980012-63.960025 63.960025-191.880075 63.960025-287.820113z" fill="#EF4D4D" /><path d="M658.180637 950.222111A254.241099 254.241099 0 0 1 512 904.170893a254.241099 254.241099 0 0 1-146.180637 46.051218c-113.497064 0-185.963773-48.001999-248.068957-142.343035 3.453841 8.474703 6.971643 16.565646 10.489444 23.569269 63.960025 127.92005 132.237352 191.880075 255.8401 191.880075a222.516927 222.516927 0 0 0 127.92005-40.326796 222.516927 222.516927 0 0 0 127.92005 40.326796c123.602748 0 200.546658-81.325172 255.8401-191.880075 3.997502-7.963023 7.963023-16.949407 11.896565-26.735291-59.163023 87.049594-137.546034 145.509057-249.476078 145.509057z" fill="" /><path d="M512 255.80812s95.940037-31.980012 95.940037-127.92005-95.940037-127.92005-95.940037-127.92005-95.940037 31.980012-95.940037 127.92005 95.940037 127.92005 95.940037 127.92005z" fill="#3AAD73" /><path d="M512-0.03198s-95.940037 31.980012-95.940037 127.92005 95.940037 127.92005 95.940037 127.92005v-255.8401z" fill="" /><path d="M703.880075 319.768145a31.980012 31.980012 0 1 0 0 63.960025 127.92005 127.92005 0 0 1 127.92005 127.92005 31.980012 31.980012 0 1 0 63.960025 0 191.880075 191.880075 0 0 0-191.880075-191.880075z" fill="#FFFFFF" /></svg>
