<?xml version="1.0" encoding="utf-8"?>
<!-- Uploaded to: SVG Repo, www.svgrepo.com, Generator: SVG Repo Mixer Tools -->
<svg width="800px" height="800px" viewBox="-3.84 0 50.112 50.112" xmlns="http://www.w3.org/2000/svg">
  <g id="Group_1645" data-name="Group 1645" transform="translate(3567.073 -2189.477)">
    <path id="Path_3487" data-name="Path 3487" d="M-3544.233,2190.845c-3.156,1.33-4.269,5.839-4.269,5.839s4,2.35,7.16,1.019,4.27-5.837,4.27-5.837-4-2.351-7.161-1.021" fill="#ffffff" fill-rule="evenodd"/>
    <path id="Path_3488" data-name="Path 3488" d="M-3541.161,2193.917c-3.156,1.33-4.269,5.838-4.269,5.838s4,2.351,7.16,1.02,4.27-5.838,4.27-5.838-4-2.35-7.161-1.02" fill="#5db67d" fill-rule="evenodd"/>
    <path id="Path_3489" data-name="Path 3489" d="M-3547.344,2196.2c1.173.541,3.657,1.455,5.63.624s3.052-3.247,3.484-4.466c-1.174-.541-3.657-1.454-5.629-.624h0C-3545.833,2192.561-3546.911,2194.977-3547.344,2196.2Zm3.844,2.875a12.2,12.2,0,0,1-5.489-1.559.959.959,0,0,1-.446-1.058c.05-.2,1.271-4.993,4.83-6.492h0c3.556-1.5,7.839.97,8.019,1.076a.961.961,0,0,1,.447,1.059c-.051.2-1.271,4.992-4.831,6.492a6.477,6.477,0,0,1-2.53.482" fill="#6f0911" fill-rule="evenodd"/>
    <path id="Path_3490" data-name="Path 3490" d="M-3547.509,2236.336a1.047,1.047,0,0,0,1.176,0c3.568-2.417,16.176-2.977,18.314-16.369,2.422-15.173-10.466-23.458-18.9-15.992-8.435-7.466-21.323.819-18.9,15.992,2.138,13.392,14.746,13.952,18.314,16.369" fill="#ffffff" fill-rule="evenodd"/>
    <path id="Path_3491" data-name="Path 3491" d="M-3544.438,2239.409a1.052,1.052,0,0,0,1.177,0c3.568-2.418,16.176-2.978,18.314-16.37,2.422-15.173-10.466-23.458-18.9-15.992-8.435-7.466-21.323.819-18.9,15.992,2.138,13.392,14.746,13.952,18.313,16.37" fill="#f48e3c" fill-rule="evenodd"/>
    <path id="Path_3492" data-name="Path 3492" d="M-3546.972,2235.541a.087.087,0,0,0,.1,0,18.415,18.415,0,0,1,3.945-1.685c5.238-1.83,12.409-4.338,13.959-14.041,1.4-8.793-2.557-14.361-6.375-16.458a9.254,9.254,0,0,0-10.944,1.337.956.956,0,0,1-1.272,0,9.251,9.251,0,0,0-10.944-1.337c-3.818,2.1-7.777,7.665-6.375,16.46,1.55,9.7,8.721,12.209,13.958,14.039A18.4,18.4,0,0,1-3546.972,2235.541Zm.05,1.938a2.012,2.012,0,0,1-1.126-.347h0a17.7,17.7,0,0,0-3.5-1.463c-5.046-1.764-13.491-4.715-15.22-15.55-1.286-8.048,1.6-15.288,7.345-18.444a11.182,11.182,0,0,1,12.5,1.055,11.184,11.184,0,0,1,12.506-1.055c5.746,3.156,8.629,10.4,7.345,18.444-1.729,10.835-10.175,13.786-15.22,15.55a17.672,17.672,0,0,0-3.5,1.463,2.009,2.009,0,0,1-1.128.348" fill="#6f0911" fill-rule="evenodd"/>
    <path id="Path_3493" data-name="Path 3493" d="M-3546.922,2228.261c-3.349,0-7.6-4.43-7.6-9.408a11.122,11.122,0,0,1,1.876-6.734.96.96,0,0,1,1.345-.188.96.96,0,0,1,.188,1.345,9.27,9.27,0,0,0-1.489,5.577c0,4.327,3.734,7.488,5.677,7.488s5.679-3.161,5.679-7.488c0-2.8-.737-7.488-5.679-7.488a.96.96,0,0,1-.96-.96.96.96,0,0,1,.96-.96c4.759,0,7.6,3.517,7.6,9.408,0,4.978-4.248,9.408-7.6,9.408" fill="#6f0911" fill-rule="evenodd"/>
    <path id="Path_3494" data-name="Path 3494" d="M-3545.323,2221.979a.968.968,0,0,1-.248-.033.962.962,0,0,1-.679-1.177,7.4,7.4,0,0,0,.255-1.916,12.592,12.592,0,0,0-.353-3.09.959.959,0,0,1,.693-1.167.958.958,0,0,1,1.166.694,14.391,14.391,0,0,1,.414,3.563,9.3,9.3,0,0,1-.321,2.414.961.961,0,0,1-.927.712" fill="#6f0911" fill-rule="evenodd"/>
    <path id="Path_3495" data-name="Path 3495" d="M-3553.875,2191.717a.952.952,0,0,1-.528-.159c-.16-.1-.314-.2-.462-.279a.961.961,0,0,1-.38-1.3.959.959,0,0,1,1.3-.379c.191.1.39.225.595.36a.96.96,0,0,1,.273,1.33.959.959,0,0,1-.8.431" fill="#6f0911" fill-rule="evenodd"/>
    <path id="Path_3496" data-name="Path 3496" d="M-3546.859,2204.935a.96.96,0,0,1-.96-.96,15.959,15.959,0,0,0-4.256-10.37.961.961,0,0,1,.062-1.356.963.963,0,0,1,1.357.061,17.91,17.91,0,0,1,4.757,11.665.958.958,0,0,1-.96.96" fill="#6f0911" fill-rule="evenodd"/>
  </g>
</svg>