<?xml version="1.0" ?>
<!-- Uploaded to: SVG Repo, www.svgrepo.com, Generator: SVG Repo Mixer Tools -->
<svg width="800px" height="800px" viewBox="0 0 128 128" version="1.1" xml:space="preserve" xmlns="http://www.w3.org/2000/svg" xmlns:xlink="http://www.w3.org/1999/xlink">
<style type="text/css">
	.st0{fill:#69A401;}
	.st1{fill:#EFE691;}
	.st2{fill:#B20000;}
	.st3{fill:#DF1801;}
	.st4{fill:#F40603;}
	.st5{fill:#FFEEEE;}
	.st6{fill:#847B3C;}
	.st7{fill:#CEB600;}
	.st8{fill:#F8CD02;}
	.st9{fill:#F7C800;}
	.st10{fill:#F6E8B9;}
	.st11{fill:#F6E9CA;}
	.st12{fill:#CF8A11;}
	.st13{fill:#286F0D;}
	.st14{fill:#63271D;}
	.st15{fill:#EB8102;}
	.st16{fill:#E37303;}
	.st17{fill:#D97102;}
	.st18{fill:#BF6302;}
	.st19{fill:#EA9735;}
	.st20{fill:#3E1A01;}
	.st21{fill:#C96A0A;}
	.st22{fill:#CE2335;}
	.st23{fill:#C0242D;}
	.st24{fill:#BA1A23;}
	.st25{fill:#F9DCC7;}
	.st26{fill:#DBE2CE;}
	.st27{fill:#7D4B12;}
	.st28{fill:#75480C;}
	.st29{fill:#66410C;}
	.st30{fill:#88550D;}
	.st31{fill:#FFFEE9;}
	.st32{fill:#9B9F1A;}
	.st33{fill:#F6E177;}
	.st34{fill:#443A00;}
	.st35{fill:#305209;}
	.st36{fill:#7F7C04;}
	.st37{fill:#BAB424;}
	.st38{fill:#F7CF43;}
	.st39{fill:#DE940E;}
	.st40{fill:#5F570A;}
	.st41{fill:#175424;}
	.st42{fill:#215B25;}
	.st43{fill:#1B5020;}
	.st44{fill:#C0F9C0;}
	.st45{fill:#F3DA78;}
	.st46{fill:#BC441C;}
	.st47{fill:#148E2E;}
	.st48{fill:#283767;}
	.st49{fill:#425285;}
	.st50{fill:#CFDFFF;}
	.st51{fill:#1F2C55;}
	.st52{fill:#776220;}
	.st53{fill:#90236B;}
	.st54{fill:#5D1A47;}
	.st55{fill:#99499A;}
	.st56{fill:#FCCAFA;}
	.st57{fill:#917C31;}
	.st58{fill:#F4C435;}
	.st59{fill:#F1BC02;}
	.st60{fill:#F0B102;}
	.st61{fill:#F1F7BA;}
	.st62{fill:#E3DCB9;}
	.st63{fill:#BD6800;}
	.st64{fill:#E19704;}
	.st65{fill:#B2CA2B;}
	.st66{fill:#AFC20F;}
	.st67{fill:#B9CB00;}
	.st68{fill:#E5F392;}
	.st69{fill:#F78202;}
	.st70{fill:#F79613;}
	.st71{fill:#331F07;}
	.st72{fill:#402B16;}
	.st73{fill:#669404;}
	.st74{fill:#F58E13;}
	.st75{fill:#D87117;}
	.st76{fill:#216604;}
	.st77{fill:#286D08;}
	.st78{fill:#C8C625;}
	.st79{fill:#2C441F;}
	.st80{fill:#F1E6BF;}
	.st81{fill:#F2BE2E;}
	.st82{fill:#BF8F33;}
	.st83{fill:#568804;}
	.st84{fill:#669614;}
	.st85{fill:#688E0C;}
	.st86{fill:#4C7005;}
	.st87{fill:#A0CA49;}
	.st88{fill:#99BD70;}
	.st89{fill:#78AA25;}
	.st90{fill:#4B7C23;}
	.st91{fill:#EADBC8;}
	.st92{fill:#F0D5B0;}
	.st93{fill:#DF2B2B;}
	.st94{fill:#D1262C;}
	.st95{fill:#B7252C;}
	.st96{fill:#46670C;}
	.st97{fill:#F49D5B;}
	.st98{fill:#F57A55;}
	.st99{fill:#F1C3A7;}
	.st100{fill:#CC0917;}
	.st101{fill:#DC1035;}
	.st102{fill:#9BAC0F;}
	.st103{fill:#667A1D;}
	.st104{fill:#7A9D18;}
	.st105{fill:#F6F7E6;}
	.st106{fill:#F0194D;}
	.st107{fill:#362420;}
	.st108{fill:#530618;}
	.st109{fill:#44041A;}
	.st110{fill:#490419;}
	.st111{fill:#F8A459;}
	.st112{fill:#871B22;}
	.st113{fill:#600613;}
	.st114{fill:#F8C790;}
	.st115{fill:#447832;}
	.st116{fill:#7C473D;}
	.st117{fill:#441432;}
	.st118{fill:#51163F;}
	.st119{fill:#5B1A41;}
	.st120{fill:#FCEBF9;}
	.st121{fill:#ECE5CE;}
	.st122{fill:#BC3E2C;}
	.st123{fill:#A60F26;}
	.st124{fill:#C61632;}
	.st125{fill:#BD1331;}
	.st126{fill:#F8B772;}
	.st127{fill:#F7DDAC;}
	.st128{fill:#850E11;}
	.st129{fill:#191200;}
	.st130{fill:#553D2D;}
	.st131{fill:#F9E2D2;}
	.st132{fill:#CA8937;}
	.st133{fill:#462D16;}
	.st134{fill:#6D8916;}
	.st135{fill:#96B54E;}
	.st136{fill:#E3E2DE;}
	.st137{fill:#261811;}
	.st138{fill:#525C11;}
	.st139{fill:#14581E;}
	.st140{fill:#3D7712;}
	.st141{fill:#9BC148;}
	.st142{fill:#E22434;}
	.st143{fill:#C6DD9E;}
	.st144{fill:#F89A07;}
	.st145{fill:#F7A410;}
	.st146{fill:#F8AB19;}
	.st147{fill:#F7B81C;}
	.st148{fill:#E5870A;}
	.st149{fill:#97A304;}
	.st150{fill:#A88C5C;}
	.st151{fill:#ADC21E;}
	.st152{fill:#A3BA0B;}
	.st153{fill:#8D9E08;}
	.st154{fill:#E0DAB9;}
	.st155{fill:#684219;}
	.st156{fill:#777F05;}
	.st157{fill:#F2E9C4;}
	.st158{fill:#CBB465;}
	.st159{fill:#FFF5CA;}
	.st160{fill:#E52828;}
	.st161{fill:#F87302;}
	.st162{fill:#FF7B22;}
	.st163{fill:#FC7F10;}
	.st164{fill:#F8A200;}
	.st165{fill:#F8DC91;}
	.st166{fill:#FFFFFF;}
	.st167{fill:#F5D7D5;}
	.st168{fill:#EDA07A;}
	.st169{fill:#FCBEBE;}
	.st170{fill:#EAD991;}
	.st171{fill:#582612;}
</style>
<g id="_x33_0_Mulberry"/>
<g id="_x32_9_Star_Fruit"/>
<g id="_x32_8_Apricot">
<g id="XMLID_246_">
<g id="XMLID_758_">
<g id="XMLID_761_">
<path class="st13" d="M40.012,14.365c-4.668,7.006-5.243,15.195-2.368,22.32      c8.327-1.057,16.075-5.359,20.744-12.366S63.631,9.126,60.756,2C52.428,3.057,44.68,7.359,40.012,14.365z" id="XMLID_804_"/>
<path class="st14" d="M38.666,46.738c-0.982,0-1.839-0.724-1.979-1.725l-0.417-3.131c0-6.737-3.48-12.962-9.311-16.649      c-0.934-0.591-1.211-1.826-0.621-2.76c0.59-0.933,1.826-1.212,2.759-0.621c6.955,4.4,11.124,11.826,11.171,19.889l0.379,2.722      c0.152,1.094-0.611,2.104-1.705,2.256C38.85,46.732,38.757,46.738,38.666,46.738z"/>
</g>
<path class="st15" d="M38.095,112.786c2.954,3.01,7.439,4.016,11.351,2.441     c15.772-6.352,21.347-23.904,22.756-28.739c3.009-9.633,2.747-17.837,1.593-23.878c-2.181-11.417-11.51-20.183-22.834-20.705     c-0.401-0.018-0.804-0.028-1.209-0.028c-0.853,0-1.616,0.042-2.318,0.123c-5.572,0.644-11.218,0.644-16.79,0     c-0.703-0.081-1.465-0.123-2.318-0.123c-14.425,0-24.168,10.548-26.119,26.384C0.799,79.669,6.4,108.229,26.579,115.719     c4.008,1.488,8.524,0.35,11.404-2.81L38.095,112.786L38.095,112.786z" id="XMLID_805_"/>
<path class="st16" d="M16.671,68.261c1.562-12.682,8.126-21.967,18.086-25.164     c-1.907-0.787-3.704-1.22-6.433-1.22c-14.425,0-24.168,10.548-26.119,26.384c-1.406,11.409,4.197,39.976,24.383,47.46     c3.584,1.329,7.567,0.553,10.43-1.888C20.122,104.295,15.364,78.869,16.671,68.261z" id="XMLID_1757_"/>
<path class="st17" d="M10.471,68.261c1.74-14.128,9.687-24.041,21.623-26.016     c-1.096-0.239-2.294-0.369-3.771-0.369c-14.425,0-24.168,10.548-26.119,26.384c-1.406,11.409,4.197,39.976,24.383,47.46     c2.561,0.95,5.327,0.823,7.743-0.216C14.578,107.721,9.078,79.57,10.471,68.261z" id="XMLID_1712_"/>
<path class="st18" d="M39.766,111.864c-17.678-29.032-2.169-44.837-1.244-46.024     c0.279-0.356-2.922-1.913-3.517-2.191c-2.524,3.524-16.456,20.449,1.195,50.305c0.073,0.123,0.164,0.225,0.256,0.327     c0.545-0.404,1.059-0.858,1.527-1.372l0.112-0.123h0c0.485,0.494,1.015,0.929,1.573,1.313     C40.121,113.457,40.201,112.579,39.766,111.864z" id="XMLID_1892_"/>
</g>
<g id="XMLID_245_">
<path class="st19" d="M97.396,123.153c2.316,2.394,5.825,3.194,8.889,1.943     c12.362-5.049,16.732-19.007,17.836-22.853c2.358-7.659,2.152-14.182,1.248-18.985c-1.709-9.077-9.019-16.047-17.892-16.462     c-0.314-0.015-0.63-0.022-0.947-0.022c-0.51,0-0.977,0.019-1.415,0.057c-4.65,0.401-9.309,0.401-13.959,0     c-0.437-0.038-0.905-0.057-1.415-0.057c-11.303,0-18.937,8.387-20.466,20.978c-1.101,9.071,3.288,31.784,19.106,37.735     c3.138,1.181,6.671,0.277,8.929-2.236L97.396,123.153L97.396,123.153z" id="XMLID_243_"/>
<ellipse class="st20" cx="97.557" cy="93.287" id="XMLID_244_" rx="8.797" ry="11.749"/>
<path class="st21" d="M124.121,95.01c-1.104,3.845-5.473,17.804-17.836,22.853     c-3.064,1.251-6.573,0.451-8.889-1.943l-0.088,0.098c-2.257,2.513-5.79,3.417-8.929,2.236     c-12.638-4.755-17.976-20.205-19.051-30.853c-0.016,0.119-0.04,0.232-0.054,0.352c-1.101,9.071,3.288,31.784,19.106,37.735     c3.138,1.181,6.671,0.277,8.929-2.236l0.088-0.098c2.316,2.394,5.825,3.194,8.889,1.943     c12.362-5.049,16.732-19.007,17.836-22.853c1.863-6.053,2.123-11.392,1.704-15.738C125.579,89.14,125.052,91.985,124.121,95.01z" id="XMLID_2019_"/>
</g>
</g>
</g>
<g id="_x32_7_Litchi"/>
<g id="_x32_6_Kiwi"/>
<g id="_x32_5_Jackfruit"/>
<g id="_x32_4_Avacado"/>
<g id="_x32_3_Blueberry"/>
<g id="_x32_2_Purple_Grapes"/>
<g id="_x32_1_Melon"/>
<g id="_x32_0_Green_Grapes"/>
<g id="_x31_9_Papaya"/>
<g id="_x31_8_Pineapple"/>
<g id="_x31_7_Banana"/>
<g id="_x31_6_Tender_Coconut"/>
<g id="_x31_5_Strawberry"/>
<g id="_x31_4_Dragon_Fruit"/>
<g id="_x31_3_Plum"/>
<g id="_x31_2_Fig"/>
<g id="_x31_1_Peach"/>
<g id="_x31_0_Cherry"/>
<g id="_x30_9_Sapota"/>
<g id="_x30_8_Custard_Apple"/>
<g id="_x30_7_Watermelon"/>
<g id="_x30_6_Mango"/>
<g id="_x30_5_Pear"/>
<g id="_x30_4_Guava"/>
<g id="_x30_3_Pomegranate"/>
<g id="_x30_2_Orange"/>
<g id="_x30_1_Apple"/>
</svg>