<?xml version="1.0" encoding="utf-8"?>
<!-- Uploaded to: SVG Repo, www.svgrepo.com, Generator: SVG Repo Mixer Tools -->
<svg width="800px" height="800px" viewBox="0 0 1024 1024" class="icon"  version="1.1" xmlns="http://www.w3.org/2000/svg"><path d="M469.333333 341.333333v597.333334c0 23.466667-19.2 42.666667-42.666666 42.666666s-42.666667-19.2-42.666667-42.666666V341.333333h85.333333z m85.333334 0v597.333334c0 23.466667 19.2 42.666667 42.666666 42.666666s42.666667-19.2 42.666667-42.666666V341.333333h-85.333333z" fill="#558B2F" /><path d="M426.666667 106.666667s64 81.066667 64 181.333333-27.733333 181.333333-64 181.333333-64-81.066667-64-181.333333S426.666667 106.666667 426.666667 106.666667z m106.666666 181.333333c0 100.266667 27.733333 181.333333 64 181.333333s64-81.066667 64-181.333333S597.333333 106.666667 597.333333 106.666667s-64 81.066667-64 181.333333z" fill="#1B5E20" /><path d="M554.666667 341.333333v597.333334c0 23.466667-19.2 42.666667-42.666667 42.666666s-42.666667-19.2-42.666667-42.666666V341.333333h85.333334z m85.333333 0v597.333334c0 23.466667 19.2 42.666667 42.666667 42.666666s42.666667-19.2 42.666666-42.666666V341.333333h-85.333333z m-341.333333 0v597.333334c0 23.466667 19.2 42.666667 42.666666 42.666666s42.666667-19.2 42.666667-42.666666V341.333333h-85.333333z" fill="#8BC34A" /><path d="M682.666667 42.666667s64 81.066667 64 181.333333-27.733333 181.333333-64 181.333333-64-81.066667-64-181.333333S682.666667 42.666667 682.666667 42.666667z m-405.333334 181.333333c0 100.266667 27.733333 181.333333 64 181.333333s64-81.066667 64-181.333333S341.333333 42.666667 341.333333 42.666667s-64 81.066667-64 181.333333z m170.666667 0c0 100.266667 27.733333 181.333333 64 181.333333s64-81.066667 64-181.333333S512 42.666667 512 42.666667s-64 81.066667-64 181.333333z" fill="#689F38" /><path d="M362.666667 149.333333c0 12.8-8.533333 21.333333-21.333334 21.333334s-21.333333-8.533333-21.333333-21.333334 21.333333-64 21.333333-64 21.333333 51.2 21.333334 64z m-64 0s-21.333333 51.2-21.333334 64 8.533333 21.333333 21.333334 21.333334 21.333333-8.533333 21.333333-21.333334-21.333333-64-21.333333-64z m85.333333 0s-21.333333 51.2-21.333333 64 8.533333 21.333333 21.333333 21.333334 21.333333-8.533333 21.333333-21.333334-21.333333-64-21.333333-64z m-42.666667 64s-21.333333 51.2-21.333333 64 8.533333 21.333333 21.333333 21.333334 21.333333-8.533333 21.333334-21.333334-21.333333-64-21.333334-64z m-55.466666 100.266667c4.266667 19.2 8.533333 36.266667 14.933333 49.066667 10.666667 0 21.333333-10.666667 21.333333-21.333334 0-12.8-21.333333-64-21.333333-64s-8.533333 19.2-14.933333 36.266667zM384 277.333333s-21.333333 51.2-21.333333 64c0 10.666667 8.533333 19.2 19.2 21.333334 6.4-14.933333 10.666667-32 14.933333-51.2-4.266667-17.066667-12.8-34.133333-12.8-34.133334z m-42.666667 64s-21.333333 51.2-21.333333 64 8.533333 21.333333 21.333333 21.333334 21.333333-8.533333 21.333334-21.333334-21.333333-64-21.333334-64z m170.666667-256s-21.333333 51.2-21.333333 64 8.533333 21.333333 21.333333 21.333334 21.333333-8.533333 21.333333-21.333334-21.333333-64-21.333333-64z m-42.666667 64s-21.333333 51.2-21.333333 64 8.533333 21.333333 21.333333 21.333334 21.333333-8.533333 21.333334-21.333334-21.333333-64-21.333334-64z m85.333334 0s-21.333333 51.2-21.333334 64 8.533333 21.333333 21.333334 21.333334 21.333333-8.533333 21.333333-21.333334-21.333333-64-21.333333-64z m-42.666667 64s-21.333333 51.2-21.333333 64 8.533333 21.333333 21.333333 21.333334 21.333333-8.533333 21.333333-21.333334-21.333333-64-21.333333-64z m-55.466667 100.266667c4.266667 19.2 8.533333 36.266667 14.933334 49.066667 10.666667 0 21.333333-10.666667 21.333333-21.333334 0-12.8-21.333333-64-21.333333-64s-8.533333 19.2-14.933334 36.266667zM554.666667 277.333333s-21.333333 51.2-21.333334 64c0 10.666667 8.533333 19.2 19.2 21.333334 6.4-14.933333 10.666667-32 14.933334-51.2-4.266667-17.066667-12.8-34.133333-12.8-34.133334z m-42.666667 64s-21.333333 51.2-21.333333 64 8.533333 21.333333 21.333333 21.333334 21.333333-8.533333 21.333333-21.333334-21.333333-64-21.333333-64z m170.666667-256s-21.333333 51.2-21.333334 64 8.533333 21.333333 21.333334 21.333334 21.333333-8.533333 21.333333-21.333334-21.333333-64-21.333333-64z m-42.666667 64s-21.333333 51.2-21.333333 64 8.533333 21.333333 21.333333 21.333334 21.333333-8.533333 21.333333-21.333334-21.333333-64-21.333333-64z m85.333333 0s-21.333333 51.2-21.333333 64 8.533333 21.333333 21.333333 21.333334 21.333333-8.533333 21.333334-21.333334-21.333333-64-21.333334-64z m-42.666666 64s-21.333333 51.2-21.333334 64 8.533333 21.333333 21.333334 21.333334 21.333333-8.533333 21.333333-21.333334-21.333333-64-21.333333-64z m-55.466667 100.266667c4.266667 19.2 8.533333 36.266667 14.933333 49.066667 10.666667 0 21.333333-10.666667 21.333334-21.333334 0-12.8-21.333333-64-21.333334-64s-8.533333 19.2-14.933333 36.266667zM725.333333 277.333333s-21.333333 51.2-21.333333 64c0 10.666667 8.533333 19.2 19.2 21.333334 6.4-14.933333 10.666667-32 14.933333-51.2-4.266667-17.066667-12.8-34.133333-12.8-34.133334z m-42.666666 64s-21.333333 51.2-21.333334 64 8.533333 21.333333 21.333334 21.333334 21.333333-8.533333 21.333333-21.333334-21.333333-64-21.333333-64z" fill="#2E7D32" /><path d="M362.666667 554.666667c0 12.8-8.533333 21.333333-21.333334 21.333333s-21.333333-8.533333-21.333333-21.333333 21.333333-64 21.333333-64 21.333333 51.2 21.333334 64z m149.333333-64s-21.333333 51.2-21.333333 64 8.533333 21.333333 21.333333 21.333333 21.333333-8.533333 21.333333-21.333333-21.333333-64-21.333333-64z m170.666667 0s-21.333333 51.2-21.333334 64 8.533333 21.333333 21.333334 21.333333 21.333333-8.533333 21.333333-21.333333-21.333333-64-21.333333-64z" fill="#558B2F" /></svg>
