<?xml version="1.0" ?>
<!-- Uploaded to: SVG Repo, www.svgrepo.com, Generator: SVG Repo Mixer Tools -->
<svg width="800px" height="800px" viewBox="0 0 128 128" version="1.1" xml:space="preserve" xmlns="http://www.w3.org/2000/svg" xmlns:xlink="http://www.w3.org/1999/xlink">
<style type="text/css">
	.st0{fill:#69A401;}
	.st1{fill:#EFE691;}
	.st2{fill:#B20000;}
	.st3{fill:#DF1801;}
	.st4{fill:#F40603;}
	.st5{fill:#FFEEEE;}
	.st6{fill:#847B3C;}
	.st7{fill:#CEB600;}
	.st8{fill:#F8CD02;}
	.st9{fill:#F7C800;}
	.st10{fill:#F6E8B9;}
	.st11{fill:#F6E9CA;}
	.st12{fill:#CF8A11;}
	.st13{fill:#286F0D;}
	.st14{fill:#63271D;}
	.st15{fill:#EB8102;}
	.st16{fill:#E37303;}
	.st17{fill:#D97102;}
	.st18{fill:#BF6302;}
	.st19{fill:#EA9735;}
	.st20{fill:#3E1A01;}
	.st21{fill:#C96A0A;}
	.st22{fill:#CE2335;}
	.st23{fill:#C0242D;}
	.st24{fill:#BA1A23;}
	.st25{fill:#F9DCC7;}
	.st26{fill:#DBE2CE;}
	.st27{fill:#7D4B12;}
	.st28{fill:#75480C;}
	.st29{fill:#66410C;}
	.st30{fill:#88550D;}
	.st31{fill:#FFFEE9;}
	.st32{fill:#9B9F1A;}
	.st33{fill:#F6E177;}
	.st34{fill:#443A00;}
	.st35{fill:#305209;}
	.st36{fill:#7F7C04;}
	.st37{fill:#BAB424;}
	.st38{fill:#F7CF43;}
	.st39{fill:#DE940E;}
	.st40{fill:#5F570A;}
	.st41{fill:#175424;}
	.st42{fill:#215B25;}
	.st43{fill:#1B5020;}
	.st44{fill:#C0F9C0;}
	.st45{fill:#F3DA78;}
	.st46{fill:#BC441C;}
	.st47{fill:#148E2E;}
	.st48{fill:#283767;}
	.st49{fill:#425285;}
	.st50{fill:#CFDFFF;}
	.st51{fill:#1F2C55;}
	.st52{fill:#776220;}
	.st53{fill:#90236B;}
	.st54{fill:#5D1A47;}
	.st55{fill:#99499A;}
	.st56{fill:#FCCAFA;}
	.st57{fill:#917C31;}
	.st58{fill:#F4C435;}
	.st59{fill:#F1BC02;}
	.st60{fill:#F0B102;}
	.st61{fill:#F1F7BA;}
	.st62{fill:#E3DCB9;}
	.st63{fill:#BD6800;}
	.st64{fill:#E19704;}
	.st65{fill:#B2CA2B;}
	.st66{fill:#AFC20F;}
	.st67{fill:#B9CB00;}
	.st68{fill:#E5F392;}
	.st69{fill:#F78202;}
	.st70{fill:#F79613;}
	.st71{fill:#331F07;}
	.st72{fill:#402B16;}
	.st73{fill:#669404;}
	.st74{fill:#F58E13;}
	.st75{fill:#D87117;}
	.st76{fill:#216604;}
	.st77{fill:#286D08;}
	.st78{fill:#C8C625;}
	.st79{fill:#2C441F;}
	.st80{fill:#F1E6BF;}
	.st81{fill:#F2BE2E;}
	.st82{fill:#BF8F33;}
	.st83{fill:#568804;}
	.st84{fill:#669614;}
	.st85{fill:#688E0C;}
	.st86{fill:#4C7005;}
	.st87{fill:#A0CA49;}
	.st88{fill:#99BD70;}
	.st89{fill:#78AA25;}
	.st90{fill:#4B7C23;}
	.st91{fill:#EADBC8;}
	.st92{fill:#F0D5B0;}
	.st93{fill:#DF2B2B;}
	.st94{fill:#D1262C;}
	.st95{fill:#B7252C;}
	.st96{fill:#46670C;}
	.st97{fill:#F49D5B;}
	.st98{fill:#F57A55;}
	.st99{fill:#F1C3A7;}
	.st100{fill:#CC0917;}
	.st101{fill:#DC1035;}
	.st102{fill:#9BAC0F;}
	.st103{fill:#667A1D;}
	.st104{fill:#7A9D18;}
	.st105{fill:#F6F7E6;}
	.st106{fill:#F0194D;}
	.st107{fill:#362420;}
	.st108{fill:#530618;}
	.st109{fill:#44041A;}
	.st110{fill:#490419;}
	.st111{fill:#F8A459;}
	.st112{fill:#871B22;}
	.st113{fill:#600613;}
	.st114{fill:#F8C790;}
	.st115{fill:#447832;}
	.st116{fill:#7C473D;}
	.st117{fill:#441432;}
	.st118{fill:#51163F;}
	.st119{fill:#5B1A41;}
	.st120{fill:#FCEBF9;}
	.st121{fill:#ECE5CE;}
	.st122{fill:#BC3E2C;}
	.st123{fill:#A60F26;}
	.st124{fill:#C61632;}
	.st125{fill:#BD1331;}
	.st126{fill:#F8B772;}
	.st127{fill:#F7DDAC;}
	.st128{fill:#850E11;}
	.st129{fill:#191200;}
	.st130{fill:#553D2D;}
	.st131{fill:#F9E2D2;}
	.st132{fill:#CA8937;}
	.st133{fill:#462D16;}
	.st134{fill:#6D8916;}
	.st135{fill:#96B54E;}
	.st136{fill:#E3E2DE;}
	.st137{fill:#261811;}
	.st138{fill:#525C11;}
	.st139{fill:#14581E;}
	.st140{fill:#3D7712;}
	.st141{fill:#9BC148;}
	.st142{fill:#E22434;}
	.st143{fill:#C6DD9E;}
	.st144{fill:#F89A07;}
	.st145{fill:#F7A410;}
	.st146{fill:#F8AB19;}
	.st147{fill:#F7B81C;}
	.st148{fill:#E5870A;}
	.st149{fill:#97A304;}
	.st150{fill:#A88C5C;}
	.st151{fill:#ADC21E;}
	.st152{fill:#A3BA0B;}
	.st153{fill:#8D9E08;}
	.st154{fill:#E0DAB9;}
	.st155{fill:#684219;}
	.st156{fill:#777F05;}
	.st157{fill:#F2E9C4;}
	.st158{fill:#CBB465;}
	.st159{fill:#FFF5CA;}
	.st160{fill:#E52828;}
	.st161{fill:#F87302;}
	.st162{fill:#FF7B22;}
	.st163{fill:#FC7F10;}
	.st164{fill:#F8A200;}
	.st165{fill:#F8DC91;}
	.st166{fill:#FFFFFF;}
	.st167{fill:#F5D7D5;}
	.st168{fill:#EDA07A;}
	.st169{fill:#FCBEBE;}
	.st170{fill:#EAD991;}
	.st171{fill:#582612;}
</style>
<g id="_x33_0_Mulberry"/>
<g id="_x32_9_Star_Fruit">
<g id="XMLID_291_">
<g id="XMLID_3_">
<path class="st6" d="M34.166,15.347c-1.104,0-2-0.896-2-2v-3.324C32.166,5.599,35.808,2,40.283,2c1.104,0,2,0.896,2,2     s-0.896,2-2,2c-2.271,0-4.117,1.805-4.117,4.022v3.324C36.166,14.451,35.271,15.347,34.166,15.347z"/>
<path class="st7" d="M34.166,30.019c-5.424,0-9.836-4.645-9.836-10.353c0-5.209,3.677-8.319,9.836-8.319     c6.158,0,9.835,3.11,9.835,8.319C44.001,25.374,39.589,30.019,34.166,30.019z M34.166,15.347c-5.836,0-5.836,3.251-5.836,4.319     c0,3.503,2.618,6.353,5.836,6.353s5.835-2.85,5.835-6.353C40.001,18.598,40.001,15.347,34.166,15.347z"/>
<path class="st8" d="M33.888,104.568c2.384,3.665,7.257,4.885,11.117,2.764     c12.377-6.801,21.226-24.867,21.226-46.084c0-17.073-5.73-32.106-14.418-40.87c-4.789-4.832-12.848-4.287-17.042,1.054     l-1.192,1.517l0,0c-3.946-6.258-12.91-7.173-17.961-1.738C7.38,30.077,2,44.705,2,61.249c0,20.917,8.601,38.772,20.704,45.789     c3.8,2.203,8.69,1.09,11.159-2.508h0L33.888,104.568z" id="XMLID_100_"/>
<g id="XMLID_5_">
<path class="st7" d="M35.914,104.562l-0.283-81.619c-0.002-0.648-0.315-1.217-0.792-1.587      c-0.022,0.027-0.046,0.05-0.068,0.077l-1.192,1.517v0c-0.37-0.587-0.797-1.111-1.248-1.604c-0.487,0.373-0.806,0.953-0.803,1.61      l0.283,81.619c0.002,0.594,0.265,1.122,0.675,1.492c0.51-0.448,0.977-0.957,1.376-1.538l0.025,0.038      c0.375,0.577,0.818,1.086,1.303,1.538C35.632,105.732,35.917,105.182,35.914,104.562z" id="XMLID_2082_"/>
<path class="st7" d="M54.915,64.386c0-21.843-5.872-40.662-14.43-46.824c-1.423,0.424-2.777,1.116-3.964,2.085      c0.173,0.256,0.401,0.48,0.69,0.641c6.759,3.765,13.601,20.12,13.601,44.097c0,20.79-4.494,36.914-11.728,42.078      c-0.501,0.357-0.782,0.898-0.835,1.463c1.706,0.571,3.588,0.6,5.357,0.012C50.731,100.75,54.915,84.839,54.915,64.386z" id="XMLID_2083_"/>
<path class="st7" d="M28.495,106.461c-6.896-4.884-11.013-20.613-11.013-42.075      c0-20.272,5.451-38.654,12.961-43.708c0.233-0.157,0.424-0.353,0.568-0.574c-1.18-0.93-2.519-1.594-3.927-1.998      c-8.242,6.692-13.705,24.964-13.705,46.28c0,20.845,3.574,35.888,10.133,43.059c1.874,0.832,3.937,0.921,5.816,0.365      C29.247,107.286,28.964,106.793,28.495,106.461z" id="XMLID_2084_"/>
</g>
</g>
<g id="XMLID_114_">
<path class="st9" d="M125.998,86.896c-15.302-12.668-23.209-4.986-23.209-4.986     c2.923-11.791-11.437-23.818-9.917-22.514c-10.895,8.948-11.932,16.975-11.738,20.412c-10.028-4.483-23.874,4.832-22.236,3.908     c4.938,12.312,11.462,15.808,14.753,16.8c-7.636,7.904-3.631,24.119-3.939,22.262c13.242-0.436,18.753-5.38,20.81-8.137     c4.805,9.889,21.39,11.667,19.542,11.32c4.471-13.685,0.847-20.618-0.976-23.016C120.984,102.976,125.986,86.993,125.998,86.896z     " id="XMLID_289_"/>
<path class="st10" d="M92.852,79.73c-1.104,0-2-0.896-2-2v-7.512c0-1.104,0.896-2,2-2s2,0.896,2,2v7.512     C94.852,78.835,93.956,79.73,92.852,79.73z"/>
<path class="st10" d="M78.978,92.503c-0.228,0-0.459-0.039-0.685-0.122l-7.05-2.569c-1.038-0.378-1.572-1.526-1.194-2.563     c0.379-1.038,1.529-1.575,2.563-1.194l7.05,2.569c1.038,0.378,1.573,1.526,1.194,2.563     C80.561,91.998,79.794,92.503,78.978,92.503z"/>
<path class="st10" d="M77.862,114.355c-0.453,0-0.909-0.153-1.283-0.467c-0.847-0.71-0.958-1.971-0.249-2.817l4.822-5.755     c0.709-0.848,1.971-0.959,2.817-0.249s0.958,1.971,0.249,2.817l-4.822,5.755C79.001,114.112,78.434,114.355,77.862,114.355z"/>
<path class="st10" d="M101.933,114.73c-0.691,0-1.364-0.359-1.734-1.001l-3.75-6.506c-0.552-0.957-0.224-2.181,0.733-2.731     c0.956-0.553,2.18-0.223,2.731,0.733l3.75,6.506c0.552,0.957,0.224,2.181-0.733,2.731     C102.615,114.645,102.271,114.73,101.933,114.73z"/>
<path class="st10" d="M108.183,92.047c-0.952,0-1.796-0.682-1.968-1.652c-0.192-1.088,0.534-2.125,1.622-2.317l7.388-1.305     c1.087-0.188,2.125,0.534,2.317,1.622c0.191,1.088-0.534,2.125-1.622,2.317l-7.388,1.305     C108.415,92.037,108.298,92.047,108.183,92.047z"/>
<ellipse class="st11" cx="92.851" cy="93.038" id="XMLID_247_" rx="5.657" ry="5.665"/>
<g id="XMLID_426_">
<path class="st12" d="M74.235,98.232c-3.067-0.925-9.522-4.798-14.304-15.177      c-0.98,0.555-1.401,0.868-1.032,0.66c4.151,10.35,10.306,15.597,14.753,16.8C74.166,99.677,73.878,99.183,74.235,98.232z" id="XMLID_540_"/>
<path class="st12" d="M125.998,86.896c-0.276-0.228-0.544-0.436-0.815-0.651      c-2.06,4.543-8.458,13.853-16.998,13.831c0.485,0.638,0.352,1.55,0.905,2.87C121.313,102.744,126.1,87.07,125.998,86.896z" id="XMLID_594_"/>
<path class="st12" d="M112.155,112.448c-0.158,2.934-0.76,6.393-2.09,10.463      c1.848,0.346-14.738-1.431-19.542-11.32c-2.057,2.758-8.077,7.828-21.319,8.264c0.137,0.83,0.678,3.95,0.509,2.923      c13.242-0.436,18.753-5.38,20.81-8.137c4.805,9.889,21.39,11.667,19.542,11.32C111.89,120.376,112.354,115.934,112.155,112.448z      " id="XMLID_595_"/>
</g>
</g>
</g>
</g>
<g id="_x32_8_Apricot"/>
<g id="_x32_7_Litchi"/>
<g id="_x32_6_Kiwi"/>
<g id="_x32_5_Jackfruit"/>
<g id="_x32_4_Avacado"/>
<g id="_x32_3_Blueberry"/>
<g id="_x32_2_Purple_Grapes"/>
<g id="_x32_1_Melon"/>
<g id="_x32_0_Green_Grapes"/>
<g id="_x31_9_Papaya"/>
<g id="_x31_8_Pineapple"/>
<g id="_x31_7_Banana"/>
<g id="_x31_6_Tender_Coconut"/>
<g id="_x31_5_Strawberry"/>
<g id="_x31_4_Dragon_Fruit"/>
<g id="_x31_3_Plum"/>
<g id="_x31_2_Fig"/>
<g id="_x31_1_Peach"/>
<g id="_x31_0_Cherry"/>
<g id="_x30_9_Sapota"/>
<g id="_x30_8_Custard_Apple"/>
<g id="_x30_7_Watermelon"/>
<g id="_x30_6_Mango"/>
<g id="_x30_5_Pear"/>
<g id="_x30_4_Guava"/>
<g id="_x30_3_Pomegranate"/>
<g id="_x30_2_Orange"/>
<g id="_x30_1_Apple"/>
</svg>