<?xml version="1.0" ?>
<!-- Uploaded to: SVG Repo, www.svgrepo.com, Generator: SVG Repo Mixer Tools -->
<svg width="800px" height="800px" viewBox="0 0 132.29168 132.29168" id="svg8" version="1.1" xmlns="http://www.w3.org/2000/svg" xmlns:cc="http://creativecommons.org/ns#" xmlns:dc="http://purl.org/dc/elements/1.1/" xmlns:inkscape="http://www.inkscape.org/namespaces/inkscape" xmlns:rdf="http://www.w3.org/1999/02/22-rdf-syntax-ns#" xmlns:sodipodi="http://sodipodi.sourceforge.net/DTD/sodipodi-0.dtd" xmlns:svg="http://www.w3.org/2000/svg">
<defs id="defs2"/>
<g id="layer1" transform="translate(816.59625,505.61942)">
<g id="Fruits-2" transform="translate(-572.22046,175.11502)">
<rect height="132.29167" id="rect2304" rx="1.4650217" ry="1.4650217" style="display:inline;fill:#f9f9f9;fill-opacity:1;stroke:none;stroke-width:2;stroke-linecap:round;stroke-linejoin:round;stroke-miterlimit:4;stroke-dasharray:none;stroke-opacity:1;paint-order:stroke fill markers" width="132.29167" x="-244.37579" y="-680.73444"/>
<path d="m -174.01172,-664.29102 a 1.5,1.5 0 0 0 -0.26953,0.0254 c -3.7395,-0.0201 -7.14872,1.53245 -10.02148,4.00781 -2.95486,2.54609 -5.41145,6.03579 -7.375,9.92773 -1.02164,2.02499 -1.89646,4.16082 -2.64258,6.33203 -0.61942,1.73253 -1.15462,3.57276 -1.5625,5.54688 -0.0622,0.2759 -0.13023,0.54517 -0.1875,0.82031 -0.7633,-0.11147 -1.51016,-0.18752 -2.25977,-0.26367 -0.44595,-0.0467 -0.84805,-0.11582 -1.30664,-0.15039 -1.7003,-0.12774 -3.32394,-0.12997 -4.91601,-0.0684 -0.17006,0.008 -0.32919,-0.004 -0.5,0.006 -4.14274,0.21335 -7.88109,1.01589 -10.78907,2.57422 a 1.5,1.5 0 0 0 -0.13672,0.082 c -0.17663,0.0807 -0.3592,0.10435 -0.53515,0.18945 -2.67621,1.29432 -5.80455,3.81185 -8.34961,6.47852 -1.27253,1.33333 -2.38558,2.69607 -3.1875,4.00976 -0.666,1.09104 -1.08212,2.16372 -1.10742,3.32422 -0.007,0.0264 -0.028,0.0457 -0.0352,0.0723 -1.17746,4.39529 1.30904,8.97401 5.63672,12.8125 4.32768,3.83848 10.65724,7.12686 18.07617,9.11523 0.38441,0.10301 0.77403,0.1788 1.16016,0.27344 -0.17019,0.28309 -0.35234,0.55745 -0.51758,0.84375 -3.84024,6.65306 -5.99133,13.45554 -6.33789,19.23047 -0.34656,5.77492 1.13219,10.77146 5.07226,13.04687 3.94013,2.27536 9.00706,1.05883 13.83399,-2.1289 4.31248,-2.84799 8.57497,-7.42117 12.18164,-13.09375 3.60672,5.67276 7.87101,10.2457 12.18359,13.09375 4.61804,3.04977 9.42859,4.20486 13.28907,2.31445 a 1.5,1.5 0 0 0 0.54101,-0.18359 1.5,1.5 0 0 0 0.004,-0.002 c 10e-4,-7.2e-4 0.003,-10e-4 0.004,-0.002 a 1.5,1.5 0 0 0 0.0352,-0.0215 c 2.66076,-1.65001 6.35373,-4.52257 9.19922,-8.43555 0.24203,-0.33283 0.43183,-0.71935 0.66015,-1.06836 8e-4,-10e-4 0.001,-0.003 0.002,-0.004 a 1.5,1.5 0 0 0 0.0781,-0.0723 1.5,1.5 0 0 0 0.01,-0.01 1.5,1.5 0 0 0 0.0508,-0.0547 c 5.8e-4,-6.6e-4 0.001,-10e-4 0.002,-0.002 a 1.5,1.5 0 0 0 0.01,-0.0117 1.5,1.5 0 0 0 0.23242,-0.36914 c 1.0708,-1.34649 1.8242,-3.00726 2.25195,-4.92578 a 1.5,1.5 0 0 0 0.0937,-0.29297 1.5,1.5 0 0 0 0.0273,-0.25781 c 0.62624,-2.35282 0.83382,-4.88492 0.30468,-7.57031 a 1.5,1.5 0 0 0 -0.4414,-0.79883 c -0.71085,-4.65021 -2.40861,-9.6403 -5.0332,-14.56641 2.22795,-1.2923 4.27831,-2.67474 5.94726,-4.17578 1.7211,-1.54794 3.03239,-3.23046 4.03516,-4.95508 3.4103,-2.25599 6.03999,-4.75497 7.69336,-7.38281 1.68077,-2.67141 2.37453,-5.55123 1.65429,-8.24023 -1.17739,-4.39537 -5.62224,-7.1194 -11.28906,-8.2793 -5.66682,-1.1599 -12.79193,-0.84193 -20.21094,1.14648 -0.0833,0.0223 -0.16488,0.0496 -0.24804,0.0723 -0.0831,-7.42804 -1.57931,-14.1672 -4.09375,-19.19727 -2.4744,-4.94995 -6.06207,-8.35596 -10.34961,-8.65039 a 1.5,1.5 0 0 0 -0.52149,-0.11133 c -0.0107,-3.1e-4 -0.0206,0.002 -0.0312,0.002 -0.005,-10e-6 -0.009,-0.002 -0.0137,-0.002 z m -0.0449,2.99805 a 1.5,1.5 0 0 0 0.0449,0.002 c 2.92812,10e-6 5.9186,2.4748 8.23242,7.10352 2.31382,4.62872 3.80859,11.20536 3.8086,18.48242 -2e-5,0.44315 -0.006,0.88558 -0.0176,1.32813 l -0.0527,2.0957 2,-0.625 c 0.68267,-0.2133 1.37176,-0.41391 2.06446,-0.59961 7.02741,-1.88345 13.76332,-2.14295 18.83203,-1.10547 5.06871,1.03748 8.23423,3.28567 8.99219,6.11524 0.45982,1.71676 0.0749,3.69003 -1.29493,5.86718 -0.80552,1.28029 -2.05082,2.5929 -3.51367,3.89453 0.0421,-0.88321 0.0509,-1.76722 -0.18359,-2.64257 -1.17739,-4.39537 -5.62029,-7.1194 -11.28711,-8.2793 -5.66682,-1.1599 -12.79388,-0.84192 -20.21289,1.14648 -0.0833,0.0223 -0.16489,0.0496 -0.24805,0.0723 -0.0829,-7.42874 -1.5791,-14.1668 -4.09375,-19.19727 -2.5867,-5.1746 -6.36425,-8.76366 -10.91406,-8.76367 h -0.002 c -0.7994,0 -1.54148,0.2405 -2.29102,0.45117 0.61577,-0.68514 1.19349,-1.47343 1.84766,-2.03711 2.54497,-2.19291 5.29471,-3.39812 8.28906,-3.30859 z m -7.8457,7.89453 c 2.92812,1e-5 5.92055,2.47676 8.23437,7.10547 2.31382,4.62872 3.80664,11.20341 3.80664,18.48047 -2e-5,0.44316 -0.006,0.88752 -0.0176,1.33008 l -0.0527,2.09375 2,-0.625 c 0.68266,-0.21331 1.37175,-0.41195 2.06445,-0.59766 7.02742,-1.88345 13.76528,-2.14295 18.83399,-1.10547 5.0687,1.03748 8.23228,3.28567 8.99023,6.11524 0.74847,2.79442 -0.81624,6.27501 -4.59961,9.67773 -3.78336,3.40272 -9.63013,6.53906 -16.55469,8.45899 l -2.02148,0.55859 1.18359,1.73242 c 0.73812,1.08078 1.44113,2.1978 2.10157,3.3418 3.63763,6.30206 5.6314,12.74437 5.9414,17.91015 0.30881,5.14592 -1.03761,8.77057 -3.55469,10.2461 -0.0104,0.006 -0.0248,0.0209 -0.0352,0.0273 -2.536,1.45782 -6.35743,0.80894 -10.66992,-2.03906 -4.31755,-2.85133 -8.89944,-7.7995 -12.53711,-14.10156 l -1.29883,-2.25 -1.29883,2.25 c -3.63767,6.30206 -8.21761,11.25023 -12.53516,14.10156 -4.31754,2.85133 -8.14569,3.49962 -10.68164,2.03516 -2.53591,-1.4645 -3.88812,-5.10375 -3.57812,-10.26954 0.31,-5.16578 2.30377,-11.60809 5.94141,-17.91015 0.49066,-0.85011 1.00426,-1.6868 1.53906,-2.50391 l 1.21094,-1.84765 -2.16407,-0.44336 c -1.01943,-0.20876 -2.03784,-0.44784 -3.04882,-0.71875 -7.02734,-1.88342 -12.99226,-5.02944 -16.86329,-8.46289 -3.87102,-3.43345 -5.48651,-6.96346 -4.72851,-9.79297 0.758,-2.82947 3.92166,-5.07776 8.99023,-6.11524 5.06857,-1.03747 11.80673,-0.77785 18.83399,1.10547 0.87099,0.2335 1.73375,0.48879 2.58789,0.76563 l 0.01,0.002 2.01367,0.6543 -0.0605,-2.12696 c -9e-5,-0.003 9e-5,-0.007 0,-0.01 a 1.5,1.5 0 0 0 0,-0.002 c -0.004,-0.12943 -0.003,-0.25916 -0.006,-0.38868 -0.0364,-0.4347 0.0132,-0.95595 0,-1.41601 0.0208,-3.36375 0.36366,-6.56196 0.95508,-9.49219 0.40481,-1.82897 0.91028,-3.68118 1.5332,-5.50195 0.28735,-0.79541 0.60065,-1.53824 0.92773,-2.25586 0.1282,-0.32129 0.26564,-0.63398 0.40039,-0.95117 2.31057,-4.59867 5.28878,-7.06445 8.20704,-7.06446 z m -21.92969,18.29883 c 1.32505,-0.0371 2.64166,-0.0405 3.9043,0.0508 0.51916,0.0358 1.06262,0.12469 1.59179,0.17969 0.62312,0.0686 1.22716,0.14707 1.82227,0.23633 -0.3168,2.22276 -0.45448,4.33765 -0.40625,6.35156 -0.25941,-0.0736 -0.51479,-0.15865 -0.77539,-0.22852 -7.41885,-1.98826 -14.54426,-2.30638 -20.21094,-1.14648 -0.80136,0.16403 -1.50921,0.4333 -2.25586,0.66016 1.76189,-1.51802 3.55512,-2.88738 4.95508,-3.56446 3.29696,-1.59453 6.80332,-2.30971 10.20703,-2.52148 0.37724,-0.0215 0.78083,-0.007 1.16797,-0.0176 z m 22.35351,4.67383 a 1.5,1.5 0 0 0 -1.5,1.5 v 9.20898 a 1.5,1.5 0 0 0 1.5,1.5 1.5,1.5 0 0 0 1.5,-1.5 v -9.20898 a 1.5,1.5 0 0 0 -1.5,-1.5 z m -21.61523,15.15039 a 1.5,1.5 0 0 0 -1.42969,1.11133 1.5,1.5 0 0 0 1.06055,1.83789 c 2.96417,0.79444 5.92774,1.58821 8.89258,2.38281 a 1.5,1.5 0 0 0 1.83789,-1.06055 1.5,1.5 0 0 0 -1.06055,-1.83789 c -2.96483,-0.7946 -5.93036,-1.58837 -8.89453,-2.38281 a 1.5,1.5 0 0 0 -0.40625,-0.0508 z m 43.40039,0 a 1.5,1.5 0 0 0 -0.39453,0.0508 c -2.96417,0.79444 -5.92775,1.58821 -8.89258,2.38281 a 1.5,1.5 0 0 0 -1.06055,1.83789 1.5,1.5 0 0 0 1.83594,1.06055 c 2.96484,-0.7946 5.93036,-1.58837 8.89453,-2.38281 a 1.5,1.5 0 0 0 1.06055,-1.83789 1.5,1.5 0 0 0 -1.44336,-1.11133 z m 10.47266,12.19531 c 4.10458,7.75248 5.91096,15.86078 4.83789,21.15625 -1.2e-4,5.8e-4 1.1e-4,10e-4 0,0.002 -0.6033,2.03457 -1.62336,3.92138 -2.875,5.64258 -0.60498,0.83195 -1.34362,1.45593 -2.02735,2.19336 0.25923,-1.57636 0.39402,-3.23419 0.28711,-5.01562 -0.34655,-5.77493 -2.49765,-12.57741 -6.33789,-19.23047 -0.36883,-0.63888 -0.78101,-1.24529 -1.17383,-1.86719 2.59732,-0.82081 5.04918,-1.77779 7.28907,-2.88086 z m -39.44336,6.22852 a 1.5,1.5 0 0 0 -1.22852,0.61914 c -1.80232,2.48512 -3.60433,4.97051 -5.40625,7.45508 a 1.5,1.5 0 0 0 0.33399,2.0957 1.5,1.5 0 0 0 2.09375,-0.33398 c 1.80192,-2.48457 3.60588,-4.96996 5.4082,-7.45508 a 1.5,1.5 0 0 0 -0.33399,-2.09571 1.5,1.5 0 0 0 -0.86718,-0.28515 z m 15.49414,0 a 1.5,1.5 0 0 0 -0.85352,0.28515 1.5,1.5 0 0 0 -0.33398,2.09571 c 1.80232,2.48512 3.60433,4.97051 5.40625,7.45508 a 1.5,1.5 0 0 0 2.0957,0.33398 1.5,1.5 0 0 0 0.33399,-2.0957 c -1.80193,-2.48457 -3.60393,-4.96996 -5.40625,-7.45508 a 1.5,1.5 0 0 0 -1.24219,-0.61914 z" id="path2310" style="color:#000000;font-style:normal;font-variant:normal;font-weight:normal;font-stretch:normal;font-size:medium;line-height:normal;font-family:sans-serif;font-variant-ligatures:normal;font-variant-position:normal;font-variant-caps:normal;font-variant-numeric:normal;font-variant-alternates:normal;font-variant-east-asian:normal;font-feature-settings:normal;font-variation-settings:normal;text-indent:0;text-align:start;text-decoration:none;text-decoration-line:none;text-decoration-style:solid;text-decoration-color:#000000;letter-spacing:normal;word-spacing:normal;text-transform:none;writing-mode:lr-tb;direction:ltr;text-orientation:mixed;dominant-baseline:auto;baseline-shift:baseline;text-anchor:start;white-space:normal;shape-padding:0;shape-margin:0;inline-size:0;clip-rule:nonzero;display:inline;overflow:visible;visibility:visible;opacity:1;isolation:auto;mix-blend-mode:normal;color-interpolation:sRGB;color-interpolation-filters:linearRGB;solid-color:#000000;solid-opacity:1;vector-effect:none;fill:#2863a7;fill-opacity:1;fill-rule:nonzero;stroke:none;stroke-width:3;stroke-linecap:round;stroke-linejoin:miter;stroke-miterlimit:4;stroke-dasharray:none;stroke-dashoffset:0;stroke-opacity:1;color-rendering:auto;image-rendering:auto;shape-rendering:auto;text-rendering:auto;enable-background:accumulate;stop-color:#000000;stop-opacity:1"/>
</g>
</g>
</svg>