<?xml version="1.0" encoding="utf-8"?>
<!-- Uploaded to: SVG Repo, www.svgrepo.com, Generator: SVG Repo Mixer Tools -->
<svg width="800px" height="800px" viewBox="0 0 1024 1024" class="icon"  version="1.1" xmlns="http://www.w3.org/2000/svg"><path d="M686.116 667.779c-41.857 42.838-98.257 47.438-183.292 119.227-11.429 9.657-21.59 19.028-19.21 25.613 6.052 16.713 89.645 6.743 158.672-20.405 30.683-12.070 67.906-27.129 102.452-64.437 11.185-12.070 45.174-51.364 57.426-112.057 10.277-50.883-1.291-89.036-24.108-162.588-7.278-23.478-46.819-156.367-69.795-152.214-3.202 0.576-7.748 4.13-11.739 23.478-15.603 75.622 33.276 120.54 40.010 190.474 4.663 48.567-10.683 112.226-50.415 152.908z" fill="#E4EEFB" /><path d="M350.771 768.479c-64.928-45.036-127.264-131.001-125.321-220.078 1.259-57.927 29.348-102.068 2.509-135.204-17.076-21.13-51.141-29.881-75.536-21.173-43.243 15.463-34.704 139.526-30.565 199.684 7.001 101.735 10.501 152.61 48.909 182.395 44.513 34.513 95.867 13.467 121.255 50.947 21.504 31.739-7.47 71.172 11.205 84.576 22.156 15.911 61.759-40.681 124.307-34.642 41.866 4.057 46.039 31.482 85.621 32.614 43.915 1.27 53.915-32.101 108.011-55.025 83.861-35.538 125.93 16.647 173.505-20.085 37.843-29.23 12.059-62.965 64.918-142.941 28.814-43.584 51.685-59.303 44.823-77.436-8.613-22.785-59.187-34.748-89.015-16.339-25.794 15.922-20.202 44.768-42.796 87.115-21.984 41.215-53.691 63.413-81.001 82.525-79.975 55.985-228.509 80.915-340.832 3.062z" fill="#6BE166" /><path d="M350.771 768.479c-64.928-45.036-127.264-131.001-125.321-220.078 1.43-65.59 24.268-122.931 2.509-135.204-13.799-7.78-39.999 6.563-53.275 24.877-15.657 21.59-11.835 46.615-8.004 76.838 18.644 147.231 5.657 166.183 33.616 198.458 22.411 25.879 56.412 43.34 62.43 46.425 35.571 18.249 64.704 21.344 78.439 48.023 6.649 12.913 3.468 19.273 11.205 25.613 15.207 12.454 38.557-3.009 75.237-9.605 18.142-3.265 45.356 0.918 100.050 5.603 70.958 6.083 64.459 14.514 93.648 12.007 64.31-5.518 110.402-47.682 125.652-61.63 21.056-19.21 35.389-39.306 45.623-53.627 19.071-26.679 28.963-47.213 33.617-57.629 10.437-23.351 27.043-60.489 14.407-72.036-6.157-5.625-17.769-3.81-25.196-0.769-27.289 11.163-23.756 51.418-42.796 87.115-21.984 41.215-53.691 63.413-81.001 82.525-79.987 56.018-228.519 80.947-340.842 3.095z" fill="#5BBF57" /><path d="M329.726 217.794c-39.412 43.553-100.177 19.487-118.193 58.077-3.436 7.363-0.982 30.329 4.067 75.963 6.276 56.657 9.262 60.105 12.368 61.362 18.943 7.705 44.982-65.313 110.818-117.616 7.577-6.019 109.687-84.576 233.599-57.223 92.452 20.415 146.495 88.577 158.948 105.248 72.463 96.816 60.211 216.417 91.406 217.613 4.642 0.181 13.724-10.586 31.898-32.112 44.662-52.923 47.777-81.022 49.605-94.361 0.121-0.907 0.19-1.957 0.19-3.023 0-0.341-0.007-0.681-0.021-1.018-1.141-44.977-56.987-44.347-97.819-115.092-37.918-65.687-12.732-96.049-50.947-131.447-38.547-35.655-102.087-39.828-146.74-27.513-36.349 10.032-33.926 22.816-61.139 28.526-74.79 15.709-135.161-90.531-175.245-71.321-27.523 13.18-5.047 62.206-42.794 103.934z" fill="#6BE166" /><path d="M369.969 229.929c-33.659 46.819-76.934 35.527-113.646 75.237-35.911 38.825-41.62 100.532-28.366 107.979 17.962 10.105 59.763-84.694 169.43-142.183 26.338-13.799 93.786-47.971 175.021-32.656 91.353 17.235 145.043 86.71 158.948 105.248 78.877 105.194 62.965 236.407 89.516 236.917 0.023 0 0.052 0.001 0.080 0.001 0.586 0 1.153-0.074 1.695-0.214 9.354-2.733 8.608-31.697 8.351-41.397-1.291-50.158-22.913-104.010-28.814-118.46-22.828-55.878-23.2-49.967-36.818-84.843-32.197-82.463-27.918-109.921-57.629-129.654-16.062-10.672-32.016-12.252-63.925-15.367-49.444-4.823-60.948 7.129-102.547 7.363-78.973 0.448-110.124-42.219-142.461-20.811-17.759 11.804-8.666 24.833-28.836 52.838z" fill="#5BBF57" /><path d="M311.828 933.875c-3.511-0.049-6.889-0.539-10.105-1.418-5.635-1.629-11.079-4.932-15.411-9.334-14.846-10.014-11.538-32.682-9.137-49.235 2.369-16.243 3.447-27.577-2.828-36.839-7.886-11.643-20.095-14.215-42.773-18.142-21.642-3.703-48.567-8.324-73.882-27.95-45.965-35.602-49.934-93.188-57.127-197.751-2.134-30.949-5.335-77.618-2.486-119.527 1.985-29.22 13.873-92.025 47.17-101.725 25.943-7.556 48.951 22.273 60.137 13.467 16.958-13.34-37.469-80.531-12.412-120.059 8.666-13.671 25.090-28.697 64.587-36.285 20.692-3.991 40.234-7.748 56.338-25.559 15.463-17.076 17.927-36.007 20.277-54.299 2.519-19.306 5.657-43.34 29.081-54.566 29.881-14.343 59.763 8.387 88.577 30.372 28.206 21.515 60.18 45.89 91.555 39.316 8.794-1.847 12.219-4.268 18.43-8.633 8.015-5.657 18.996-13.394 41.418-19.583 50.553-13.981 121.767-9.381 166.899 32.379 25.346 23.478 29.028 46.753 32.582 69.281 3.041 19.207 6.179 39.143 22.358 67.159 18.868 32.677 39.284 48.087 57.298 61.685 19.711 14.866 40.085 30.245 43.264 62.004 4.601 45.89-30.031 82.174-57.853 111.373-7.823 8.196-15.209 15.933-20.481 22.657-5.212 6.35-9.055 14.026-10.96 22.437 10.693-12.203 21.548-11.158 27.885-10.55 10.064 0.961 20.468 1.963 30.041 4.823 14.791 4.418 24.822 12.657 29.806 24.481 4.845 11.493 3.757 24.001-3.202 37.181-4.589 8.655-11.504 17.501-19.53 27.747-7.278 9.295-15.538 19.829-23.948 32.571-25.004 37.853-30.81 64.129-35.474 85.238-4.994 22.582-9.7 43.915-34.215 62.838-30.437 23.478-59.443 19.207-87.51 14.941-26.243-3.918-53.36-7.972-90.713 7.866-20.277 8.613-33.435 18.719-46.114 28.483-18.036 13.873-36.681 28.259-67.853 28.259h-2.989c-26.201-0.758-41.43-10.939-53.669-19.124-6.403-4.268-11.974-8.015-19.092-10.533-5.972-2.017-12.859-3.252-20.010-3.408-22.934-2.324-90.263 37.962-107.937 37.962zM161.799 411.79c-0.044-0.001-0.093-0.002-0.143-0.002-0.735 0-1.441 0.122-2.102 0.346-5.492 1.972-15.716 17.777-18.854 64.425-2.657 39.015 0.438 83.967 2.486 113.721 6.969 101.747 10.991 143.987 40.662 166.986 16.882 13.095 35.366 16.253 54.93 19.605 24.546 4.215 52.452 8.985 70.915 36.285 16.009 23.671 12.38 48.675 9.723 66.935-0.385 2.668-0.886 6.052-1.195 9.028 4.739-2.134 10.928-5.666 15.923-8.537 23.030-12.987 54.566-30.777 95.45-26.829 25.966 2.509 40.948 12.529 52.987 20.575 10.395 6.948 17.257 11.537 31.162 11.942 17.076 0.491 25.612-5.582 43.553-19.359 13.425-10.352 30.147-23.223 55.495-33.981 48.429-20.522 84.619-15.123 113.7-10.777 26.381 3.938 39.743 5.335 55.101-6.553 11.664-9.007 13.873-16.862 18.622-38.258 5.143-23.254 12.176-55.101 41.535-99.548 9.37-14.183 18.569-25.934 25.966-35.366 5.614-7.172 12.977-16.564 15.667-21.792-5.335-1.889-16.691-2.979-23.243-3.609-21.216-2.038-47.618-4.567-58.535-27.234-6.681-13.873-4.428-29.37 6.691-46.060 7.182-10.779 17.577-21.675 28.59-33.211 22.924-24.023 48.909-51.225 46.263-77.639-1.217-12.156-7.47-17.823-26.498-32.176s-45.367-34.225-68.567-74.415c-20.138-34.877-24.247-60.926-27.545-81.844-3.202-20.116-4.93-31.205-19.412-44.599-32.881-30.458-88.642-33.072-126.581-22.614-15.25 4.205-21.237 8.431-28.174 13.319-7.886 5.561-16.841 11.867-34.257 15.529-50.499 10.597-92.483-21.418-126.207-47.149-12.070-9.209-23.478-17.908-32.838-22.668-6.403-3.265-10.148-3.735-11.377-3.148-2.486 1.217-4.067 12.987-5.134 21.579-2.775 21.28-6.574 50.436-30.949 77.415-25.676 28.387-55.751 34.151-79.923 38.836-21.344 4.119-30.543 6.67-35.549 15.463-10.086 17.767 1.643 48.473 11.077 73.147 4.386 11.482 8.537 22.326 10.566 31.92 4.546 21.44-3.276 32.795-10.672 38.537-6.286 4.91-17.076 9.541-33.083 3.724-6.862-2.509-13.436-6.403-20.394-10.512-7.877-4.653-19.316-11.429-25.826-11.429z" fill="#000000" /><path d="M519.175 831.979q-3.457 0-6.403-0.064c-10.939-0.224-50.35-2.134-98.183-17.076-64.512-20.191-116.613-54.833-154.85-102.964-32.929-41.087-55.149-92.078-61.682-147.863-16.118-49.142 12.121-126.963 25.386-156.182 23.98-52.773 62.538-96.251 114.692-129.228 44.185-28.304 96.817-47.493 153.371-53.616-46.084 7.513 118.873-39.369 216.949 52.441 28.494 26.679 47.202 74.534 84.469 169.91 34.737 88.801 33.991 116.624 33.649 128.523-1.068 36.905-12.732 93.326-62.783 152.61-36.935 43.756-86.443 74.213-147.274 90.713-29.322 8.119-62.993 12.788-97.754 12.796zM237.178 597.802c13.778 49.226 39.973 91.203 75.022 123.781 6.778 13.387 53.735 44.453 111.982 62.691 43.756 13.714 79.401 15.419 89.273 15.623 1.539 0.025 3.356 0.038 5.177 0.038 31.828 0 62.652-4.298 91.923-12.347 51.998-14.158 96.116-41.212 128.784-79.866 44.064-52.144 54.353-100.989 55.228-132.771 0.246-9.092 0.918-33.243-31.418-115.995-35.506-90.873-53.36-136.483-76.519-158.191-35.442-33.168-86.252-49.145-150.987-47.513-39.005 1.138-76.066 7.705-111.018 18.969-37.985 11.713-127.897 51.68-172.003 148.837-11.846 26.093-37.053 95.547-15.41 176.739z" fill="#000000" /><path d="M305.82 559.491c-7.414-0.010-13.647-5.053-15.46-11.897-3.226-12.521-3.279-24.41-0.185-35.466 4.985-17.725 16.009-26.221 25.613-33.713 7.47-5.742 14.45-11.163 20.415-21.749 9.114-16.169 8.153-30.693 7.15-46.082-1.068-16.221-2.273-34.599 11.366-50.457 17.374-20.182 49.017-25.314 96.731-15.687 7.377 1.526 12.846 7.972 12.846 15.694 0 8.841-7.167 16.010-16.010 16.010-1.119 0-2.213-0.115-3.267-0.334-33.78-6.823-57.258-4.976-66.063 5.204-4.877 5.666-4.62 13.319-3.692 27.47 1.153 17.567 2.593 39.431-11.205 63.905-9.157 16.233-20.010 24.62-28.729 31.366-8.537 6.585-12.38 9.808-14.407 17.076-1.58 5.614-1.472 11.739 0.331 18.687 0.324 1.204 0.511 2.587 0.511 4.013 0 8.841-7.166 16.009-16.009 16.009-0.004 0-0.007 0-0.010 0zM327.238 599.542c-0.004 0-0.007 0-0.012 0-5.143 0-9.721-2.426-12.65-6.196q-0.935-1.21-1.851-2.438c-1.999-2.642-3.202-5.983-3.202-9.605 0-8.841 7.166-16.009 16.009-16.009 5.219 0 9.855 2.498 12.777 6.363l1.575 2.068c2.077 2.674 3.331 6.079 3.331 9.776 0 8.834-7.156 15.997-15.987 16.009zM617.442 453.399c-0.001 0-0.002 0-0.003 0-8.841 0-16.009-7.166-16.009-16.009 0-1.778 0.29-3.488 0.825-5.086 6.551-20.035-1.815-42.35-19.498-51.774-19.849-10.597-46.329-2.038-57.799 18.687-2.769 5.015-8.023 8.355-14.061 8.355-8.841 0-16.009-7.166-16.009-16.009 0-2.89 0.766-5.602 2.106-7.942 20.054-36.206 65.314-50.303 100.841-31.34 17.715 9.727 30.762 26.102 35.886 45.682 0.864 0.767 2.775 10.357 2.775 20.39 0 8.58-1.396 16.834-3.974 24.547-1.997 5.92-7.995 10.499-15.062 10.499-0.007 0-0.014 0-0.022 0zM440.757 593.129c-7.411-0.007-13.642-5.046-15.46-11.886-8.295-31.988 4.148-65.412 30.241-81.377 15.229-9.326 34.545-12.038 52.997-7.47 22.732 5.778 41.087 21.039 50.926 41.218-1.13-2.667-0.157 0.362-0.157 3.619 0 8.841-7.166 16.009-16.009 16.009-6.087 0-11.383-3.398-14.090-8.403-6.836-11.654-18.293-19.862-31.767-22.155-6.789-1.804-17.196-0.459-25.157 4.417-13.948 8.537-20.682 27.863-16.009 45.89 0.326 1.207 0.514 2.593 0.514 4.023 0 8.841-7.166 16.009-16.009 16.009-0.005 0-0.007 0-0.013 0zM575.682 702.175c-18.639-0.164-35.772-6.48-49.501-17.012-3.414-2.555-5.939-7.212-5.939-12.459 0-8.843 7.168-16.012 16.012-16.012 3.595 0 6.914 1.185 9.588 3.187 15.967 11.847 36.937 13.566 51.002 4.154 8.282-5.549 14.226-15.175 16.306-26.435 0.517-2.73 0.812-5.871 0.812-9.078 0-11.258-3.638-21.667-9.802-30.115-1.735-2.426-2.836-5.632-2.836-9.097 0-8.842 7.167-16.010 16.011-16.010 5.378 0 10.137 2.651 13.041 6.719 9.744 13.575 15.563 30.466 15.563 48.715 0 5.189-0.471 10.268-1.372 15.197-3.562 19.175-14.49 36.379-29.9 46.699-10.815 7.237-24.119 11.55-38.429 11.55-0.195 0-0.39-0.001-0.586-0.003z" fill="#000000" /></svg>
