<?xml version="1.0" encoding="utf-8"?>
<!-- Uploaded to: SVG Repo, www.svgrepo.com, Generator: SVG Repo Mixer Tools -->
<svg width="800px" height="800px" viewBox="0 0 1024 1024" class="icon"  version="1.1" xmlns="http://www.w3.org/2000/svg"><path d="M767.253333 383.637333c50.538667-50.538667 80.213333-40.490667 29.674667-91.093333l-66.624-66.581333c-50.538667-50.538667-61.824-20.842667-112.384 29.674666L144.576 671.872a129.493333 129.493333 0 0 0 0 183.082667l23.552 24.448a129.493333 129.493333 0 0 0 183.082667 0l416.042666-495.765334z" fill="#8BC34A" /><path d="M624.618667 444.736a77828.138667 77828.138667 0 0 0-210.24 211.797333c-104.064 105.301333-142.186667 175.125333-159.637334 203.626667-32.256 3.285333-61.738667 4.373333-84.842666-7.210667-9.258667-27.754667-2.432-59.541333 4.757333-91.882666 41.728-26.048 105.6-68.8 189.184-152.96 69.909333-70.4 143.338667-144.384 201.365333-202.901334-11.712-1.92-23.168-10.261333-26.24-22.698666a48.384 48.384 0 0 1-1.002666-10.090667L191.616 706.581333c-29.141333 29.162667-122.709333 86.037333-34.154667 160.789334 80.448 96.256 136.32-14.336 165.504-43.456l327.125334-353.130667c-8.704-7.530667-16.64-19.648-16.128-31.36-2.112 2.56-5.44 4.266667-9.344 5.312z" fill="#689F38" /><path d="M858.133333 208.853333c70.378667 9.664 35.157333 61.269333 22.378667 64.448 57.536 32.298667 35.2 77.397333 16 67.754667 9.621333 12.928 19.2 19.349333 19.2 58.048 0 9.664-12.842667 25.834667-48 9.664 12.8 12.885333 28.8 48.362667 16 71.018667-6.421333 9.664-22.421333 9.664-28.842667 3.178666 3.242667 19.349333 3.242667 77.376-25.578666 87.104-38.421333 19.328-44.842667-12.906667-57.578667-32.277333-6.421333 54.848-57.578667 25.770667-54.421333-3.242667-54.378667 35.52-70.421333-9.664-51.157334-32.234666-41.621333 38.698667-73.621333 12.928-60.842666-19.349334-15.957333 19.349333-95.978667 16.128-60.8-51.584-9.578667 9.664-80 9.664-44.8-38.677333-35.2 12.842667-89.6-22.656-31.978667-58.069333-38.421333 0-70.464-29.013333-35.242667-51.562667-57.6-19.434667-9.578667-45.184 16-58.090667-12.736-6.442667-47.957333-19.349333 6.4-38.698666-19.114667-19.328 16-29.013333 67.157334-22.549334-15.936-19.392 6.442667-67.754667 96.064-16.128-16-41.962667 16-51.626667 60.8-29.056-6.421333-19.349333 47.957333-12.906667 60.757333 12.906667 22.464-29.056 76.842667-16.128 70.464 25.792 25.6-16.106667 76.757333 16.085333 48.021333 51.605333z" fill="#558B2F" /><path d="M720.746667 206.314667c-2.730667-22.016-21.034667-41.472-44.458667-39.552-12.16 1.002667-25.472 25.898667-10.709333 32.213333-8.981333-20.458667-43.776-21.248-61.674667-18.496-12.117333 1.834667-22.293333 9.429333-19.904 23.253333 2.730667 15.786667 17.386667 17.173333 29.888 20.053334-20.8-14.421333-65.130667-3.626667-80.618667 14.741333-5.397333 6.357333-14.485333 20.586667-8.682666 29.056 5.504 8.021333 23.168 9.578667 31.36 6.805333-21.44 3.584-46.634667 25.92-51.349334 47.786667-1.984 9.258667-0.96 20.693333 9.301334 23.445333 9.493333 2.666667 30.378667 0.384 34.282666-10.88-8.533333 10.794667-12.544 34.410667-9.258666 47.786667 6.208 25.088 46.826667 34.922667 54.485333 5.632-6.656 10.666667-10.24 34.688-4.352 46.186667 8.085333 15.872 52.010667 16.917333 47.424-4.672-9.088 16.298667 5.952 36.821333 18.688 44.992 20.309333 13.141333 66.752 23.573333 67.690667-14.592 0.170667 21.397333 111.125333-142.997333 94.784-137.28 14.592-1.322667 33.749333-17.386667 25.450666-34.282667-9.002667-18.410667-44.8-22.613333-58.453333-9.621333 10.325333-7.509333 38.357333-31.872 20.309333-45.504-15.232-11.562667-44.010667-7.573333-54.144 8.618666 11.050667-10.069333 26.282667-22.058667 25.002667-39.36-0.704-9.706667-12.053333-17.301333-20.8-19.712-6.890667-1.877333-18.090667-1.514667-24.384 2.88-4.565333 3.2-7.168 11.349333-9.92 13.909334" fill="#7CB342" /><path d="M697.173333 275.968c-16.128 8.533333-23.125333 22.4-8.917333 36.373333-16.298667-9.898667-77.077333-0.469333-62.506667 30.698667 4.8 10.218667 25.301333 7.445333 33.109334 3.392-15.594667 6.08-47.808 25.365333-47.104 46.677333 0.96 29.098667 46.997333 37.738667 56.128 11.946667-6.912 22.314667-21.333333 50.304-0.170667 70.272 25.344 23.893333 68.010667 7.018667 78.634667-21.653333-11.114667 24 14.08 42.624 36.245333 30.784 26.581333-14.293333 26.453333-43.136 6.037333-63.445334 16.96 5.674667 40.768 5.376 51.712-12.245333 21.205333-34.176-17.877333-41.941333-44.16-42.026667 14.122667-5.248 44.501333-33.450667 33.706667-52.778666-12.992-23.338667-56.426667-10.154667-73.749333 8 7.872-9.344 20.074667-23.381333 12.074666-32.362667-18.218667-20.586667-31.850667 8.128-31.850666 28.416 0-0.021333-3.498667-51.776-39.189334-42.048z" fill="#33691E" /><path d="M172.202667 723.989333c-4.672-22.528-5.418667-47.722667-0.917334-75.605333l-26.709333 23.509333c-45.717333 45.717333-49.664 116.885333-12.693333 167.552-32.021333-49.045333 9.536-88.618667 40.32-115.456zM303.381333 847.466667c-27.029333 34.197333-66.496 80.896-117.717333 46.293333 50.496 35.328 120.448 30.741333 165.525333-14.336l32.533334-38.784a171.925333 171.925333 0 0 1-80.341334 6.826667z" fill="#DCEDC8" /><path d="M156.224 868.010667c-25.002667-24.96-23.552-64.128 0-90.496 18.026667-20.202667 55.68-41.216 55.68-41.216s-16.106667 59.008 0.448 75.584c17.088 17.088 74.090667 1.408 73.536 0.426666s-11.861333 30.08-39.189333 55.701334c-29.461333 27.605333-65.493333 24.981333-90.474667 0z" fill="#DCEDC8" /></svg>
