<?xml version="1.0" encoding="utf-8"?>
<svg version="1.1" id="Layer_1" xmlns="http://www.w3.org/2000/svg" xmlns:xlink="http://www.w3.org/1999/xlink" 
     viewBox="0 0 512 512" xml:space="preserve">
<path style="fill:#fffbb9;stroke:#6d5f50;stroke-width:3;" d="M172.766,493.357L18.644,339.234c-10.921-10.921-10.921-28.627,0-39.547L299.687,18.644
    c10.921-10.921,28.627-10.921,39.547,0l154.122,154.122c10.921,10.921,10.921,28.627,0,39.547L212.313,493.357
    C201.392,504.277,183.686,504.277,172.766,493.357z"/>
<g>
    <rect x="290.042" y="68.453" transform="matrix(0.7071 -0.7071 0.7071 0.7071 23.1245 257.5463)" style="fill:#f5f5dc;stroke:#6d5f50;stroke-width:1.5;" width="64.813" height="64.813"/>
    <rect x="378.86" y="157.263" transform="matrix(0.7071 -0.7071 0.7071 0.7071 -13.6596 346.3621)" style="fill:#f5f5dc;stroke:#6d5f50;stroke-width:1.5;" width="64.813" height="64.813"/>
    <rect x="304.172" y="231.845" transform="matrix(0.7071 -0.7071 0.7071 0.7071 -88.2722 315.3946)" style="fill:#f5f5dc;stroke:#6d5f50;stroke-width:1.5;" width="64.813" height="64.813"/>
    <rect x="215.336" y="143.029" transform="matrix(0.7071 -0.7071 0.7071 0.7071 -51.4896 226.5646)" style="fill:#f5f5dc;stroke:#6d5f50;stroke-width:1.5;" width="64.813" height="64.813"/>
    <rect x="141.211" y="217.269" transform="matrix(0.7071 -0.7071 0.7071 0.7071 -125.6961 195.8943)" style="fill:#f5f5dc;stroke:#6d5f50;stroke-width:1.5;" width="64.813" height="64.813"/>
    <rect x="230.029" y="306.103" transform="matrix(0.7071 -0.7071 0.7071 0.7071 -162.4965 284.7169)" style="fill:#f5f5dc;stroke:#6d5f50;stroke-width:1.5;" width="64.813" height="64.813"/>
    <rect x="155.324" y="380.679" transform="matrix(0.7071 -0.7071 0.7071 0.7071 -237.1107 253.7353)" style="fill:#f5f5dc;stroke:#6d5f50;stroke-width:1.5;" width="64.813" height="64.813"/>
    <rect x="66.506" y="291.871" transform="matrix(0.7071 -0.7071 0.7071 0.7071 -200.328 164.9201)" style="fill:#f5f5dc;stroke:#6d5f50;stroke-width:1.5;" width="64.813" height="64.813"/>
</g>
<path style="fill:#e6e6ca;stroke:#6d5f50;stroke-width:2;" d="M75.43,358.321c-2.676,0-5.35-1.02-7.392-3.062l-22.916-22.915c-1.96-1.96-3.062-4.62-3.062-7.392
    c0-2.772,1.102-5.432,3.062-7.392l45.831-45.829c4.083-4.082,10.701-4.082,14.785,0l45.831,45.829
    c4.082,4.082,4.082,10.702,0,14.784l-17.59,17.591c-4.083,4.082-10.701,4.083-14.785,0c-4.082-4.082-4.082-10.702,0-14.784
    l10.199-10.199l-31.047-31.046L67.3,324.952l15.524,15.523c4.082,4.082,4.082,10.702,0,14.784
    C80.78,357.299,78.106,358.321,75.43,358.321z"/>
</svg>