<?xml version="1.0" encoding="iso-8859-1"?>
<!-- Uploaded to: SVG Repo, www.svgrepo.com, Generator: SVG Repo Mixer Tools -->
<svg version="1.1" id="Layer_1" xmlns="http://www.w3.org/2000/svg" xmlns:xlink="http://www.w3.org/1999/xlink"
     viewBox="0 0 512 512" xml:space="preserve">
<path style="fill:#241811;stroke:#4d3319;stroke-width:3;" d="M172.766,493.357L18.644,339.234c-10.921-10.921-10.921-28.627,0-39.547L299.687,18.644
    c10.921-10.921,28.627-10.921,39.547,0l154.122,154.122c10.921,10.921,10.921,28.627,0,39.547L212.313,493.357
    C201.392,504.277,183.686,504.277,172.766,493.357z"/>
<g>
    <rect x="290.042" y="68.453" transform="matrix(0.7071 -0.7071 0.7071 0.7071 23.1245 257.5463)" style="fill:#3c1f0f;stroke:#4d3319;stroke-width:1.5;" width="64.813" height="64.813"/>
    <rect x="378.86" y="157.263" transform="matrix(0.7071 -0.7071 0.7071 0.7071 -13.6596 346.3621)" style="fill:#3c1f0f;stroke:#4d3319;stroke-width:1.5;" width="64.813" height="64.813"/>
    <rect x="304.172" y="231.845" transform="matrix(0.7071 -0.7071 0.7071 0.7071 -88.2722 315.3946)" style="fill:#3c1f0f;stroke:#4d3319;stroke-width:1.5;" width="64.813" height="64.813"/>
    <rect x="215.336" y="143.029" transform="matrix(0.7071 -0.7071 0.7071 0.7071 -51.4896 226.5646)" style="fill:#3c1f0f;stroke:#4d3319;stroke-width:1.5;" width="64.813" height="64.813"/>
    <rect x="141.211" y="217.269" transform="matrix(0.7071 -0.7071 0.7071 0.7071 -125.6961 195.8943)" style="fill:#3c1f0f;stroke:#4d3319;stroke-width:1.5;" width="64.813" height="64.813"/>
    <rect x="230.029" y="306.103" transform="matrix(0.7071 -0.7071 0.7071 0.7071 -162.4965 284.7169)" style="fill:#3c1f0f;stroke:#4d3319;stroke-width:1.5;" width="64.813" height="64.813"/>
    <rect x="155.324" y="380.679" transform="matrix(0.7071 -0.7071 0.7071 0.7071 -237.1107 253.7353)" style="fill:#3c1f0f;stroke:#4d3319;stroke-width:1.5;" width="64.813" height="64.813"/>
    <rect x="66.506" y="291.871" transform="matrix(0.7071 -0.7071 0.7071 0.7071 -200.328 164.9201)" style="fill:#3c1f0f;stroke:#4d3319;stroke-width:1.5;" width="64.813" height="64.813"/>
</g>
<path style="fill:#2c1305;stroke:#4d3319;stroke-width:2;" d="M75.43,358.321c-2.676,0-5.35-1.02-7.392-3.062l-22.916-22.915c-1.96-1.96-3.062-4.62-3.062-7.392
    c0-2.772,1.102-5.432,3.062-7.392l45.831-45.829c4.083-4.082,10.701-4.082,14.785,0l45.831,45.829
    c4.082,4.082,4.082,10.702,0,14.784l-17.59,17.591c-4.083,4.082-10.701,4.083-14.785,0c-4.082-4.082-4.082-10.702,0-14.784
    l10.199-10.199l-31.047-31.046L67.3,324.952l15.524,15.523c4.082,4.082,4.082,10.702,0,14.784
    C80.78,357.299,78.106,358.321,75.43,358.321z"/>
<path d="M98.345,381.236c-2.672,0-5.343-1.017-7.384-3.054c-4.086-4.078-4.094-10.696-0.017-14.784l0.232-0.232
	c4.078-4.086,10.697-4.095,14.785-0.016c4.086,4.078,4.094,10.696,0.017,14.784l-0.232,0.232
	C103.703,380.212,101.024,381.236,98.345,381.236z"/>
<path d="M164.134,447.023c-2.676,0-5.35-1.02-7.392-3.062l-22.915-22.915c-4.082-4.082-4.082-10.702,0-14.784l45.829-45.831
	c1.961-1.96,4.62-3.062,7.392-3.062s5.431,1.102,7.392,3.062l45.831,45.831c4.082,4.082,4.082,10.702,0,14.785l-17.59,17.59
	c-4.083,4.082-10.701,4.082-14.785,0c-4.082-4.082-4.082-10.702,0-14.785l10.198-10.198l-31.046-31.046l-31.046,31.047
	l15.524,15.523c4.082,4.082,4.082,10.702,0,14.785C169.484,446.003,166.809,447.023,164.134,447.023z"/>
<path d="M187.048,469.939c-2.682,0-5.366-1.027-7.409-3.078c-4.073-4.092-4.059-10.711,0.032-14.784l0.233-0.232
	c4.092-4.073,10.711-4.058,14.785,0.032c4.073,4.092,4.059,10.711-0.032,14.784l-0.233,0.232
	C192.384,468.924,189.715,469.939,187.048,469.939z"/>
<path d="M150.129,283.621c-2.676,0-5.35-1.02-7.392-3.062l-22.915-22.915c-4.082-4.082-4.082-10.702,0-14.785l45.831-45.831
	c4.083-4.082,10.701-4.082,14.785,0l45.831,45.831c1.96,1.96,3.062,4.62,3.062,7.392c0,2.772-1.102,5.432-3.062,7.392l-17.591,17.59
	c-4.084,4.083-10.702,4.082-14.785,0c-4.082-4.082-4.082-10.702,0-14.784l10.199-10.198l-31.046-31.047L142,250.251l15.523,15.523
	c4.082,4.082,4.082,10.702,0,14.785C155.479,282.601,152.805,283.621,150.129,283.621z"/>
<path d="M173.044,306.536c-2.676,0-5.35-1.02-7.392-3.062c-4.082-4.082-4.082-10.702,0-14.785l0.232-0.232
	c4.083-4.082,10.701-4.082,14.785,0c4.082,4.082,4.082,10.702,0,14.785l-0.232,0.232
	C178.395,305.515,175.721,306.536,173.044,306.536z"/>
<path d="M238.833,372.325c-2.676,0-5.35-1.02-7.392-3.062l-22.916-22.915c-1.96-1.96-3.062-4.62-3.062-7.392
	c0-2.772,1.102-5.432,3.062-7.392l45.831-45.829c4.083-4.082,10.701-4.082,14.785,0l45.831,45.829
	c4.082,4.082,4.082,10.702,0,14.784l-17.59,17.591c-4.083,4.082-10.701,4.083-14.785,0c-4.082-4.082-4.082-10.702,0-14.784
	l10.199-10.199l-31.047-31.046l-31.046,31.046l15.524,15.523c4.082,4.082,4.082,10.702,0,14.784
	C244.184,371.303,241.508,372.325,238.833,372.325z"/>
<path d="M261.748,395.239c-2.672,0-5.343-1.017-7.384-3.054c-4.086-4.078-4.094-10.696-0.017-14.784l0.232-0.232
	c4.078-4.086,10.697-4.095,14.785-0.016c4.086,4.078,4.094,10.696,0.017,14.784l-0.232,0.232
	C267.107,394.216,264.426,395.239,261.748,395.239z"/>
<path d="M224.828,208.921c-2.676,0-5.35-1.02-7.392-3.062l-22.915-22.915c-4.082-4.082-4.082-10.702,0-14.784l45.831-45.829
	c1.961-1.96,4.62-3.062,7.392-3.062l0,0c2.772,0,5.431,1.102,7.392,3.062l45.829,45.829c4.082,4.082,4.082,10.701,0,14.784
	l-17.59,17.591c-4.083,4.082-10.701,4.083-14.785,0c-4.082-4.082-4.082-10.702,0-14.784l10.199-10.199l-31.046-31.046
	l-31.046,31.046l15.523,15.524c4.082,4.082,4.082,10.702,0,14.784C230.18,207.9,227.503,208.921,224.828,208.921z"/>
<path d="M247.744,231.836c-2.672,0-5.343-1.017-7.384-3.054c-4.086-4.078-4.094-10.696-0.017-14.784l0.232-0.232
	c4.078-4.086,10.697-4.095,14.785-0.016c4.086,4.078,4.094,10.696,0.017,14.784l-0.232,0.232
	C253.103,230.813,250.423,231.836,247.744,231.836z"/>
<path d="M313.532,297.625c-2.676,0-5.35-1.02-7.392-3.062l-22.915-22.915c-4.082-4.082-4.082-10.702,0-14.784l45.831-45.831
	c4.083-4.082,10.701-4.082,14.785,0l45.831,45.831c1.96,1.96,3.062,4.62,3.062,7.392s-1.102,5.432-3.062,7.392l-17.591,17.591
	c-4.083,4.083-10.701,4.082-14.785,0c-4.082-4.082-4.082-10.702,0-14.784l10.199-10.198l-31.046-31.047l-31.047,31.047
	l15.524,15.524c4.082,4.082,4.082,10.702,0,14.784C318.882,296.605,316.206,297.625,313.532,297.625z"/>
<path d="M336.448,320.54c-2.676,0-5.35-1.02-7.392-3.062c-4.082-4.082-4.082-10.702,0-14.785l0.232-0.232
	c4.083-4.082,10.701-4.082,14.785,0c4.082,4.082,4.082,10.702,0,14.785l-0.232,0.232C341.798,319.519,339.123,320.54,336.448,320.54
	z"/>
<path d="M299.528,134.223c-2.676,0-5.35-1.02-7.392-3.062l-22.915-22.915c-4.082-4.082-4.082-10.701,0-14.784l45.829-45.831
	c1.961-1.96,4.62-3.062,7.392-3.062c2.772,0,5.431,1.102,7.392,3.062l45.831,45.831c4.082,4.082,4.082,10.702,0,14.784
	l-17.59,17.591c-4.083,4.082-10.701,4.083-14.785,0c-4.082-4.082-4.082-10.702,0-14.784l10.199-10.199l-31.047-31.047
	l-31.046,31.047l15.524,15.524c4.082,4.082,4.082,10.702,0,14.784C304.879,133.201,302.203,134.223,299.528,134.223z"/>
<path d="M322.443,157.136c-2.682,0-5.366-1.027-7.409-3.078c-4.073-4.092-4.059-10.711,0.032-14.784l0.233-0.232
	c4.092-4.073,10.711-4.059,14.785,0.032c4.073,4.092,4.059,10.711-0.032,14.784l-0.233,0.232
	C327.779,156.122,325.111,157.136,322.443,157.136z"/>
<path d="M388.232,222.925c-2.676,0-5.35-1.02-7.392-3.062l-22.915-22.915c-4.082-4.082-4.082-10.702,0-14.784l45.831-45.829
	c1.961-1.96,4.62-3.062,7.392-3.062l0,0c2.772,0,5.431,1.102,7.392,3.062l45.829,45.829c4.082,4.082,4.082,10.701,0,14.784
	l-17.59,17.591c-4.083,4.082-10.701,4.083-14.785,0c-4.082-4.082-4.082-10.702,0-14.784l10.199-10.199l-31.046-31.047
	l-31.047,31.046l15.524,15.524c4.082,4.082,4.082,10.702,0,14.784C393.582,221.904,390.907,222.925,388.232,222.925z"/>
<path d="M411.147,245.84c-2.672,0-5.343-1.017-7.384-3.054c-4.086-4.078-4.094-10.696-0.017-14.784l0.232-0.232
	c4.077-4.086,10.696-4.095,14.785-0.016c4.086,4.078,4.094,10.696,0.017,14.784l-0.232,0.232
	C416.506,244.817,413.826,245.84,411.147,245.84z"/>
<path d="M192.54,512c-10.261,0-19.909-3.996-27.165-11.253l0,0l0,0L11.252,346.626c-14.978-14.98-14.978-39.352,0-54.331
	L292.294,11.252C299.551,3.996,309.198,0,319.46,0s19.909,3.996,27.165,11.252l154.122,154.121c14.978,14.979,14.978,39.352,0,54.33
	L219.705,500.749C212.449,508.005,202.801,512,192.54,512z M319.46,20.908c-4.677,0-9.075,1.821-12.381,5.129L26.036,307.079
	c-6.827,6.826-6.827,17.936,0,24.763l154.122,154.121l0,0c3.307,3.308,7.704,5.129,12.381,5.129s9.075-1.821,12.381-5.129
	l281.043-281.043c6.827-6.827,6.827-17.936,0-24.763L331.842,26.036C328.534,22.729,324.136,20.908,319.46,20.908z"/>
</svg>
