<?xml version="1.0" encoding="utf-8"?>
<!-- Uploaded to: SVG Repo, www.svgrepo.com, Generator: SVG Repo Mixer Tools -->
<svg width="800px" height="800px" viewBox="0 0 1024 1024" class="icon"  version="1.1" xmlns="http://www.w3.org/2000/svg"><path d="M405.333333 938.666667c-106.666667 0-128-146.133333-128-405.333334s85.952-469.333333 192-469.333333 192 210.133333 192 469.333333-21.333333 405.333333-128 405.333334" fill="#EA8711" /><path d="M533.333333 789.333333a42.666667 42.666667 0 0 1-42.666666 42.666667h-42.666667a42.666667 42.666667 0 0 1 0-85.333333h42.666667a42.666667 42.666667 0 0 1 42.666666 42.666666zM533.333333 682.666667a42.666667 42.666667 0 0 0-42.666666-42.666667h-42.666667a42.666667 42.666667 0 0 0 0 85.333333h42.666667a42.666667 42.666667 0 0 0 42.666666-42.666666zM533.333333 576a42.666667 42.666667 0 0 0-42.666666-42.666667h-42.666667a42.666667 42.666667 0 0 0 0 85.333334h42.666667a42.666667 42.666667 0 0 0 42.666666-42.666667zM533.333333 469.333333a42.666667 42.666667 0 0 0-42.666666-42.666666h-42.666667a42.666667 42.666667 0 0 0 0 85.333333h42.666667a42.666667 42.666667 0 0 0 42.666666-42.666667zM533.333333 362.666667a42.666667 42.666667 0 0 0-42.666666-42.666667h-42.666667a42.666667 42.666667 0 0 0 0 85.333333h42.666667a42.666667 42.666667 0 0 0 42.666666-42.666666zM533.333333 256a42.666667 42.666667 0 0 0-42.666666-42.666667h-42.666667a42.666667 42.666667 0 0 0 0 85.333334h42.666667a42.666667 42.666667 0 0 0 42.666666-42.666667zM682.666667 682.666667a42.666667 42.666667 0 0 0-42.666667-42.666667h-42.666667a42.666667 42.666667 0 0 0 0 85.333333h42.666667a42.666667 42.666667 0 0 0 42.666667-42.666666zM682.666667 576a42.666667 42.666667 0 0 0-42.666667-42.666667h-42.666667a42.666667 42.666667 0 0 0 0 85.333334h42.666667a42.666667 42.666667 0 0 0 42.666667-42.666667zM682.666667 469.333333a42.666667 42.666667 0 0 0-42.666667-42.666666h-42.666667a42.666667 42.666667 0 0 0 0 85.333333h42.666667a42.666667 42.666667 0 0 0 42.666667-42.666667zM682.666667 362.666667a42.666667 42.666667 0 0 0-42.666667-42.666667h-42.666667a42.666667 42.666667 0 0 0 0 85.333333h42.666667a42.666667 42.666667 0 0 0 42.666667-42.666666zM661.333333 256a42.666667 42.666667 0 0 0-42.666666-42.666667h-21.333334a42.666667 42.666667 0 0 0 0 85.333334h21.333334a42.666667 42.666667 0 0 0 42.666666-42.666667zM320 149.333333a42.666667 42.666667 0 0 0 85.333333 0 42.666667 42.666667 0 0 0-85.333333 0zM426.666667 149.333333a42.666667 42.666667 0 0 0 85.333333 0 42.666667 42.666667 0 0 0-85.333333 0zM533.333333 149.333333a42.666667 42.666667 0 0 0 85.333334 0 42.666667 42.666667 0 0 0-85.333334 0zM277.333333 256a42.666667 42.666667 0 0 0 42.666667 42.666667h21.333333a42.666667 42.666667 0 0 0 0-85.333334h-21.333333a42.666667 42.666667 0 0 0-42.666667 42.666667zM256 362.666667a42.666667 42.666667 0 0 0 42.666667 42.666666h42.666666a42.666667 42.666667 0 0 0 0-85.333333h-42.666666a42.666667 42.666667 0 0 0-42.666667 42.666667zM256 469.333333a42.666667 42.666667 0 0 0 42.666667 42.666667h42.666666a42.666667 42.666667 0 0 0 0-85.333333h-42.666666a42.666667 42.666667 0 0 0-42.666667 42.666666zM256 576a42.666667 42.666667 0 0 0 42.666667 42.666667h42.666666a42.666667 42.666667 0 0 0 0-85.333334h-42.666666a42.666667 42.666667 0 0 0-42.666667 42.666667z" fill="#FFC107" /><path d="M874.666667 719.04C617.770667 463.061333 490.666667 832 490.666667 832S400.192 589.546667 149.333333 448c166.229333 159.616 3.029333 512 332.437334 512C784 960 587.562667 601.6 874.666667 719.04z" fill="#4CAF50" /><path d="M874.666667 719.04C617.770667 463.061333 490.666667 960 490.666667 960S277.333333 512 149.333333 448c166.229333 159.616 149.333333 512 332.437334 512C682.666667 960 597.333333 554.666667 874.666667 719.04z" fill="#388E3C" /></svg>