<?xml version="1.0" ?>
<!-- Uploaded to: SVG Repo, www.svgrepo.com, Generator: SVG Repo Mixer Tools -->
<svg width="800px" height="800px" viewBox="0 0 128 128" version="1.1" xml:space="preserve" xmlns="http://www.w3.org/2000/svg" xmlns:xlink="http://www.w3.org/1999/xlink">
<style type="text/css">
	.st0{fill:#69A401;}
	.st1{fill:#EFE691;}
	.st2{fill:#B20000;}
	.st3{fill:#DF1801;}
	.st4{fill:#F40603;}
	.st5{fill:#FFEEEE;}
	.st6{fill:#847B3C;}
	.st7{fill:#CEB600;}
	.st8{fill:#F8CD02;}
	.st9{fill:#F7C800;}
	.st10{fill:#F6E8B9;}
	.st11{fill:#F6E9CA;}
	.st12{fill:#CF8A11;}
	.st13{fill:#286F0D;}
	.st14{fill:#63271D;}
	.st15{fill:#EB8102;}
	.st16{fill:#E37303;}
	.st17{fill:#D97102;}
	.st18{fill:#BF6302;}
	.st19{fill:#EA9735;}
	.st20{fill:#3E1A01;}
	.st21{fill:#C96A0A;}
	.st22{fill:#CE2335;}
	.st23{fill:#C0242D;}
	.st24{fill:#BA1A23;}
	.st25{fill:#F9DCC7;}
	.st26{fill:#DBE2CE;}
	.st27{fill:#7D4B12;}
	.st28{fill:#75480C;}
	.st29{fill:#66410C;}
	.st30{fill:#88550D;}
	.st31{fill:#FFFEE9;}
	.st32{fill:#9B9F1A;}
	.st33{fill:#F6E177;}
	.st34{fill:#443A00;}
	.st35{fill:#305209;}
	.st36{fill:#7F7C04;}
	.st37{fill:#BAB424;}
	.st38{fill:#F7CF43;}
	.st39{fill:#DE940E;}
	.st40{fill:#5F570A;}
	.st41{fill:#175424;}
	.st42{fill:#215B25;}
	.st43{fill:#1B5020;}
	.st44{fill:#C0F9C0;}
	.st45{fill:#F3DA78;}
	.st46{fill:#BC441C;}
	.st47{fill:#148E2E;}
	.st48{fill:#283767;}
	.st49{fill:#425285;}
	.st50{fill:#CFDFFF;}
	.st51{fill:#1F2C55;}
	.st52{fill:#776220;}
	.st53{fill:#90236B;}
	.st54{fill:#5D1A47;}
	.st55{fill:#99499A;}
	.st56{fill:#FCCAFA;}
	.st57{fill:#917C31;}
	.st58{fill:#F4C435;}
	.st59{fill:#F1BC02;}
	.st60{fill:#F0B102;}
	.st61{fill:#F1F7BA;}
	.st62{fill:#E3DCB9;}
	.st63{fill:#BD6800;}
	.st64{fill:#E19704;}
	.st65{fill:#B2CA2B;}
	.st66{fill:#AFC20F;}
	.st67{fill:#B9CB00;}
	.st68{fill:#E5F392;}
	.st69{fill:#F78202;}
	.st70{fill:#F79613;}
	.st71{fill:#331F07;}
	.st72{fill:#402B16;}
	.st73{fill:#669404;}
	.st74{fill:#F58E13;}
	.st75{fill:#D87117;}
	.st76{fill:#216604;}
	.st77{fill:#286D08;}
	.st78{fill:#C8C625;}
	.st79{fill:#2C441F;}
	.st80{fill:#F1E6BF;}
	.st81{fill:#F2BE2E;}
	.st82{fill:#BF8F33;}
	.st83{fill:#568804;}
	.st84{fill:#669614;}
	.st85{fill:#688E0C;}
	.st86{fill:#4C7005;}
	.st87{fill:#A0CA49;}
	.st88{fill:#99BD70;}
	.st89{fill:#78AA25;}
	.st90{fill:#4B7C23;}
	.st91{fill:#EADBC8;}
	.st92{fill:#F0D5B0;}
	.st93{fill:#DF2B2B;}
	.st94{fill:#D1262C;}
	.st95{fill:#B7252C;}
	.st96{fill:#46670C;}
	.st97{fill:#F49D5B;}
	.st98{fill:#F57A55;}
	.st99{fill:#F1C3A7;}
	.st100{fill:#CC0917;}
	.st101{fill:#DC1035;}
	.st102{fill:#9BAC0F;}
	.st103{fill:#667A1D;}
	.st104{fill:#7A9D18;}
	.st105{fill:#F6F7E6;}
	.st106{fill:#F0194D;}
	.st107{fill:#362420;}
	.st108{fill:#530618;}
	.st109{fill:#44041A;}
	.st110{fill:#490419;}
	.st111{fill:#F8A459;}
	.st112{fill:#871B22;}
	.st113{fill:#600613;}
	.st114{fill:#F8C790;}
	.st115{fill:#447832;}
	.st116{fill:#7C473D;}
	.st117{fill:#441432;}
	.st118{fill:#51163F;}
	.st119{fill:#5B1A41;}
	.st120{fill:#FCEBF9;}
	.st121{fill:#ECE5CE;}
	.st122{fill:#BC3E2C;}
	.st123{fill:#A60F26;}
	.st124{fill:#C61632;}
	.st125{fill:#BD1331;}
	.st126{fill:#F8B772;}
	.st127{fill:#F7DDAC;}
	.st128{fill:#850E11;}
	.st129{fill:#191200;}
	.st130{fill:#553D2D;}
	.st131{fill:#F9E2D2;}
	.st132{fill:#CA8937;}
	.st133{fill:#462D16;}
	.st134{fill:#6D8916;}
	.st135{fill:#96B54E;}
	.st136{fill:#E3E2DE;}
	.st137{fill:#261811;}
	.st138{fill:#525C11;}
	.st139{fill:#14581E;}
	.st140{fill:#3D7712;}
	.st141{fill:#9BC148;}
	.st142{fill:#E22434;}
	.st143{fill:#C6DD9E;}
	.st144{fill:#F89A07;}
	.st145{fill:#F7A410;}
	.st146{fill:#F8AB19;}
	.st147{fill:#F7B81C;}
	.st148{fill:#E5870A;}
	.st149{fill:#97A304;}
	.st150{fill:#A88C5C;}
	.st151{fill:#ADC21E;}
	.st152{fill:#A3BA0B;}
	.st153{fill:#8D9E08;}
	.st154{fill:#E0DAB9;}
	.st155{fill:#684219;}
	.st156{fill:#777F05;}
	.st157{fill:#F2E9C4;}
	.st158{fill:#CBB465;}
	.st159{fill:#FFF5CA;}
	.st160{fill:#E52828;}
	.st161{fill:#F87302;}
	.st162{fill:#FF7B22;}
	.st163{fill:#FC7F10;}
	.st164{fill:#F8A200;}
	.st165{fill:#F8DC91;}
	.st166{fill:#FFFFFF;}
	.st167{fill:#F5D7D5;}
	.st168{fill:#EDA07A;}
	.st169{fill:#FCBEBE;}
	.st170{fill:#EAD991;}
	.st171{fill:#582612;}
</style>
<g id="_x33_0_Mulberry"/>
<g id="_x32_9_Star_Fruit"/>
<g id="_x32_8_Apricot"/>
<g id="_x32_7_Litchi"/>
<g id="_x32_6_Kiwi"/>
<g id="_x32_5_Jackfruit"/>
<g id="_x32_4_Avacado"/>
<g id="_x32_3_Blueberry"/>
<g id="_x32_2_Purple_Grapes"/>
<g id="_x32_1_Melon"/>
<g id="_x32_0_Green_Grapes"/>
<g id="_x31_9_Papaya"/>
<g id="_x31_8_Pineapple"/>
<g id="_x31_7_Banana"/>
<g id="_x31_6_Tender_Coconut"/>
<g id="_x31_5_Strawberry"/>
<g id="_x31_4_Dragon_Fruit">
<g id="XMLID_846_">
<g id="XMLID_863_">
<path class="st101" d="M66.143,79.483c3.456-3.582,9.644-11.15,7.839-20.547c0,0-3.337,7.024-8.358,5.488     c1.194-5.37,4.844-12.368-0.61-22.349c0,0-2.701,6.417-6.775,6.965c0.607-4.826,0.174-10.708-5.049-16.742     c0,0,0.258,4.965-4.987,6.216c-1.919-3.808-3.495-7.789-4.648-11.936l-1.206-2.725l-7.787-0.227l-0.596,0.95     c-1.225,5.276-3.064,10.381-5.486,15.18c-4.799-2.494-5.529-8.732-5.529-8.732c-2.651,6.332-6.118,13.19-5.511,18.016     c-2.821-2.672-4.418-7.856-4.418-7.856c-3.126,7.467-4.162,17.871-2.968,23.24C4.866,65.96,2.04,58.473,2.04,58.473     c-0.511,9.09,4.039,17.428,7.495,21.009c-2.898-0.211-4.765-0.721-4.765-0.721c6.255,27.139,32.698,25.274,33.068,25.235     c0.005,0,0.018,0.002,0.032,0.003c0.236,0.103,0.489,0.157,0.747,0.157c0.182,0,0.358-0.035,0.53-0.087     c5.46,0.161,26.3-0.812,31.759-24.502C70.907,79.569,69.04,79.271,66.143,79.483z" id="XMLID_870_"/>
<g id="XMLID_52_">
<path class="st102" d="M58.237,52.04c4.074-0.548,6.775-6.965,6.775-6.965      c1.861,3.405,2.647,6.455,2.848,9.219c0.257-3.511-0.287-7.533-2.848-12.219c0,0-2.612,6.185-6.57,6.918      C58.436,50.047,58.36,51.066,58.237,52.04z" id="XMLID_1222_"/>
<path class="st102" d="M9.341,79.468c-1.498-0.03-4.571-0.706-4.571-0.706      c0.258,1.122,0.563,2.176,0.887,3.201c0.819,0.167,2.688,0.395,4.405,0.52C9.247,81.637,9.721,81.092,9.341,79.468z" id="XMLID_1224_"/>
<path class="st102" d="M66.376,64.581c-0.283,0.996-0.553,1.945-0.753,2.844      c5.022,1.535,8.358-5.488,8.358-5.488c0.121,0.632,0.201,1.254,0.253,1.869c0.129-1.557,0.071-3.182-0.253-4.869      C73.982,58.936,70.974,65.246,66.376,64.581z" id="XMLID_1226_"/>
<path class="st102" d="M10.054,67.424c-0.19-0.854-0.317-1.846-0.395-2.922      c-4.932,1.047-7.62-6.029-7.62-6.029c-0.058,1.029-0.043,2.047,0.02,3.051C2.266,62.049,5.063,68.901,10.054,67.424z" id="XMLID_1227_"/>
<path class="st102" d="M65,82.483c2,0,4.302-0.068,5.111-0.001c0.289-0.935,0.561-1.896,0.796-2.913      c0,0-3.048-0.35-4.765-0.086C65.194,80.693,65.791,81.663,65,82.483z" id="XMLID_1228_"/>
<path class="st102" d="M13.022,44.184c0,0,1.597,5.184,4.418,7.856c-0.607-4.826,2.86-11.684,5.511-18.016      c0,0,0.73,6.238,5.529,8.732c2.422-4.799,4.26-9.904,5.486-15.18l0.596-0.95l7.787,0.227l1.206,2.725      c1.153,4.147,2.729,8.128,4.648,11.936c5.245-1.251,4.987-6.216,4.987-6.216c3.636,4.201,4.948,8.327,5.206,12.076      c0.29-4.485-0.57-9.719-5.206-15.076c0,0,0.258,4.965-4.987,6.216c-1.919-3.808-3.495-7.789-4.648-11.936l-1.206-2.725      l-7.787-0.227l-0.596,0.95c-1.225,5.276-3.064,10.381-5.486,15.18c-4.799-2.494-5.529-8.732-5.529-8.732      c-2.651,6.332-6.118,13.19-5.511,18.016c-2.821-2.672-4.418-7.856-4.418-7.856c-2.493,5.954-3.651,13.768-3.415,19.415      C9.798,55.386,10.946,49.141,13.022,44.184z" id="XMLID_1229_"/>
</g>
<path class="st102" d="M41.866,50.456c-5.188,1.535-8.014-5.951-8.014-5.951     c-0.511,9.09,4.039,17.428,7.495,21.009" id="XMLID_869_"/>
<path class="st102" d="M25.802,66.605c-5.188,1.535-8.014-5.951-8.014-5.951     c-0.511,9.09,4.039,17.428,7.495,21.009" id="XMLID_868_"/>
<path class="st102" d="M49.875,66.605c5.188,1.535,8.014-5.951,8.014-5.951     c0.511,9.09-4.039,17.428-7.495,21.009" id="XMLID_867_"/>
<path class="st102" d="M41.866,82.754c-5.188,1.535-8.014-5.951-8.014-5.951     c-0.383,6.818,2.08,13.212,4.794,17.494" id="XMLID_866_"/>
<path class="st103" d="M37.243,29.097C32.083,26.335,16.668,16.551,25.265,2c0,0,1.615,7.296,6.83,9.997     c3.423,1.773,5.797,5.077,6.072,8.939l0.541,7.2C38.766,28.924,37.939,29.469,37.243,29.097z" id="XMLID_865_"/>
<path class="st103" d="M39.481,29.104c5.128-2.647,20.538-12.117,11.932-26.685c0,0-1.615,7.296-6.83,9.997     c-3.423,1.773-5.797,5.077-6.072,8.939l-0.482,6.786C37.974,28.92,38.786,29.462,39.481,29.104z" id="XMLID_864_"/>
<path class="st104" d="M25.265,7c0,0,1.615,7.296,6.83,9.997c3.423,1.773,6.153,5.077,6.427,8.939l-0.355-5     c-0.274-3.862-2.648-7.166-6.072-8.939C26.88,9.296,25.265,2,25.265,2c-2.39,4.046-2.909,7.745-2.324,11.048     C23.282,11.13,24.017,9.112,25.265,7z" id="XMLID_231_"/>
<path class="st104" d="M38.511,25.535c0.274-3.862,2.648-6.346,6.072-8.119c5.215-2.701,6.83-9.997,6.83-9.997     c1.248,2.112,1.983,4.13,2.324,6.048c0.586-3.303,0.067-7.002-2.324-11.048c0,0-1.615,7.296-6.83,9.997     c-3.423,1.773-5.797,5.077-6.072,8.939V25.535z" id="XMLID_301_"/>
</g>
<g id="XMLID_847_">
<path class="st105" d="M72.456,118.227c3.44,3.291,10.708,9.184,19.733,7.465c0,0-6.745-3.178-5.271-7.96     c5.157,1.137,11.878,4.613,21.464-0.581c0,0-6.163-2.572-6.689-6.452c4.635,0.578,10.284,0.165,16.079-4.808     c0,0-4.768,0.246-5.97-4.749c3.657-1.828,7.481-3.329,11.463-4.426l2.617-1.149L126,91.572H48.823     c-0.038,0.145-0.064,0.292-0.064,0.443c0,0.173,0.034,0.341,0.083,0.505c1.392,4.914,0.78,25.045,23.531,30.244     C72.374,122.764,72.659,120.986,72.456,118.227z" id="XMLID_862_"/>
<g id="XMLID_235_">
<g id="XMLID_757_">
<path class="st106" d="M86.918,114.732c-0.34,1.103-0.231,2.116,0.12,3.029       c5.141,1.163,11.831,4.545,21.344-0.61c0,0-1.421-0.597-2.955-1.643C97.391,118.614,91.527,115.749,86.918,114.732z" id="XMLID_810_"/>
<path class="st106" d="M72.374,119.764c-20.404-4.663-23.259-21.098-23.52-28.192h-0.031       c-0.038,0.144-0.064,0.292-0.064,0.443c0,0.173,0.034,0.341,0.083,0.505c-0.155,5.199,0.78,25.045,23.531,30.244       c0,0,0.249-1.595,0.107-4.093C72.435,119.364,72.374,119.764,72.374,119.764z" id="XMLID_808_"/>
<path class="st106" d="M72.456,115.227c0.091,1.243,0.082,2.271,0.046,3.043       c3.457,3.299,10.7,9.134,19.687,7.422c0,0-2.113-0.997-3.716-2.713C81.189,122.781,75.409,118.052,72.456,115.227z" id="XMLID_806_"/>
<path class="st106" d="M114.697,105.127c-4.698,2.846-9.193,3.047-13.003,2.571       c0.161,1.189,0.854,2.253,1.734,3.16c4.277,0.25,9.254-0.599,14.345-4.968C117.772,105.891,116.242,105.968,114.697,105.127z" id="XMLID_760_"/>
<path class="st106" d="M125.883,92.567l-2.617,1.149c-3.982,1.098-7.806,2.599-11.463,4.426       c0.249,1.033,0.654,1.832,1.134,2.465c3.314-1.58,6.754-2.906,10.329-3.891l2.617-1.149L126,91.572h-0.088L125.883,92.567z" id="XMLID_759_"/>
</g>
</g>
<g id="XMLID_848_">
<g id="XMLID_1064_">
<path class="st107" d="M80.646,109.459c0.578,0,1.147-0.234,1.55-0.641c0.411-0.398,0.639-0.962,0.639-1.533       c0-0.563-0.227-1.126-0.639-1.525c-0.815-0.805-2.277-0.805-3.091,0c-0.411,0.399-0.648,0.962-0.648,1.525       c0,0.572,0.237,1.135,0.648,1.533C79.508,109.225,80.077,109.459,80.646,109.459z" id="XMLID_1220_"/>
<path class="st107" d="M71.899,109.45c0.569,0,1.138-0.225,1.541-0.632c0.411-0.398,0.639-0.962,0.639-1.533       c0-0.563-0.227-1.126-0.639-1.525c-0.815-0.805-2.286-0.805-3.091,0c-0.411,0.399-0.648,0.962-0.648,1.525       c0,0.572,0.237,1.126,0.64,1.533C70.752,109.225,71.321,109.45,71.899,109.45z" id="XMLID_1219_"/>
<path class="st107" d="M68.189,115.1c0.578,0,1.147-0.225,1.55-0.632c0.411-0.398,0.648-0.962,0.648-1.533       c0-0.563-0.237-1.126-0.648-1.525c-0.815-0.805-2.286-0.805-3.091,0c-0.411,0.399-0.648,0.962-0.648,1.525       c0,0.572,0.237,1.135,0.648,1.533C67.051,114.874,67.62,115.1,68.189,115.1z" id="XMLID_1214_"/>
<path class="st107" d="M89.401,109.45c0.578,0,1.147-0.225,1.55-0.632c0.411-0.398,0.639-0.962,0.639-1.533       c0-0.572-0.227-1.126-0.639-1.525c-0.805-0.805-2.286-0.805-3.091,0c-0.411,0.399-0.648,0.962-0.648,1.525       c0,0.572,0.237,1.135,0.648,1.533C88.263,109.225,88.833,109.45,89.401,109.45z" id="XMLID_1213_"/>
<path class="st107" d="M98.157,109.45c0.578,0,1.147-0.225,1.55-0.632c0.411-0.398,0.639-0.962,0.639-1.533       c0-0.563-0.228-1.126-0.639-1.525c-0.814-0.805-2.286-0.805-3.091,0c-0.411,0.399-0.648,0.962-0.648,1.525       c0,0.572,0.236,1.135,0.648,1.533C97.019,109.225,97.588,109.45,98.157,109.45z" id="XMLID_1212_"/>
<path class="st107" d="M102.535,100.787c0.578,0,1.147-0.225,1.55-0.632c0.411-0.398,0.639-0.962,0.639-1.533       c0-0.563-0.228-1.126-0.639-1.525c-0.814-0.805-2.277-0.805-3.091,0c-0.411,0.399-0.648,0.962-0.648,1.525       c0,0.572,0.236,1.135,0.648,1.533C101.397,100.561,101.966,100.787,102.535,100.787z" id="XMLID_1211_"/>
<path class="st107" d="M93.78,100.787c0.578,0,1.147-0.225,1.55-0.632c0.411-0.398,0.639-0.962,0.639-1.525       c0-0.572-0.228-1.135-0.639-1.533c-0.814-0.805-2.277-0.805-3.091,0c-0.411,0.399-0.639,0.962-0.639,1.533       c0,0.563,0.227,1.127,0.639,1.525C92.641,100.561,93.21,100.787,93.78,100.787z" id="XMLID_1075_"/>
<path class="st107" d="M85.023,100.795c0.578,0,1.147-0.234,1.55-0.641c0.411-0.398,0.648-0.962,0.648-1.525       c0-0.572-0.237-1.135-0.648-1.533c-0.815-0.805-2.286-0.805-3.091,0c-0.411,0.399-0.648,0.962-0.648,1.533       c0,0.563,0.237,1.127,0.648,1.525C83.885,100.561,84.455,100.795,85.023,100.795z" id="XMLID_1074_"/>
<path class="st107" d="M76.268,100.795c0.578,0,1.147-0.234,1.55-0.641c0.411-0.398,0.639-0.962,0.639-1.533       c0-0.563-0.227-1.126-0.639-1.525c-0.815-0.805-2.277-0.814-3.091,0c-0.411,0.399-0.648,0.962-0.648,1.525       c0,0.572,0.237,1.135,0.648,1.533C75.13,100.561,75.699,100.795,76.268,100.795z" id="XMLID_1073_"/>
<path class="st107" d="M67.512,100.787c0.578,0,1.147-0.225,1.55-0.632c0.411-0.398,0.639-0.962,0.639-1.525       c0-0.572-0.227-1.135-0.639-1.533c-0.815-0.805-2.277-0.805-3.091,0c-0.411,0.399-0.648,0.962-0.648,1.533       c0,0.563,0.237,1.127,0.648,1.525C66.374,100.561,66.944,100.787,67.512,100.787z" id="XMLID_1070_"/>
<path class="st107" d="M63.144,109.45c0.569,0,1.138-0.225,1.541-0.632c0.411-0.398,0.639-0.962,0.639-1.533       c0-0.563-0.227-1.126-0.639-1.525c-0.815-0.805-2.286-0.805-3.091,0c-0.411,0.399-0.648,0.962-0.648,1.525       c0,0.572,0.237,1.126,0.64,1.533C61.996,109.225,62.566,109.45,63.144,109.45z" id="XMLID_1069_"/>
<path class="st107" d="M58.756,100.787c0.578,0,1.147-0.225,1.55-0.632c0.411-0.398,0.639-0.962,0.639-1.525       c0-0.572-0.227-1.135-0.639-1.533c-0.815-0.805-2.277-0.805-3.091,0c-0.411,0.399-0.648,0.962-0.648,1.533       c0,0.563,0.237,1.127,0.648,1.525C57.618,100.561,58.188,100.787,58.756,100.787z" id="XMLID_1067_"/>
<path class="st107" d="M79.24,117.247c0.578,0,1.147-0.225,1.55-0.632c0.411-0.398,0.648-0.962,0.648-1.533       c0-0.563-0.237-1.126-0.648-1.525c-0.815-0.805-2.286-0.805-3.091,0c-0.411,0.399-0.648,0.962-0.648,1.525       c0,0.572,0.237,1.135,0.648,1.533C78.102,117.022,78.671,117.247,79.24,117.247z" id="XMLID_1066_"/>
</g>
</g>
</g>
</g>
</g>
<g id="_x31_3_Plum"/>
<g id="_x31_2_Fig"/>
<g id="_x31_1_Peach"/>
<g id="_x31_0_Cherry"/>
<g id="_x30_9_Sapota"/>
<g id="_x30_8_Custard_Apple"/>
<g id="_x30_7_Watermelon"/>
<g id="_x30_6_Mango"/>
<g id="_x30_5_Pear"/>
<g id="_x30_4_Guava"/>
<g id="_x30_3_Pomegranate"/>
<g id="_x30_2_Orange"/>
<g id="_x30_1_Apple"/>
</svg>