<?xml version="1.0" encoding="utf-8"?>
<!-- Uploaded to: SVG Repo, www.svgrepo.com, Generator: SVG Repo Mixer Tools -->
<svg width="800px" height="800px" viewBox="-3.84 0 50.112 50.112" xmlns="http://www.w3.org/2000/svg">
  <g id="Group_1643" data-name="Group 1643" transform="translate(3428.416 -2328.144)">
    <path id="Path_3688" data-name="Path 3688" d="M-3403.874,2346.327c1.3.359,4.533-6.1,1.269-14.937-5.613,5.171-5.968,4.4-7.954,11.823" fill="#ffffff" fill-rule="evenodd"/>
    <path id="Path_3689" data-name="Path 3689" d="M-3401.313,2348.823c1.3.359,4.532-6.1,1.268-14.937-5.613,5.171-5.967,4.4-7.954,11.822" fill="#5db67d" fill-rule="evenodd"/>
    <path id="Path_3690" data-name="Path 3690" d="M-3403.769,2347.3a1.33,1.33,0,0,1-.36-.048.958.958,0,0,1-.67-1.18.96.96,0,0,1,.925-.706h.014c.887-.675,2.833-5.555.813-12.277-.453.407-.867.772-1.244,1.106-3.393,3-3.747,3.314-5.341,9.264a.957.957,0,0,1-1.174.68.961.961,0,0,1-.68-1.176c1.743-6.509,2.381-7.073,5.922-10.206.654-.578,1.415-1.25,2.309-2.074a.955.955,0,0,1,.874-.227.953.953,0,0,1,.676.6c2.691,7.279,1.237,13.455-.656,15.515a1.914,1.914,0,0,1-1.408.729" fill="#6f0911" fill-rule="evenodd"/>
    <path id="Path_3691" data-name="Path 3691" d="M-3412.772,2343.5s-2.837-5.376-2.837-14.4c4.085,6.446,10.1,5.44,10.1,13.12" fill="#ffffff" fill-rule="evenodd"/>
    <path id="Path_3692" data-name="Path 3692" d="M-3409.7,2346.576s-2.838-5.376-2.838-14.4c4.085,6.446,10.1,5.44,10.1,13.12" fill="#5db67d" fill-rule="evenodd"/>
    <path id="Path_3693" data-name="Path 3693" d="M-3412.771,2344.464a.957.957,0,0,1-.849-.512c-.122-.228-2.949-5.692-2.949-14.848a.959.959,0,0,1,.693-.922.96.96,0,0,1,1.078.408,16.868,16.868,0,0,0,5.133,4.971c2.63,1.85,5.117,3.6,5.117,8.663a.96.96,0,0,1-.96.96.96.96,0,0,1-.96-.96c0-4.067-1.8-5.337-4.3-7.093a23.567,23.567,0,0,1-3.775-3.1,30.519,30.519,0,0,0,2.622,11.025.96.96,0,0,1-.4,1.3.947.947,0,0,1-.447.111" fill="#6f0911" fill-rule="evenodd"/>
    <path id="Path_3694" data-name="Path 3694" d="M-3394.437,2354.717c1.573,0,3.84-2.49,5.381-4.031,0,8.064-.375,10.093-6.231,10.093" fill="#ffffff" fill-rule="evenodd"/>
    <path id="Path_3695" data-name="Path 3695" d="M-3391.365,2356.877c1.573,0,3.84-2.49,5.381-4.031,0,8.064-.375,10.093-6.231,10.093" fill="#5db67d" fill-rule="evenodd"/>
    <path id="Path_3696" data-name="Path 3696" d="M-3395.287,2361.739a.96.96,0,0,1-.96-.96.96.96,0,0,1,.96-.96c4.284,0,5.123-.686,5.251-6.8-1.624,1.566-3.039,2.655-4.4,2.655a.959.959,0,0,1-.96-.96.96.96,0,0,1,.96-.96c1,0,3-2.019,4.184-3.226l.52-.524a.962.962,0,0,1,1.046-.209.964.964,0,0,1,.592.888c0,7.862-.276,11.053-7.191,11.053" fill="#6f0911" fill-rule="evenodd"/>
    <path id="Path_3697" data-name="Path 3697" d="M-3394.048,2356.759c0,9.119-6.362,16.512-14.208,16.512s-14.208-7.393-14.208-16.512,6.361-16.512,14.208-16.512,14.208,7.394,14.208,16.512" fill="#ffffff" fill-rule="evenodd"/>
    <path id="Path_3698" data-name="Path 3698" d="M-3390.976,2361.36c0,9.331-6.447,16.9-14.4,16.9s-14.4-7.565-14.4-16.9,6.447-16.9,14.4-16.9,14.4,7.565,14.4,16.9" fill="#ee1c61" fill-rule="evenodd"/>
    <path id="Path_3699" data-name="Path 3699" d="M-3408.256,2341.207c-7.3,0-13.248,6.978-13.248,15.552s5.944,15.552,13.248,15.552,13.248-6.976,13.248-15.552S-3400.951,2341.207-3408.256,2341.207Zm0,33.024c-8.364,0-15.168-7.837-15.168-17.472s6.8-17.472,15.168-17.472,15.168,7.838,15.168,17.472-6.8,17.472-15.168,17.472" fill="#6f0911" fill-rule="evenodd"/>
    <path id="Path_3700" data-name="Path 3700" d="M-3406.169,2375.87a.96.96,0,0,1-.947-.809.96.96,0,0,1,.8-1.1c1.752-.279,2.54-1.309,2.541-1.95a.96.96,0,0,1,.96-.96h0a.96.96,0,0,1,.959.961c0,1.582-1.43,3.411-4.159,3.844a.87.87,0,0,1-.153.012" fill="#6f0911" fill-rule="evenodd"/>
    <path id="Path_3701" data-name="Path 3701" d="M-3408.871,2376.144a4.082,4.082,0,0,1-3.944-3.095.961.961,0,0,1,.542-1.246.957.957,0,0,1,1.245.542c.567,1.44,1.071,1.879,2.157,1.879a.96.96,0,0,1,.96.96.96.96,0,0,1-.96.96" fill="#6f0911" fill-rule="evenodd"/>
    <path id="Path_3702" data-name="Path 3702" d="M-3402.871,2357.886c0-3.556-3.221-6.441-3.221-6.441s-3.22,2.885-3.22,6.441c0,1.728,1.8,2.24,3.529,2.24s2.912-.64,2.912-2.24" fill="#ffffff" fill-rule="evenodd"/>
    <path id="Path_3703" data-name="Path 3703" d="M-3427.456,2352.558c1.44,6.754,8.428,11.313,8.809,6.16s-8.809-6.16-8.809-6.16" fill="#ffffff" fill-rule="evenodd"/>
    <path id="Path_3704" data-name="Path 3704" d="M-3400.551,2360.507c0-3.558-3.22-6.441-3.22-6.441s-3.22,2.883-3.22,6.441c0,1.728,1.8,2.24,3.528,2.24s2.912-.64,2.912-2.24" fill="#5db67d" fill-rule="evenodd"/>
    <path id="Path_3705" data-name="Path 3705" d="M-3424.384,2355.63c1.44,6.754,8.429,11.312,8.809,6.16s-8.809-6.16-8.809-6.16" fill="#5db67d" fill-rule="evenodd"/>
    <path id="Path_3706" data-name="Path 3706" d="M-3405.783,2361.086a.96.96,0,0,1-.96-.96.96.96,0,0,1,.96-.96c1.952,0,1.952-.864,1.952-1.28a8.274,8.274,0,0,0-2.261-5.056,8.279,8.279,0,0,0-2.26,5.056.96.96,0,0,1-.96.96.96.96,0,0,1-.96-.96c0-3.94,3.4-7.026,3.54-7.155a.959.959,0,0,1,1.281,0c.144.129,3.54,3.215,3.54,7.155,0,2-1.448,3.2-3.872,3.2" fill="#6f0911" fill-rule="evenodd"/>
    <path id="Path_3707" data-name="Path 3707" d="M-3420.444,2361.9c-.088,0-.18,0-.272-.012-2.756-.231-6.625-4.183-7.679-9.127a.956.956,0,0,1,.228-.843.947.947,0,0,1,.816-.311c.286.031,7.054.814,9.091,4.523a.959.959,0,0,1-.38,1.3.96.96,0,0,1-1.3-.378c-1.017-1.852-4.093-2.863-6.183-3.3,1.231,3.512,3.994,6.091,5.57,6.223a.675.675,0,0,0,.786-.5.961.961,0,0,1,1.246-.539.96.96,0,0,1,.539,1.246,2.546,2.546,0,0,1-2.459,1.723" fill="#6f0911" fill-rule="evenodd"/>
  </g>
</svg>