<?xml version="1.0" encoding="iso-8859-1"?>
<!-- Uploaded to: SVG Repo, www.svgrepo.com, Generator: SVG Repo Mixer Tools -->
<svg height="800px" width="800px" version="1.1" id="Layer_1" xmlns="http://www.w3.org/2000/svg" xmlns:xlink="http://www.w3.org/1999/xlink" 
	 viewBox="0 0 511.996 511.996" xml:space="preserve">
<path style="fill:#8F687A;" d="M360.556,143.115c-31.308-27.552-72.735-73.684-78.999-128.93C280.646,6.107,273.838,0,265.711,0
	h-9.791h-3.36h-9.791c-8.078,0-14.932,6.025-15.831,14.051c-6.723,59.879-54.762,109.049-86.536,135.497
	c-9.903,6.204-19.198,13.196-27.821,20.856c-0.276,0.179-0.452,0.291-0.452,0.291h0.127c-40.386,36.034-65.628,87.04-65.628,143.642
	c0,109.165,93.74,197.66,209.374,197.66s209.371-88.496,209.371-197.66C465.372,241.137,423.191,177.279,360.556,143.115z"/>
<path style="fill:#FFE388;" d="M371.852,177.966h0.123c0,0-0.168-0.105-0.429-0.269c-8.168-7.051-16.962-13.483-26.339-19.195
	c-31.289-25.32-79.246-73.269-82.501-131.398c-0.198-3.516-3.188-6.23-6.712-6.23l0,0l0,0c-3.52,0-6.51,2.714-6.708,6.23
	c-3.251,58.129-51.212,106.078-82.497,131.398c-9.377,5.711-18.175,12.143-26.339,19.195c-0.261,0.164-0.429,0.269-0.429,0.269
	h0.123c-38.232,33.163-62.127,80.1-62.127,132.189c0,55.273,21.976,104.323,63.202,137.576c66.49,53.623,162.418,54.9,228.076,0.265
	c40.491-33.693,64.691-83.677,64.691-137.841C433.986,258.066,410.088,211.129,371.852,177.966z"/>
<ellipse style="fill:#F97762;" cx="256.002" cy="320.021" rx="135.168" ry="126.082"/>
<g>
	<circle style="fill:#D84B35;" cx="266.491" cy="259.697" r="12.281"/>
	<circle style="fill:#D84B35;" cx="291.912" cy="259.697" r="12.281"/>
	<circle style="fill:#D84B35;" cx="278.773" cy="309.617" r="12.281"/>
	<circle style="fill:#D84B35;" cx="306.396" cy="284.409" r="12.281"/>
	<circle style="fill:#D84B35;" cx="330.958" cy="282.916" r="12.281"/>
	<circle style="fill:#D84B35;" cx="306.396" cy="234.489" r="12.281"/>
	<circle style="fill:#D84B35;" cx="258.802" cy="284.484" r="12.281"/>
	<circle style="fill:#D84B35;" cx="254.21" cy="334.43" r="12.281"/>
	<circle style="fill:#D84B35;" cx="258.802" cy="359.627" r="12.281"/>
	<circle style="fill:#D84B35;" cx="306.396" cy="334.43" r="12.281"/>
	<circle style="fill:#D84B35;" cx="293.331" cy="384.189" r="12.281"/>
	<circle style="fill:#D84B35;" cx="304.194" cy="309.617" r="12.281"/>
	<circle style="fill:#D84B35;" cx="291.912" cy="213.41" r="12.281"/>
	<circle style="fill:#D84B35;" cx="283.345" cy="359.627" r="12.281"/>
	<circle style="fill:#D84B35;" cx="330.958" cy="334.43" r="12.281"/>
	<circle style="fill:#D84B35;" cx="330.958" cy="359.627" r="12.281"/>
	<circle style="fill:#D84B35;" cx="295.608" cy="426.632" r="12.281"/>
	<circle style="fill:#D84B35;" cx="318.677" cy="384.189" r="12.281"/>
	<circle style="fill:#D84B35;" cx="281.087" cy="405.84" r="12.281"/>
	<circle style="fill:#D84B35;" cx="367.802" cy="347.346" r="12.281"/>
	<circle style="fill:#D84B35;" cx="367.802" cy="297.698" r="12.281"/>
	<circle style="fill:#D84B35;" cx="355.521" cy="374.26" r="12.281"/>
	<circle style="fill:#D84B35;" cx="362.987" cy="267.835" r="12.281"/>
	<circle style="fill:#D84B35;" cx="330.958" cy="250.477" r="12.281"/>
	<circle style="fill:#D84B35;" cx="330.958" cy="411.552" r="12.281"/>
	<circle style="fill:#D84B35;" cx="343.24" cy="309.617" r="12.281"/>
	<circle style="fill:#D84B35;" cx="183.584" cy="286.014" r="12.281"/>
	<circle style="fill:#D84B35;" cx="208.994" cy="286.014" r="12.281"/>
	<circle style="fill:#D84B35;" cx="195.865" cy="236.068" r="12.281"/>
	<circle style="fill:#D84B35;" cx="223.485" cy="261.284" r="12.281"/>
	<circle style="fill:#D84B35;" cx="146.74" cy="275.077" r="12.281"/>
	<circle style="fill:#D84B35;" cx="223.485" cy="311.211" r="12.281"/>
	<circle style="fill:#D84B35;" cx="175.894" cy="261.206" r="12.281"/>
	<circle style="fill:#D84B35;" cx="159.018" cy="347.346" r="12.281"/>
	<circle style="fill:#D84B35;" cx="159.018" cy="386.541" r="12.281"/>
	<circle style="fill:#D84B35;" cx="235.77" cy="211.282" r="12.281"/>
	<circle style="fill:#D84B35;" cx="233.567" cy="347.346" r="12.281"/>
	<circle style="fill:#D84B35;" cx="221.286" cy="236.068" r="12.281"/>
	<circle style="fill:#D84B35;" cx="208.994" cy="332.302" r="12.281"/>
	<circle style="fill:#D84B35;" cx="195.865" cy="359.627" r="12.281"/>
	<circle style="fill:#D84B35;" cx="248.051" cy="234.489" r="12.281"/>
	<circle style="fill:#D84B35;" cx="223.485" cy="381.278" r="12.281"/>
	<circle style="fill:#D84B35;" cx="171.295" cy="311.211" r="12.281"/>
	<circle style="fill:#D84B35;" cx="180.448" cy="335.065" r="12.281"/>
	<circle style="fill:#D84B35;" cx="134.459" cy="311.211" r="12.281"/>
	<circle style="fill:#D84B35;" cx="248.051" cy="430.403" r="12.281"/>
	<circle style="fill:#D84B35;" cx="198.926" cy="393.559" r="12.281"/>
	<circle style="fill:#D84B35;" cx="196.716" cy="418.121" r="12.281"/>
	<circle style="fill:#D84B35;" cx="248.051" cy="384.189" r="12.281"/>
	<circle style="fill:#D84B35;" cx="223.485" cy="418.121" r="12.281"/>
</g>
<path style="opacity:0.1;enable-background:new    ;" d="M198.926,128.74C144.65,175.599,89.631,214.832,81.03,288.168
	c-8.791,74.968,29.695,148.674,97.44,181.971c45.631,22.427,112.364,31.998,207.075-0.571c3.707-2.762,7.346-5.603,10.844-8.593
	c-86.655,25.04-148.651,15.876-191.789-4.151c-67.745-31.45-106.231-101.064-97.44-171.877
	c8.601-69.271,63.62-106.328,117.896-150.589c48.02-39.158,54.28-94.733,52.835-128.636C274.95,2.225,270.583,0,265.711,0h-9.791
	h-3.36h-0.635C252.176,36.19,243.758,90.03,198.926,128.74z"/>
<path style="opacity:0.2;enable-background:new    ;" d="M178.47,470.136c-67.745-33.297-106.231-107-97.44-181.971
	c8.601-73.333,63.62-112.565,117.896-159.424C243.758,90.03,252.176,36.19,251.922,0h-9.157c-8.078,0-14.932,6.025-15.831,14.051
	c-6.723,59.879-54.762,109.049-86.536,135.497c-9.903,6.204-19.198,13.196-27.821,20.856c-0.276,0.179-0.452,0.291-0.452,0.291
	h0.127c-40.386,36.034-65.628,87.04-65.628,143.642c0,109.165,93.74,197.66,209.374,197.66c48.923,0,93.893-15.887,129.539-42.436
	C290.83,502.134,224.101,492.567,178.47,470.136z"/>
<g style="opacity:0.3;">
	<circle style="fill:#FFFFFF;" cx="392.663" cy="201.688" r="24.88"/>
	<circle style="fill:#FFFFFF;" cx="422.19" cy="255.181" r="12.442"/>
</g>
</svg>