<?xml version="1.0" encoding="iso-8859-1"?>
<!-- Uploaded to: SVG Repo, www.svgrepo.com, Generator: SVG Repo Mixer Tools -->
<svg height="800px" width="800px" version="1.1" id="Layer_1" xmlns="http://www.w3.org/2000/svg" xmlns:xlink="http://www.w3.org/1999/xlink" 
	 viewBox="0 0 504.542 504.542" xml:space="preserve">
<path style="fill:#F2EDDA;" d="M277.871,5.342h34.133c34.133,170.667,187.733,204.8,187.733,349.867
	c0,80.213-64.853,145.067-145.067,145.067c0,0-34.133,0-51.2-8.533c-16.213,5.973-33.28,8.533-51.2,8.533s-34.987-2.56-51.2-8.533
	c-25.6,8.533-51.2,8.533-51.2,8.533c-80.213,0-145.067-64.853-145.067-145.067c0-139.947,143.36-176.64,183.467-332.8
	c1.707-5.12,4.267-17.067,21.333-17.067H277.871z"/>
<path style="fill:#51565F;" d="M354.671,504.542c-1.707,0-33.28,0-51.2-8.533c-15.36,5.12-32.427,8.533-51.2,8.533
	s-35.84-2.56-51.2-8.533c-25.6,8.533-50.347,8.533-51.2,8.533c-81.92,0-149.333-67.413-149.333-149.333
	c0-75.947,40.96-122.027,85.333-171.52c39.253-44.373,80.213-89.6,98.987-162.133c1.707-6.827,5.12-20.48,24.747-20.48h68.267
	c2.56,0,4.267,1.707,4.267,4.267c8.533,83.627,37.547,133.973,64.853,181.76c28.16,48.64,54.613,93.867,54.613,168.107
	c0,44.373-19.627,85.333-52.907,114.347c-1.707,1.707-4.267,1.707-5.973-0.853c-1.707-1.707-1.707-4.267,0.853-5.973
	c31.573-26.453,50.347-65.707,50.347-107.52c0-71.68-25.6-116.907-53.76-163.84c-28.16-48.64-56.32-98.133-65.707-181.76h-64
	c-13.653,0-15.36,7.68-17.067,13.653c-19.627,75.093-62.293,123.733-100.693,166.4C48.324,240.009,9.924,282.675,9.924,355.209
	c0,77.653,63.147,140.8,140.8,140.8c0,0,25.6,0,49.493-8.533c0.853,0,1.707,0,2.56,0c14.507,5.12,31.573,8.533,49.493,8.533
	s34.987-2.56,49.493-8.533c0.853,0,2.56,0,3.413,0c16.213,7.68,48.64,7.68,49.493,7.68c77.653,0,140.8-63.147,140.8-140.8
	c0-72.533-38.4-116.053-82.773-165.547c-40.96-46.08-87.893-98.987-104.96-183.467c-0.853-2.56,0.853-4.267,3.413-5.12
	c2.56-0.853,4.267,0.853,5.12,3.413c16.213,81.92,60.587,131.413,102.4,179.2c43.52,49.493,85.333,95.573,85.333,171.52
	C504.004,437.129,436.591,504.542,354.671,504.542z M158.404,470.409c-0.853,0-1.707,0-2.56-0.853
	c-33.28-28.16-52.907-69.973-52.907-114.347c0-74.24,26.453-120.32,54.613-168.107c23.893-40.96,48.64-83.627,60.587-147.627
	c0.853-2.56,2.56-4.267,5.12-3.413s4.267,2.56,3.413,5.12c-11.947,65.707-36.693,109.227-61.44,151.04
	c-27.307,47.787-53.76,92.16-53.76,163.84c0,41.813,17.92,81.067,49.493,107.52c1.707,1.707,1.707,4.267,0.853,5.973
	C160.964,469.556,160.111,470.409,158.404,470.409z M414.404,453.342c-1.707,0-2.56-0.853-3.413-2.56
	c-0.853-1.707-0.853-4.267,1.707-5.973c0,0,9.387-5.973,15.36-15.36c0.853-1.707,3.413-2.56,5.973-1.707
	c1.707,0.853,2.56,3.413,1.707,5.973c-6.827,11.947-17.92,17.92-18.773,18.773C416.111,453.342,415.258,453.342,414.404,453.342z
	 M235.204,444.809c-1.707,0-3.413-1.707-4.267-3.413c0-1.707-8.533-34.987-8.533-69.12c0-2.56,1.707-4.267,4.267-4.267
	s4.267,1.707,4.267,4.267c0,33.28,8.533,66.56,8.533,67.413c0.853,2.56-0.853,4.267-3.413,5.12H235.204z M354.671,402.142
	c-0.853,0-1.707,0-1.707-0.853c-1.707-0.853-2.56-3.413-1.707-5.973c0,0,5.973-11.093,7.68-23.893c0-2.56,2.56-4.267,5.12-3.413
	c2.56,0,4.267,2.56,3.413,5.12c-2.56,14.507-8.533,26.453-9.387,27.307C357.231,401.289,356.378,402.142,354.671,402.142z
	 M42.351,385.076c-1.707,0-3.413-0.853-4.267-2.56c0-0.853-8.533-27.307,0-53.76c0.853-2.56,3.413-3.413,5.12-2.56
	c2.56,0.853,3.413,3.413,2.56,5.12c-7.68,23.893,0,48.64,0,48.64c0.853,2.56-0.853,4.267-2.56,5.12
	C43.204,385.076,43.204,385.076,42.351,385.076z M363.204,333.876c-2.56,0-4.267-1.707-4.267-4.267c0,0,0-24.747-16.213-48.64
	c-1.707-1.707-0.853-4.267,0.853-5.973c1.707-1.707,4.267-0.853,5.973,0.853c17.92,26.453,17.92,52.053,17.92,53.76
	C367.471,332.169,365.764,333.876,363.204,333.876L363.204,333.876z M465.604,325.342c-1.707,0-3.413-0.853-4.267-2.56
	c0,0-8.533-25.6-24.747-50.347c-1.707-1.707-0.853-4.267,0.853-5.973c1.707-1.707,4.267-0.853,5.973,0.853
	c17.067,25.6,25.6,51.2,26.453,52.053c0.853,2.56-0.853,4.267-2.56,5.12C466.458,325.342,466.458,325.342,465.604,325.342z
	 M226.671,299.742L226.671,299.742c-2.56,0-4.267-1.707-4.267-4.267c0-0.853,0-52.053,8.533-111.787c0-2.56,2.56-4.267,5.12-3.413
	c2.56,0,4.267,2.56,3.413,5.12c-8.533,58.88-8.533,110.08-8.533,110.08C230.938,298.036,229.231,299.742,226.671,299.742z
	 M158.404,274.142c-0.853,0-0.853,0-1.707,0c-2.56-0.853-3.413-3.413-2.56-5.12c0-0.853,8.533-26.453,26.453-52.053
	c1.707-1.707,4.267-2.56,5.973-0.853c1.707,1.707,2.56,4.267,0.853,5.973c-16.213,24.747-24.747,50.347-24.747,50.347
	C161.818,273.289,160.111,274.142,158.404,274.142z M102.938,222.942c-0.853,0-1.707,0-2.56-0.853
	c-1.707-1.707-2.56-4.267-0.853-5.973l12.8-17.067c1.707-1.707,4.267-2.56,5.973-0.853c1.707,1.707,2.56,4.267,0.853,5.973
	l-12.8,17.067C105.498,222.089,104.645,222.942,102.938,222.942z M239.471,154.676C239.471,154.676,238.618,154.676,239.471,154.676
	c-3.413-0.853-4.267-2.56-4.267-5.12l4.267-25.6c0-2.56,2.56-4.267,5.12-3.413c2.56,0,4.267,2.56,3.413,5.12l-4.267,25.6
	C243.738,152.969,241.178,154.676,239.471,154.676z"/>
</svg>