<?xml version="1.0" encoding="iso-8859-1"?>
<!-- Uploaded to: SVG Repo, www.svgrepo.com, Generator: SVG Repo Mixer Tools -->
<svg height="800px" width="800px" version="1.1" id="Layer_1" xmlns="http://www.w3.org/2000/svg" xmlns:xlink="http://www.w3.org/1999/xlink"
	 viewBox="0 0 511.998 511.998" xml:space="preserve">
<path style="fill:#4E901E;" d="M482.856,7.948c0,0-366.326,46.502-475.267,478.982C7.588,486.959,395.196,280.024,482.856,7.948z"/>
<g>
	<circle style="fill:#D7FC7E;" cx="229.839" cy="225.358" r="90.89"/>
	<path style="fill:#D7FC7E;" d="M419.495,56.842c-35.696-31.503-90.203-30.208-124.33,3.919c-35.493,35.493-35.493,93.039,0,128.532
		c15.579,15.579,35.406,24.315,55.751,26.218C368.863,174.181,399.864,102.687,419.495,56.842z"/>
	<path style="fill:#D7FC7E;" d="M219.993,350.49c-1.122-21.659-9.947-42.993-26.49-59.536c-35.493-35.493-93.039-35.493-128.532,0
		s-35.493,93.039,0,128.532c1.279,1.279,2.596,2.5,3.93,3.687L219.993,350.49z"/>
</g>
<g>
	<path style="fill:#B2FA09;" d="M210.585,276.484c-35.493-35.493-35.493-93.039,0-128.532c5.257-5.257,11.008-9.717,17.091-13.417
		c-22.533,0.533-44.906,9.372-62.102,26.568c-35.493,35.493-35.493,93.039,0,128.532c30.235,30.235,76.464,34.695,111.441,13.417
		C253.039,303.62,228.882,294.781,210.585,276.484z"/>
	<path style="fill:#B2FA09;" d="M340.176,47.609c5.255-5.255,10.996-9.725,17.073-13.423c-22.527,0.531-44.892,9.381-62.085,26.574
		c-35.493,35.493-35.493,93.039,0,128.532c15.579,15.579,35.406,24.315,55.751,26.218c3.082-7.097,6.556-15.1,10.284-23.693
		c-7.548-4.085-14.646-9.297-21.024-15.675C304.684,140.648,304.684,83.103,340.176,47.609z"/>
	<path style="fill:#B2FA09;" d="M109.984,277.803c5.258-5.257,11.008-9.717,17.091-13.417c-22.533,0.533-44.906,9.372-62.102,26.568
		c-35.493,35.493-35.493,93.039,0,128.532c1.279,1.279,2.596,2.5,3.93,3.687l39.174-18.844
		C74.528,368.706,75.147,312.639,109.984,277.803z"/>
</g>
<path style="fill:#A4E276;" d="M498.044,11.415c-6.257-4.985-15.828-5.042-24.489-0.144
	c-5.122,2.896-126.985,72.473-261.935,207.423c-79.34,79.339-146.642,164.891-200.036,254.278
	c-4.958,8.299-5.345,17.621-1.002,24.078c4.344,6.457,12.672,8.939,21.51,6.41c5.964-1.707,147.655-43.377,285.265-180.975
	c0.01-0.01,0.015-0.016,0.025-0.025C398.02,241.823,460.35,144.915,502.637,34.438C506.097,25.398,504.303,16.4,498.044,11.415z"/>
<path style="fill:#6DC82A;" d="M260.851,238.384C361.638,137.598,455.114,73.282,498.123,45.967
	c1.527-3.828,3.035-7.668,4.513-11.53c3.461-9.04,1.666-18.039-4.592-23.024c-6.257-4.985-15.828-5.042-24.489-0.144
	c-5.122,2.896-126.985,72.473-261.935,207.423c-79.34,79.34-146.642,164.892-200.036,254.279
	c-4.958,8.299-5.345,17.621-1.002,24.078c4.344,6.457,12.672,8.939,21.51,6.41c1.504-0.431,11.651-3.408,28.177-9.82
	c0.179-0.326,0.353-0.653,0.546-0.976C114.21,403.277,181.512,317.725,260.851,238.384z"/>
<path d="M450.412,146.363c-3.654-2.088-8.31-0.819-10.398,2.835c-2.744,4.802-5.571,9.634-8.401,14.36
	c-2.162,3.611-1.077,8.447,2.624,10.454c4.636,2.515,9.025-0.239,10.454-2.624c2.883-4.815,5.762-9.736,8.558-14.628
	C455.335,153.107,454.066,148.452,450.412,146.363z"/>
<path d="M502.794,5.455c-5.608-4.468-12.996-6.167-20.584-5.093c-0.066,0.005-0.131,0-0.197,0.012
	C425.41,10.14,379.197,28.253,378.831,28.469c-31.526-6.276-65.241,3.091-89.054,26.903c-8.305,8.305-14.925,17.901-19.726,28.275
	c-21.328,13.781-41.923,29.082-61.239,45.479c-18.313,4.002-35.232,13.181-48.626,26.576c-14.274,14.274-23.341,32.008-27.01,50.678
	c-0.017,0.02-0.037,0.039-0.054,0.06c-14.714,18.07-28.648,37.363-41.412,57.34c-0.096,0.149-0.177,0.304-0.26,0.457
	c-11.738,4.879-22.588,12.051-31.865,21.329C34.96,310.192,25.78,345.55,33.434,378.051c-12.525,31.392-23.322,64.823-32.117,99.415
	c-2.544,8.493-1.318,16.946,2.944,23.84c8.869,14.344,26.967,10.332,29.931,9.483c6.043-1.729,149.582-43.964,288.527-182.885
	c0.019-0.019,0.039-0.038,0.054-0.053c39.969-39.969,75.893-84.427,106.773-132.14c2.286-3.534,1.276-8.252-2.257-10.539
	c-3.533-2.285-8.251-1.276-10.539,2.257c-30.291,46.802-65.526,90.411-104.726,129.616c-0.019,0.019-0.039,0.038-0.054,0.053
	C175.774,453.278,35.884,494.448,29.997,496.133c-5.609,1.605-10.388,0.154-13.09-3.338c-4.539-5.866,0.198-14.204,1.221-15.916
	c25.543-42.761,54.643-85.141,86.491-125.962c2.589-3.319,1.998-8.107-1.321-10.695c-3.319-2.589-8.107-1.998-10.695,1.321
	C79.523,358.306,66.91,375.334,54.8,392.54c-15.835-31.602-9.935-70.701,15.561-96.198c19.274-19.274,46.567-27.833,73.363-23.118
	c0.755,1.354,1.54,2.697,2.365,4.025c-10.105,11.423-19.982,22.935-29.558,34.513c-2.682,3.242-2.208,8.023,1.015,10.73
	c4.051,3.402,9.222,0.807,10.73-1.015c27.504-33.251,57.359-66.019,88.734-97.395C351.226,89.865,472.221,20.779,477.306,17.904
	c2.135-1.206,9.323-5.732,15.99-0.528c3.618,2.824,4.463,8.488,2.223,14.339c-12.118,31.658-26.09,62.609-41.531,91.99
	c-1.958,3.726-0.525,8.333,3.201,10.291c3.725,1.956,8.333,0.524,10.291-3.201c15.719-29.912,29.941-61.414,42.273-93.631
	C514.416,24.983,511.683,12.537,502.794,5.455z M32.376,425.497c2.881-8.687,5.89-17.253,9.026-25.688
	c1.147,2.261,2.382,4.489,3.718,6.678C40.801,412.803,36.553,419.141,32.376,425.497z M435.726,25.689
	c-7.044,4.583-15.035,9.902-23.871,15.968c-3.241-2.042-6.566-3.88-9.962-5.503C414.268,31.875,425.645,28.436,435.726,25.689z
	 M300.553,66.149c25.903-25.903,65.658-31.569,97.496-14.875c-31.627,22.334-71.576,52.642-115.507,90.863
	c-1.698-1.076-3.425-2.098-5.181-3.066C272.828,112.438,281.442,85.261,300.553,66.149z M261.177,131.973
	c-8.272-2.769-16.906-4.445-25.673-4.951c8.828-6.931,17.868-13.631,27.094-20.036C261.075,115.157,260.585,123.55,261.177,131.973z
	 M113.821,257.919c5.731-8.446,11.673-16.725,17.779-24.814c0.63,8.066,2.273,16.084,4.914,23.869
	C128.876,256.406,121.266,256.742,113.821,257.919z M206.232,213.304c-16.975,16.975-33.492,34.364-49.459,52.008
	c-17.607-32.081-12.204-72.437,14.19-98.831c26.779-26.78,67.345-31.966,99.573-13.783
	C249.731,171.186,228.152,191.383,206.232,213.304z"/>
</svg>
