<?xml version="1.0" encoding="utf-8"?>
<!-- Uploaded to: SVG Repo, www.svgrepo.com, Generator: SVG Repo Mixer Tools -->
<svg width="800px" height="800px" viewBox="0 0 1024 1024" class="icon"  version="1.1" xmlns="http://www.w3.org/2000/svg"><path d="M618.666667 149.333333c-74.666667-2.133333-55.466667-64-106.666667-64s-32 61.866667-106.666667 64c-61.866667 2.133333-85.333333 106.666667-85.333333 106.666667l192 490.666667 192-490.666667s-23.466667-104.533333-85.333333-106.666667z" fill="#689F38" /><path d="M426.666667 960c-8.533333-49.066667 23.466667-91.733333-19.2-117.333333-21.333333-12.8-46.933333-17.066667-66.133334-32-32-21.333333-23.466667-78.933333-32-117.333334-2.133333-6.4-4.266667-14.933333-8.533333-19.2-8.533333-10.666667-46.933333-27.733333-59.733333-32-25.6-4.266667-42.666667-23.466667-49.066667-44.8-6.4-23.466667 2.133333-49.066667 0-72.533333 0-29.866667 8.533333-38.4-12.8-59.733333-14.933333-12.8-32-21.333333-42.666667-38.4-19.2-29.866667-6.4-85.333333 25.6-102.4 17.066667-8.533333 38.4-10.666667 51.2-49.066667 10.666667-34.133333 10.666667-44.8 21.333334-78.933333 8.533333-27.733333 36.266667-46.933333 64-49.066667s55.466667 14.933333 64 42.666667c12.8 38.4 6.4 36.266667 21.333333 64 17.066667 32 83.2 40.533333 85.333333 106.666666 0 23.466667-32 57.6-23.466666 76.8 4.266667 8.533333 12.8 14.933333 21.333333 23.466667 21.333333 21.333333 32 53.333333 27.733333 83.2-2.133333 17.066667-10.666667 34.133333-12.8 53.333333-2.133333 38.4 27.733333 68.266667 51.2 100.266667 55.466667 74.666667 21.333333 132.266667 21.333334 260.266667 0 2.133333-128 2.133333-128 2.133333z" fill="#8BC34A" /><path d="M554.666667 960c8.533333-49.066667 19.2-91.733333 61.866666-117.333333 21.333333-12.8 46.933333-17.066667 66.133334-32 32-21.333333 23.466667-78.933333 32-117.333334 2.133333-6.4 4.266667-14.933333 8.533333-19.2 8.533333-10.666667 46.933333-27.733333 59.733333-32 21.333333-6.4 40.533333-23.466667 46.933334-44.8 6.4-23.466667-2.133333-49.066667 0-72.533333 0-29.866667-8.533333-38.4 12.8-59.733333 14.933333-12.8 32-21.333333 42.666666-38.4 19.2-29.866667 6.4-85.333333-25.6-102.4-17.066667-8.533333-38.4-21.333333-51.2-49.066667-14.933333-32-10.666667-44.8-21.333333-78.933333-8.533333-27.733333-36.266667-46.933333-64-49.066667-27.733333-2.133333-55.466667 14.933333-64 42.666667-12.8 38.4-6.4 36.266667-21.333333 64-17.066667 32-83.2 40.533333-85.333334 106.666666 0 23.466667 32 57.6 23.466667 76.8-4.266667 8.533333-12.8 14.933333-21.333333 23.466667-21.333333 21.333333-32 53.333333-27.733334 83.2 2.133333 17.066667 10.666667 34.133333 12.8 53.333333 2.133333 38.4-27.733333 68.266667-51.2 100.266667-55.466667 74.666667-64 132.266667-64 260.266667 2.133333 2.133333 130.133333 2.133333 130.133334 2.133333z" fill="#8BC34A" /><path d="M618.666667 149.333333c-59.733333-2.133333-59.733333-42.666667-83.2-57.6 19.2 98.133333 81.066667 89.6 76.8 121.6-2.133333 8.533333-2.133333 12.8-8.533334 23.466667-2.133333 2.133333-12.8 10.666667-19.2 14.933333-25.6 17.066667-68.266667 46.933333-70.4 110.933334v0c-2.133333-64-44.8-91.733333-70.4-110.933334-6.4-4.266667-17.066667-10.666667-19.2-14.933333-6.4-10.666667-8.533333-12.8-8.533333-23.466667-2.133333-34.133333 53.333333-23.466667 76.8-121.6C465.066667 106.666667 465.066667 147.2 405.333333 149.333333c-21.333333 0-36.266667 12.8-49.066666 27.733334 2.133333 4.266667 4.266667 10.666667 6.4 14.933333 12.8 38.4 6.4 36.266667 21.333333 64 17.066667 32 83.2 40.533333 85.333333 106.666667 0 23.466667-32 57.6-23.466666 76.8 4.266667 8.533333 12.8 14.933333 21.333333 23.466666 21.333333 21.333333 32 53.333333 27.733333 83.2-2.133333 17.066667-10.666667 34.133333-12.8 53.333334 0 12.8 2.133333 23.466667 6.4 34.133333-72.533333 74.666667-61.866667 228.266667-59.733333 238.933333 4.266667-72.533333 21.333333-117.333333 61.866667-172.8 6.4-8.533333 14.933333-17.066667 21.333333-27.733333 17.066667-21.333333 32-44.8 29.866667-72.533333 0-19.2-8.533333-36.266667-12.8-53.333334-4.266667-29.866667 4.266667-61.866667 27.733333-83.2 6.4-6.4 17.066667-12.8 21.333333-23.466666 8.533333-21.333333-23.466667-55.466667-23.466666-76.8 2.133333-66.133333 68.266667-74.666667 85.333333-106.666667 14.933333-27.733333 8.533333-27.733333 21.333333-64 2.133333-4.266667 4.266667-10.666667 6.4-14.933333C654.933333 162.133333 640 149.333333 618.666667 149.333333z m-91.733334 283.733334c-6.4 6.4-10.666667 10.666667-14.933333 17.066666-4.266667-6.4-10.666667-12.8-14.933333-17.066666L490.666667 426.666667c2.133333-4.266667 4.266667-6.4 4.266666-10.666667 8.533333-14.933333 17.066667-32 17.066667-51.2 0 19.2 8.533333 36.266667 17.066667 51.2 2.133333 2.133333 4.266667 6.4 4.266666 10.666667l-6.4 6.4z" fill="#558B2F" /><path d="M428.8 785.066667c-2.133333-4.266667-4.266667-6.4-6.4-10.666667-8.533333-17.066667-19.2-34.133333-29.866667-51.2-10.666667-17.066667-21.333333-36.266667-32-55.466667-10.666667-19.2-21.333333-38.4-29.866666-57.6-8.533333-19.2-19.2-38.4-25.6-57.6-8.533333-19.2-12.8-38.4-17.066667-55.466666-4.266667-17.066667-6.4-36.266667-8.533333-51.2-2.133333-17.066667-2.133333-32-2.133334-44.8-2.133333-12.8 2.133333-23.466667 2.133334-34.133334 2.133333-19.2 2.133333-29.866667 2.133333-29.866666s0 10.666667 2.133333 29.866666c0 8.533333 0 21.333333 2.133334 32 2.133333 12.8 4.266667 27.733333 8.533333 42.666667s8.533333 32 14.933333 49.066667c6.4 17.066667 12.8 34.133333 23.466667 51.2 8.533333 17.066667 19.2 34.133333 29.866667 51.2 10.666667 17.066667 23.466667 34.133333 36.266666 51.2 12.8 17.066667 25.6 34.133333 38.4 49.066666 4.266667 4.266667 6.4 8.533333 10.666667 12.8-2.133333 8.533333-6.4 19.2-8.533333 27.733334v8.533333c-2.133333 4.266667-2.133333 10.666667-2.133334 14.933333 0 6.4-2.133333 12.8-2.133333 19.2-4.266667 2.133333-4.266667 6.4-6.4 8.533334zM533.333333 960s0-10.666667-2.133333-29.866667c-2.133333-10.666667 0-17.066667 2.133333-27.733333 0-8.533333 2.133333-21.333333 6.4-36.266667 2.133333-6.4 4.266667-14.933333 6.4-21.333333 2.133333-6.4 4.266667-14.933333 8.533334-23.466667 6.4-14.933333 14.933333-32 23.466666-49.066666 8.533333-17.066667 19.2-34.133333 29.866667-51.2 10.666667-17.066667 21.333333-36.266667 32-55.466667 10.666667-19.2 21.333333-38.4 29.866667-57.6 8.533333-19.2 19.2-38.4 25.6-57.6 8.533333-19.2 12.8-38.4 17.066666-55.466667 4.266667-17.066667 6.4-36.266667 8.533334-51.2 2.133333-17.066667 2.133333-29.866667 2.133333-44.8 2.133333-12.8-2.133333-23.466667-2.133333-34.133333-2.133333-19.2-2.133333-29.866667-2.133334-29.866667s0 10.666667-2.133333 29.866667c0 8.533333 0 21.333333-2.133333 32-2.133333 12.8-4.266667 27.733333-8.533334 42.666667s-8.533333 32-14.933333 49.066666c-6.4 17.066667-12.8 34.133333-23.466667 51.2-8.533333 17.066667-19.2 34.133333-29.866666 51.2-10.666667 17.066667-23.466667 34.133333-36.266667 51.2-12.8 17.066667-25.6 34.133333-38.4 49.066667-12.8 17.066667-25.6 32-38.4 49.066667-12.8 17.066667-23.466667 34.133333-32 51.2l-12.8 25.6c-4.266667 8.533333-8.533333 17.066667-10.666667 25.6-6.4 17.066667-12.8 32-14.933333 46.933333-4.266667 14.933333-6.4 29.866667-6.4 38.4V960h85.333333z" fill="#DCEDC8" /></svg>