<?xml version="1.0" ?>
<!-- Uploaded to: SVG Repo, www.svgrepo.com, Generator: SVG Repo Mixer Tools -->
<svg width="800px" height="800px" viewBox="0 0 128 128" version="1.1" xml:space="preserve" xmlns="http://www.w3.org/2000/svg" xmlns:xlink="http://www.w3.org/1999/xlink">
<style type="text/css">
	.st0{fill:#69A401;}
	.st1{fill:#EFE691;}
	.st2{fill:#B20000;}
	.st3{fill:#DF1801;}
	.st4{fill:#F40603;}
	.st5{fill:#FFEEEE;}
	.st6{fill:#847B3C;}
	.st7{fill:#CEB600;}
	.st8{fill:#F8CD02;}
	.st9{fill:#F7C800;}
	.st10{fill:#F6E8B9;}
	.st11{fill:#F6E9CA;}
	.st12{fill:#CF8A11;}
	.st13{fill:#286F0D;}
	.st14{fill:#63271D;}
	.st15{fill:#EB8102;}
	.st16{fill:#E37303;}
	.st17{fill:#D97102;}
	.st18{fill:#BF6302;}
	.st19{fill:#EA9735;}
	.st20{fill:#3E1A01;}
	.st21{fill:#C96A0A;}
	.st22{fill:#CE2335;}
	.st23{fill:#C0242D;}
	.st24{fill:#BA1A23;}
	.st25{fill:#F9DCC7;}
	.st26{fill:#DBE2CE;}
	.st27{fill:#7D4B12;}
	.st28{fill:#75480C;}
	.st29{fill:#66410C;}
	.st30{fill:#88550D;}
	.st31{fill:#FFFEE9;}
	.st32{fill:#9B9F1A;}
	.st33{fill:#F6E177;}
	.st34{fill:#443A00;}
	.st35{fill:#305209;}
	.st36{fill:#7F7C04;}
	.st37{fill:#BAB424;}
	.st38{fill:#F7CF43;}
	.st39{fill:#DE940E;}
	.st40{fill:#5F570A;}
	.st41{fill:#175424;}
	.st42{fill:#215B25;}
	.st43{fill:#1B5020;}
	.st44{fill:#C0F9C0;}
	.st45{fill:#F3DA78;}
	.st46{fill:#BC441C;}
	.st47{fill:#148E2E;}
	.st48{fill:#283767;}
	.st49{fill:#425285;}
	.st50{fill:#CFDFFF;}
	.st51{fill:#1F2C55;}
	.st52{fill:#776220;}
	.st53{fill:#90236B;}
	.st54{fill:#5D1A47;}
	.st55{fill:#99499A;}
	.st56{fill:#FCCAFA;}
	.st57{fill:#917C31;}
	.st58{fill:#F4C435;}
	.st59{fill:#F1BC02;}
	.st60{fill:#F0B102;}
	.st61{fill:#F1F7BA;}
	.st62{fill:#E3DCB9;}
	.st63{fill:#BD6800;}
	.st64{fill:#E19704;}
	.st65{fill:#B2CA2B;}
	.st66{fill:#AFC20F;}
	.st67{fill:#B9CB00;}
	.st68{fill:#E5F392;}
	.st69{fill:#F78202;}
	.st70{fill:#F79613;}
	.st71{fill:#331F07;}
	.st72{fill:#402B16;}
	.st73{fill:#669404;}
	.st74{fill:#F58E13;}
	.st75{fill:#D87117;}
	.st76{fill:#216604;}
	.st77{fill:#286D08;}
	.st78{fill:#C8C625;}
	.st79{fill:#2C441F;}
	.st80{fill:#F1E6BF;}
	.st81{fill:#F2BE2E;}
	.st82{fill:#BF8F33;}
	.st83{fill:#568804;}
	.st84{fill:#669614;}
	.st85{fill:#688E0C;}
	.st86{fill:#4C7005;}
	.st87{fill:#A0CA49;}
	.st88{fill:#99BD70;}
	.st89{fill:#78AA25;}
	.st90{fill:#4B7C23;}
	.st91{fill:#EADBC8;}
	.st92{fill:#F0D5B0;}
	.st93{fill:#DF2B2B;}
	.st94{fill:#D1262C;}
	.st95{fill:#B7252C;}
	.st96{fill:#46670C;}
	.st97{fill:#F49D5B;}
	.st98{fill:#F57A55;}
	.st99{fill:#F1C3A7;}
	.st100{fill:#CC0917;}
	.st101{fill:#DC1035;}
	.st102{fill:#9BAC0F;}
	.st103{fill:#667A1D;}
	.st104{fill:#7A9D18;}
	.st105{fill:#F6F7E6;}
	.st106{fill:#F0194D;}
	.st107{fill:#362420;}
	.st108{fill:#530618;}
	.st109{fill:#44041A;}
	.st110{fill:#490419;}
	.st111{fill:#F8A459;}
	.st112{fill:#871B22;}
	.st113{fill:#600613;}
	.st114{fill:#F8C790;}
	.st115{fill:#447832;}
	.st116{fill:#7C473D;}
	.st117{fill:#441432;}
	.st118{fill:#51163F;}
	.st119{fill:#5B1A41;}
	.st120{fill:#FCEBF9;}
	.st121{fill:#ECE5CE;}
	.st122{fill:#BC3E2C;}
	.st123{fill:#A60F26;}
	.st124{fill:#C61632;}
	.st125{fill:#BD1331;}
	.st126{fill:#F8B772;}
	.st127{fill:#F7DDAC;}
	.st128{fill:#850E11;}
	.st129{fill:#191200;}
	.st130{fill:#553D2D;}
	.st131{fill:#F9E2D2;}
	.st132{fill:#CA8937;}
	.st133{fill:#462D16;}
	.st134{fill:#6D8916;}
	.st135{fill:#96B54E;}
	.st136{fill:#E3E2DE;}
	.st137{fill:#261811;}
	.st138{fill:#525C11;}
	.st139{fill:#14581E;}
	.st140{fill:#3D7712;}
	.st141{fill:#9BC148;}
	.st142{fill:#E22434;}
	.st143{fill:#C6DD9E;}
	.st144{fill:#F89A07;}
	.st145{fill:#F7A410;}
	.st146{fill:#F8AB19;}
	.st147{fill:#F7B81C;}
	.st148{fill:#E5870A;}
	.st149{fill:#97A304;}
	.st150{fill:#A88C5C;}
	.st151{fill:#ADC21E;}
	.st152{fill:#A3BA0B;}
	.st153{fill:#8D9E08;}
	.st154{fill:#E0DAB9;}
	.st155{fill:#684219;}
	.st156{fill:#777F05;}
	.st157{fill:#F2E9C4;}
	.st158{fill:#CBB465;}
	.st159{fill:#FFF5CA;}
	.st160{fill:#E52828;}
	.st161{fill:#F87302;}
	.st162{fill:#FF7B22;}
	.st163{fill:#FC7F10;}
	.st164{fill:#F8A200;}
	.st165{fill:#F8DC91;}
	.st166{fill:#FFFFFF;}
	.st167{fill:#F5D7D5;}
	.st168{fill:#EDA07A;}
	.st169{fill:#FCBEBE;}
	.st170{fill:#EAD991;}
	.st171{fill:#582612;}
</style>
<g id="_x33_0_Mulberry"/>
<g id="_x32_9_Star_Fruit"/>
<g id="_x32_8_Apricot"/>
<g id="_x32_7_Litchi">
<g id="XMLID_2133_">
<g id="XMLID_2137_">
<g id="XMLID_2141_">
<path class="st13" d="M37.191,11.002c-3.521,5.101-3.954,11.062-1.786,16.25      c6.281-0.77,12.125-3.902,15.646-9.002S55.006,7.188,52.837,2C46.557,2.77,40.712,5.902,37.191,11.002z" id="XMLID_2143_"/>
<path class="st14" d="M35.872,35.748c-0.001,0-0.003,0-0.005,0c-1.104-0.003-1.998-0.9-1.995-2.005l0.006-2.713      c0-4.699-2.53-9.053-6.767-11.64c-0.942-0.576-1.24-1.807-0.665-2.749c0.576-0.943,1.807-1.239,2.75-0.665      c5.437,3.319,8.682,8.949,8.682,15.059l-0.006,2.718C37.87,34.855,36.975,35.748,35.872,35.748z"/>
</g>
<path class="st22" d="M69.328,58.783l-0.271-0.423c-1.687-2.636-3.45-4.271-6.47-4.539     c-1.074-3.743-2.911-7.163-5.344-10.077c2.378-2.276,2.476-4.596,1.855-7.926l-0.492-0.108c-3.513-0.775-6.093-0.625-8.463,1.969     c-4.172-2.494-9.053-3.93-14.271-3.93c-5.541,0-10.699,1.623-15.034,4.408c-2.284-2.41-4.643-2.529-8.012-1.904l-0.109,0.49     c-0.699,3.149-0.838,5.342,1.242,7.679c-2.447,3.125-4.235,6.784-5.159,10.775C6.1,55.58,3.609,57.061,2,59.398l0.271,0.423     c1.391,2.174,3.537,3.669,5.941,4.277c0.464,4.866,2.192,9.361,4.852,13.164c-0.906,1.863-1.232,4.002-0.834,6.134l0.492,0.108     c1.972,0.435,3.974,0.25,5.772-0.452c4.065,3.252,9.064,5.394,14.536,5.948c0.73,1.641,1.905,3.093,3.46,4.156l0.425-0.27     c1.624-1.032,2.864-2.483,3.646-4.143c5.253-0.89,10.003-3.245,13.811-6.634c1.879,0.919,4.041,1.252,6.197,0.852l0.109-0.49     c0.525-2.365,0.148-4.772-0.949-6.816c2.25-3.745,3.639-8.062,3.891-12.681C66.297,62.578,67.73,61.103,69.328,58.783z" id="XMLID_2144_"/>
<path class="st23" d="M26.59,35.351c-2.034,0.721-3.966,1.658-5.752,2.805c-2.284-2.41-4.643-2.529-8.012-1.904     l-0.109,0.49c-0.699,3.149-0.838,5.342,1.242,7.679c-2.447,3.125-4.235,6.784-5.159,10.775C6.1,55.58,3.609,57.061,2,59.398     l0.271,0.423c1.391,2.174,3.537,3.669,5.941,4.277c0.464,4.866,2.192,9.361,4.852,13.164c-0.906,1.863-1.232,4.002-0.834,6.134     l0.492,0.108c1.972,0.435,3.974,0.25,5.772-0.452c2.76,2.208,5.957,3.888,9.434,4.922C15.196,64.345,23.96,40.537,26.59,35.351z" id="XMLID_2154_"/>
<path class="st24" d="M22.407,37.224c-0.533,0.295-1.058,0.605-1.569,0.933     c-2.284-2.41-4.643-2.529-8.012-1.904l-0.109,0.49c-0.699,3.149-0.838,5.342,1.242,7.679c-2.447,3.125-4.235,6.784-5.159,10.775     C6.1,55.58,3.609,57.061,2,59.398l0.271,0.423c1.391,2.174,3.537,3.669,5.941,4.277c0.464,4.866,2.192,9.361,4.852,13.164     c-0.906,1.863-1.232,4.002-0.834,6.134l0.492,0.108c1.972,0.435,3.974,0.25,5.772-0.452c2.284,1.827,4.869,3.287,7.66,4.328     C7.454,67.694,16.467,46.763,22.407,37.224z" id="XMLID_2152_"/>
<g id="XMLID_2138_">
<path class="st25" d="M23.41,76.46c-0.27,0-0.53-0.05-0.77-0.15c-0.24-0.1-0.46-0.25-0.65-0.439      c-0.18-0.181-0.33-0.4-0.43-0.641c-0.1-0.25-0.15-0.5-0.15-0.77c0-0.53,0.21-1.04,0.58-1.41c0.47-0.47,1.16-0.69,1.81-0.55      c0.13,0.02,0.25,0.06,0.37,0.109c0.12,0.051,0.24,0.12,0.35,0.19c0.11,0.07,0.21,0.15,0.3,0.25c0.37,0.37,0.59,0.88,0.59,1.41      s-0.21,1.03-0.59,1.41S23.94,76.46,23.41,76.46z"/>
<path class="st25" d="M19.657,70.979c-0.88,0-1.687-0.586-1.929-1.477c-1.326-4.881-1.326-10.039,0-14.92      c0.29-1.065,1.387-1.694,2.455-1.405c1.066,0.289,1.695,1.388,1.406,2.454c-1.14,4.194-1.14,8.628,0,12.822      c0.29,1.066-0.34,2.165-1.406,2.454C20.006,70.956,19.83,70.979,19.657,70.979z"/>
</g>
</g>
<g id="XMLID_2134_">
<ellipse class="st26" cx="89.556" cy="83.127" id="XMLID_2136_" rx="18.923" ry="19.924"/>
<path class="st24" d="M53.112,89.979l0.126,0.196c1.501,2.337,3.817,3.943,6.411,4.596     c0.501,5.229,2.366,10.061,5.236,14.147c-0.978,2.002-1.329,4.301-0.9,6.592l0.531,0.117c2.128,0.467,4.289,0.268,6.229-0.486     c4.387,3.495,9.781,5.797,15.686,6.392c0.787,1.764,2.055,3.324,3.734,4.467l0.458-0.29c1.752-1.109,3.09-2.668,3.935-4.453     c5.668-0.956,10.794-3.487,14.904-7.129c2.027,0.987,4.361,1.345,6.687,0.916l0.117-0.527c0.566-2.542,0.16-5.129-1.024-7.325     c2.428-4.024,3.927-8.664,4.199-13.628c2.517-0.371,4.858-1.621,6.56-3.584H53.112z" id="XMLID_2135_"/>
<path class="st23" d="M67.461,89.979H53.112l0.126,0.196c1.501,2.337,3.817,3.943,6.411,4.596     c0.501,5.229,2.366,10.061,5.236,14.147c-0.978,2.002-1.33,4.301-0.9,6.592l0.531,0.117c2.128,0.467,4.289,0.268,6.229-0.486     c3.108,2.476,6.727,4.336,10.669,5.432C70.348,112.105,67.971,96.203,67.461,89.979z" id="XMLID_1609_"/>
</g>
</g>
</g>
<g id="_x32_6_Kiwi"/>
<g id="_x32_5_Jackfruit"/>
<g id="_x32_4_Avacado"/>
<g id="_x32_3_Blueberry"/>
<g id="_x32_2_Purple_Grapes"/>
<g id="_x32_1_Melon"/>
<g id="_x32_0_Green_Grapes"/>
<g id="_x31_9_Papaya"/>
<g id="_x31_8_Pineapple"/>
<g id="_x31_7_Banana"/>
<g id="_x31_6_Tender_Coconut"/>
<g id="_x31_5_Strawberry"/>
<g id="_x31_4_Dragon_Fruit"/>
<g id="_x31_3_Plum"/>
<g id="_x31_2_Fig"/>
<g id="_x31_1_Peach"/>
<g id="_x31_0_Cherry"/>
<g id="_x30_9_Sapota"/>
<g id="_x30_8_Custard_Apple"/>
<g id="_x30_7_Watermelon"/>
<g id="_x30_6_Mango"/>
<g id="_x30_5_Pear"/>
<g id="_x30_4_Guava"/>
<g id="_x30_3_Pomegranate"/>
<g id="_x30_2_Orange"/>
<g id="_x30_1_Apple"/>
</svg>