<?xml version="1.0" encoding="utf-8"?>
<!-- Uploaded to: SVG Repo, www.svgrepo.com, Generator: SVG Repo Mixer Tools -->
<svg width="800px" height="800px" viewBox="-3.84 0 50.112 50.112" xmlns="http://www.w3.org/2000/svg">
  <g id="Group_1628" data-name="Group 1628" transform="translate(3428.414 -2466.81)">
    <path id="Path_3651" data-name="Path 3651" d="M-3389.691,2491.264a15.427,15.427,0,0,1-19.162,10.432,15.429,15.429,0,0,1-10.432-19.163,15.427,15.427,0,0,1,19.162-10.432,15.426,15.426,0,0,1,10.432,19.163" fill="#ffffff" fill-rule="evenodd"/>
    <path id="Path_3652" data-name="Path 3652" d="M-3386.619,2494.336a15.427,15.427,0,0,1-19.162,10.432,15.428,15.428,0,0,1-10.432-19.163,15.429,15.429,0,0,1,19.162-10.433,15.428,15.428,0,0,1,10.432,19.164" fill="#cd1876" fill-rule="evenodd"/>
    <path id="Path_3653" data-name="Path 3653" d="M-3400.02,2472.718a.98.98,0,0,1-.273-.039.961.961,0,0,1-.65-1.192,16.439,16.439,0,0,1,2.068-4.249.961.961,0,0,1,1.332-.267.96.96,0,0,1,.267,1.331,14.461,14.461,0,0,0-1.825,3.728.959.959,0,0,1-.919.688" fill="#6f0911" fill-rule="evenodd"/>
    <path id="Path_3654" data-name="Path 3654" d="M-3402.39,2503.147a.959.959,0,0,1-.95-.829.961.961,0,0,1,.819-1.083,14.5,14.5,0,0,0,11.91-10.243,14.378,14.378,0,0,0-1.169-11.011,14.377,14.377,0,0,0-8.615-6.959,14.483,14.483,0,0,0-17.969,9.782,14.494,14.494,0,0,0,.563,9.762.957.957,0,0,1-.5,1.259.957.957,0,0,1-1.26-.506,16.421,16.421,0,0,1-.64-11.058,16.408,16.408,0,0,1,20.354-11.081,16.277,16.277,0,0,1,9.757,7.882,16.28,16.28,0,0,1,1.326,12.473,16.424,16.424,0,0,1-13.489,11.6.982.982,0,0,1-.132.01" fill="#6f0911" fill-rule="evenodd"/>
    <path id="Path_3655" data-name="Path 3655" d="M-3403.3,2496.242c-1.308-3.3-7.725-3.859-14.331-1.241s-10.9,7.416-9.592,10.719h0a12.865,12.865,0,0,0,16.7,7.223,12.867,12.867,0,0,0,7.223-16.7" fill="#ffffff" fill-rule="evenodd"/>
    <path id="Path_3656" data-name="Path 3656" d="M-3400.226,2499.314c-1.308-3.3-7.725-3.859-14.331-1.241s-10.9,7.416-9.592,10.718h0a12.865,12.865,0,0,0,16.7,7.222,12.865,12.865,0,0,0,7.223-16.7" fill="#cd1876" fill-rule="evenodd"/>
    <path id="Path_3657" data-name="Path 3657" d="M-3427.221,2505.72c1.308,3.3,7.726,3.86,14.331,1.242s10.9-7.417,9.592-10.72-7.725-3.859-14.331-1.241-10.9,7.416-9.592,10.719" fill="#ffffff" fill-rule="evenodd"/>
    <path id="Path_3658" data-name="Path 3658" d="M-3423.823,2509.253a11.923,11.923,0,0,0,12.949,2.8,11.926,11.926,0,0,0,7.52-10.924c-1.682,2.557-4.959,5.055-9.181,6.728a21.8,21.8,0,0,1-9.59,1.664A12.026,12.026,0,0,1-3423.823,2509.253Zm8.581,5.555a13.852,13.852,0,0,1-12.869-8.728l0-.006a.961.961,0,0,1,.539-1.247.962.962,0,0,1,1.245.539h0c.486,1.225,2.078,2.041,4.37,2.238a19.773,19.773,0,0,0,8.715-1.535c6.62-2.623,10.025-7.013,9.055-9.471v0a.96.96,0,0,1,.539-1.246.962.962,0,0,1,1.246.539h0a13.843,13.843,0,0,1-7.761,17.947,13.769,13.769,0,0,1-5.076.972" fill="#6f0911" fill-rule="evenodd"/>
    <path id="Path_3659" data-name="Path 3659" d="M-3403.3,2497.2a.959.959,0,0,1-.893-.607c-.548-1.383-2.52-2.237-5.273-2.282a.959.959,0,0,1-.944-.975.96.96,0,0,1,.96-.945h.016c3.608.059,6.169,1.333,7.026,3.5a.96.96,0,0,1-.539,1.246.954.954,0,0,1-.353.067" fill="#6f0911" fill-rule="evenodd"/>
    <path id="Path_3660" data-name="Path 3660" d="M-3427.221,2506.68a.96.96,0,0,1-.892-.606c-.857-2.163.136-4.844,2.725-7.359a.96.96,0,0,1,1.357.019.959.959,0,0,1-.019,1.358c-1.976,1.919-2.827,3.89-2.278,5.273a.961.961,0,0,1-.539,1.247.961.961,0,0,1-.354.068" fill="#6f0911" fill-rule="evenodd"/>
    <path id="Path_3661" data-name="Path 3661" d="M-3415.632,2508.831a.954.954,0,0,1-.663-.266,16.54,16.54,0,0,1-3.583-5.279.96.96,0,0,1,.49-1.265.961.961,0,0,1,1.266.492,14.626,14.626,0,0,0,3.153,4.664.959.959,0,0,1,.031,1.356.953.953,0,0,1-.694.3" fill="#6f0911" fill-rule="evenodd"/>
    <path id="Path_3662" data-name="Path 3662" d="M-3424.23,2505.5a.962.962,0,0,1-.894-.608q-.1-.253-.184-.513a11.725,11.725,0,0,1,1.7-10.166,5.779,5.779,0,0,1,4.763-2.29,5.735,5.735,0,0,1,4.932-1.606,11.583,11.583,0,0,1,8.19,6.028c.124.244.235.488.331.733a.96.96,0,0,1-.54,1.246.96.96,0,0,1-1.245-.541c-.076-.19-.161-.379-.257-.567a9.676,9.676,0,0,0-6.71-4.993,3.857,3.857,0,0,0-3.583,1.315.945.945,0,0,1-.827.327,3.859,3.859,0,0,0-3.562,1.558,9.78,9.78,0,0,0-1.359,8.366c.042.138.09.269.141.4a.96.96,0,0,1-.541,1.246.969.969,0,0,1-.351.067" fill="#6f0911" fill-rule="evenodd"/>
    <path id="Path_3663" data-name="Path 3663" d="M-3411.049,2501.285a.96.96,0,0,1-.914-.668c-1.017-3.176-2.869-5.864-4.61-6.687a1.86,1.86,0,0,0-1.532-.131.96.96,0,0,1-1.245-.539.959.959,0,0,1,.539-1.246,3.774,3.774,0,0,1,3.06.179c2.225,1.054,4.429,4.13,5.617,7.84a.961.961,0,0,1-.622,1.207.986.986,0,0,1-.293.045" fill="#6f0911" fill-rule="evenodd"/>
    <path id="Path_3664" data-name="Path 3664" d="M-3420.3,2499.417a.96.96,0,0,1-.949-.832c-.463-3.379.425-5.774,2.436-6.571a.961.961,0,0,1,1.245.54.959.959,0,0,1-.538,1.245c-1.106.438-1.568,2.131-1.241,4.527a.961.961,0,0,1-.821,1.081.959.959,0,0,1-.132.01" fill="#6f0911" fill-rule="evenodd"/>
    <path id="Path_3665" data-name="Path 3665" d="M-3400.01,2475.582c-.864,2.928-4.214,4.52-7.483,3.556s-5.218-4.12-4.354-7.048,4.214-4.521,7.482-3.557,5.219,4.12,4.355,7.049" fill="#ffffff" fill-rule="evenodd"/>
    <path id="Path_3666" data-name="Path 3666" d="M-3390.268,2478.455c-.864,2.928-4.214,4.521-7.483,3.557s-5.219-4.121-4.356-7.049,4.215-4.52,7.484-3.556,5.219,4.12,4.355,7.048" fill="#ffffff" fill-rule="evenodd"/>
    <path id="Path_3667" data-name="Path 3667" d="M-3396.777,2478.479a5.289,5.289,0,0,1-6.373,3.884,5.289,5.289,0,0,1-3.245-6.721,5.292,5.292,0,0,1,6.374-3.884,5.29,5.29,0,0,1,3.244,6.721" fill="#ffffff" fill-rule="evenodd"/>
    <path id="Path_3668" data-name="Path 3668" d="M-3396.938,2478.654c-.864,2.928-4.214,4.52-7.483,3.556s-5.218-4.12-4.354-7.048,4.214-4.521,7.482-3.557,5.219,4.12,4.355,7.049" fill="#5db67d" fill-rule="evenodd"/>
    <path id="Path_3669" data-name="Path 3669" d="M-3387.2,2481.527c-.864,2.928-4.214,4.521-7.483,3.557s-5.219-4.121-4.355-7.049,4.214-4.52,7.483-3.556,5.219,4.119,4.355,7.048" fill="#5db67d" fill-rule="evenodd"/>
    <path id="Path_3670" data-name="Path 3670" d="M-3393.705,2481.551a5.289,5.289,0,0,1-6.373,3.884,5.29,5.29,0,0,1-3.245-6.721,5.291,5.291,0,0,1,6.374-3.884,5.29,5.29,0,0,1,3.244,6.721" fill="#5db67d" fill-rule="evenodd"/>
    <path id="Path_3671" data-name="Path 3671" d="M-3406.525,2480.309a.983.983,0,0,1-.14-.009,8.12,8.12,0,0,1-1.1-.241c-3.77-1.113-6.016-4.81-5-8.241s4.9-5.32,8.676-4.205a7.515,7.515,0,0,1,4.126,2.976.96.96,0,0,1-.26,1.332.963.963,0,0,1-1.334-.26,5.587,5.587,0,0,0-3.075-2.207c-2.755-.814-5.579.491-6.291,2.907s.95,5.044,3.706,5.856a5.928,5.928,0,0,0,.833.183.961.961,0,0,1,.813,1.088.961.961,0,0,1-.95.821" fill="#6f0911" fill-rule="evenodd"/>
    <path id="Path_3672" data-name="Path 3672" d="M-3395.814,2483.254a7.77,7.77,0,0,1-2.208-.322,7.781,7.781,0,0,1-1.313-.518.959.959,0,0,1-.426-1.289.958.958,0,0,1,1.288-.426,5.869,5.869,0,0,0,.992.391,5.563,5.563,0,0,0,3.961-.263,4.277,4.277,0,0,0,2.331-2.644,4.278,4.278,0,0,0-.523-3.484,5.554,5.554,0,0,0-3.183-2.372,5.636,5.636,0,0,0-3.421.046.959.959,0,0,1-1.218-.6.959.959,0,0,1,.6-1.219,7.534,7.534,0,0,1,4.586-.072,7.471,7.471,0,0,1,4.272,3.206,6.163,6.163,0,0,1,.732,5.035,6.171,6.171,0,0,1-3.348,3.835,7.277,7.277,0,0,1-3.119.693" fill="#6f0911" fill-rule="evenodd"/>
    <path id="Path_3673" data-name="Path 3673" d="M-3401.324,2472.53a3.958,3.958,0,0,0-2.056.6,4.835,4.835,0,0,0-2.094,2.787,4.337,4.337,0,0,0,2.6,5.527,3.805,3.805,0,0,0,3.087-.448,4.826,4.826,0,0,0,2.094-2.785,4.834,4.834,0,0,0-.246-3.476,3.806,3.806,0,0,0-2.35-2.053A3.627,3.627,0,0,0-3401.324,2472.53Zm-.518,10.983a5.537,5.537,0,0,1-1.579-.23,6.254,6.254,0,0,1-3.9-7.912,6.749,6.749,0,0,1,2.936-3.883,5.708,5.708,0,0,1,4.63-.651,5.707,5.707,0,0,1,3.536,3.06,6.754,6.754,0,0,1,.359,4.854,6.753,6.753,0,0,1-2.936,3.882,5.856,5.856,0,0,1-3.051.88" fill="#6f0911" fill-rule="evenodd"/>
  </g>
</svg>