<?xml version="1.0" encoding="utf-8"?>
<!-- Uploaded to: SVG Repo, www.svgrepo.com, Generator: SVG Repo Mixer Tools -->
<!DOCTYPE svg PUBLIC "-//W3C//DTD SVG 1.1//EN" "http://www.w3.org/Graphics/SVG/1.1/DTD/svg11.dtd">
<svg xmlns="http://www.w3.org/2000/svg" xmlns:xlink="http://www.w3.org/1999/xlink" version="1.1" id="Layer_1"  width="512" height="512" viewBox="0 0 512 512" enable-background="new 0 0 512 512" xml:space="preserve">
<g id="milk_1">
	<g>
		<path fill="#4FC0E8" d="M384.001,56.34c0,5.523-4.469,10-10,10H138.014c-5.523,0-10-4.476-10-10V10.005c0-5.516,4.477-10,10-10    h235.987c5.531,0,10,4.484,10,10V56.34z"/>
	</g>
	<g>
		<path fill="#3BAED9" d="M384.001,42.676l42.656,95.998v363.321c0,5.531-4.469,10-10,10h-235.98c-5.523,0-10-4.469-10-10V138.674    l-42.663-95.998H384.001z"/>
	</g>
	<path fill="#3BAED9" d="M170.677,10.677c5.891,0,10.664-4.781,10.664-10.672h-21.327C160.014,5.896,164.787,10.677,170.677,10.677z   "/>
	<path fill="#3BAED9" d="M213.341,10.677c5.89,0,10.671-4.781,10.671-10.672h-21.335C202.677,5.896,207.45,10.677,213.341,10.677z"/>
	<path fill="#3BAED9" d="M256.012,10.677c5.891,0,10.664-4.781,10.664-10.672H245.34C245.34,5.896,250.121,10.677,256.012,10.677z"/>
	<path fill="#3BAED9" d="M298.659,10.677c5.906,0,10.688-4.781,10.688-10.672h-21.344C288.003,5.896,292.784,10.677,298.659,10.677z   "/>
	<path fill="#3BAED9" d="M341.347,10.677c5.874,0,10.655-4.781,10.655-10.672h-21.343C330.659,5.896,335.44,10.677,341.347,10.677z"/>
	<g>
		<path fill="#4FC0E8" d="M128.014,42.676l-42.671,95.998v363.321c0,5.531,4.477,10,10,10h236.004c5.5,0,10-4.469,10-10V138.674    l42.654-95.998H128.014z"/>
	</g>
	<polygon opacity="0.1" points="128.014,42.676 85.343,138.674 341.347,138.674 384.001,42.676  "/>
	<g>
		<path fill="#E5E8EC" d="M266.676,96.011c0,17.672-14.328,31.999-32,31.999c-17.671,0-31.999-14.327-31.999-31.999    c0-17.68,14.328-32.007,31.999-32.007C252.348,64.003,266.676,78.331,266.676,96.011z"/>
	</g>
	<path fill="#CBD0D8" d="M234.676,128.01c3.68,0,7.211-0.632,10.508-1.781c-0.852-5.039-5.227-8.891-10.508-8.891   c-5.289,0-9.664,3.852-10.508,8.891C227.457,127.377,230.996,128.01,234.676,128.01z"/>
	<path fill="#CBD0D8" d="M234.676,64.003c-3.68,0-7.219,0.633-10.508,1.781c0.844,5.039,5.219,8.891,10.508,8.891   c5.281,0,9.656-3.852,10.508-8.891C241.887,64.636,238.355,64.003,234.676,64.003z"/>
	<path fill="#CBD0D8" d="M262.387,112.011c1.844-3.195,3.062-6.57,3.719-9.992c-4.789-1.789-10.312,0.078-12.953,4.656   c-2.648,4.578-1.5,10.289,2.445,13.546C258.23,117.94,260.543,115.198,262.387,112.011z"/>
	<path fill="#CBD0D8" d="M206.966,80.003c-1.844,3.195-3.062,6.57-3.719,9.992c4.789,1.789,10.312-0.078,12.953-4.656   c2.64-4.578,1.499-10.289-2.445-13.546C211.114,74.074,208.802,76.815,206.966,80.003z"/>
	<path fill="#CBD0D8" d="M262.387,80.003c-1.844-3.188-4.148-5.929-6.789-8.21c-3.945,3.258-5.094,8.968-2.445,13.546   c2.641,4.578,8.164,6.445,12.953,4.656C265.449,86.573,264.23,83.198,262.387,80.003z"/>
	<path fill="#CBD0D8" d="M206.966,112.011c1.836,3.188,4.148,5.929,6.789,8.21c3.944-3.258,5.085-8.968,2.445-13.546   c-2.641-4.578-8.164-6.445-12.953-4.656C203.903,105.44,205.122,108.815,206.966,112.011z"/>
	<polygon opacity="0.1" points="384.001,42.676 341.347,138.674 426.657,138.674  "/>
	<path fill="#E5E8EC" d="M341.347,235.516c-3.375,0.461-6.531,1.102-9.281,1.938l-25.938,7.844   c-6.125,1.852-14.188,2.781-22.281,2.781c-8.062,0-16.155-0.93-22.288-2.781l-25.906-7.844c-6.133-1.852-14.211-2.781-22.296-2.781   c-8.078,0-16.156,0.93-22.289,2.781l-25.913,7.844c-6.125,1.852-14.211,2.781-22.289,2.781s-16.164-0.93-22.289-2.781   l-25.913-7.844c-2.766-0.836-5.938-1.484-9.32-1.945v155.036c0.727,0.156,1.359,0.328,1.891,0.484l25.906,7.844   c10.593,3.188,22.015,3.875,29.726,3.875s19.133-0.688,29.726-3.875l25.906-7.844c2.695-0.812,8.016-1.687,14.859-1.687   c6.851,0,12.171,0.875,14.866,1.687l25.906,7.844c10.594,3.188,21.999,3.875,29.718,3.875s19.125-0.688,29.719-3.875l25.906-7.844   c0.531-0.156,1.156-0.312,1.875-0.469V235.516z"/>
	<path fill="#4FC0E8" d="M277.347,309.343H149.342c-5.891,0-10.664,4.781-10.664,10.655c0,5.906,4.773,10.672,10.664,10.672h128.005   c5.875,0,10.656-4.766,10.656-10.672C288.003,314.124,283.222,309.343,277.347,309.343z"/>
</g>
</svg>