<?xml version="1.0" encoding="iso-8859-1"?>
<!-- Uploaded to: SVG Repo, www.svgrepo.com, Generator: SVG Repo Mixer Tools -->
<svg height="800px" width="800px" version="1.1" id="Layer_1" xmlns="http://www.w3.org/2000/svg" xmlns:xlink="http://www.w3.org/1999/xlink" 
	 viewBox="0 0 511.999 511.999" xml:space="preserve">
<path style="fill:#B27214;" d="M414.031,201.193c37.973,20.375,63.102,53.64,63.102,81.854c0,34.659-37.905,51.423-90.962,57.068
	c-14.661,1.554-30.477,2.263-46.978,2.263c-16.49,0-32.305-0.708-46.967-2.263c-53.057-5.645-90.962-22.409-90.962-57.068
	c0-13.519,5.771-28.203,15.964-42.064c23.129-31.494,69.067-58.794,121.964-58.794C366.779,182.189,392.479,189.617,414.031,201.193
	z"/>
<path style="fill:#995C0D;" d="M341.934,340.115c-53.057-5.645-90.962-22.409-90.962-57.068c0-13.519,5.771-28.203,15.964-42.064
	c19.42-26.443,54.921-49.92,97.118-56.775c-8.064-1.311-16.372-2.019-24.859-2.019c-52.897,0-98.835,27.3-121.964,58.794
	c-10.193,13.861-15.964,28.546-15.964,42.064c0,34.659,37.905,51.423,90.962,57.068c14.661,1.554,30.477,2.263,46.966,2.263
	c8.491,0,16.795-0.191,24.858-0.585C356.445,341.421,349.052,340.869,341.934,340.115z"/>
<path style="fill:#B27214;" d="M435.492,155.037c0,18.867-7.736,34.076-21.461,46.155c-21.552-11.576-47.252-19.004-74.838-19.004
	c-52.897,0-98.835,27.3-121.964,58.794c-17.575-0.4-34.488-1.406-50.452-3.108c-76.952-8.205-131.906-32.545-131.906-82.837
	c0-64.233,89.682-146.465,200.31-146.465S435.492,90.804,435.492,155.037z"/>
<path style="fill:#995C0D;" d="M98.291,155.037c0-57.968,73.043-130.583,168.601-144.201c-10.329-1.472-20.918-2.264-31.71-2.264
	c-110.628,0-200.31,82.231-200.31,146.465c0,50.292,54.954,74.632,131.906,82.837c15.964,1.703,32.877,2.708,50.452,3.108
	c1.047-1.425,2.155-2.837,3.295-4.243C148.682,227.554,98.291,203.195,98.291,155.037z"/>
<path style="fill:#F9DCB2;" d="M339.194,503.424c-27.414,0-49.789-19.667-54.703-45.104c-0.663-3.405-1.006-6.925-1.006-10.513
	c0-2.068,0.114-4.171,0.354-6.285l5.417-65.742l2.754-33.448l0.217-2.217c14.661,1.554,30.477,2.263,46.966,2.263
	c16.501,0,32.317-0.708,46.978-2.263l0.217,2.217l2.754,33.448l5.405,65.742C398.25,474.535,372.413,503.424,339.194,503.424z"/>
<g>
	<path style="fill:#DDBB8E;" d="M317.058,458.32c-0.663-3.405-1.006-6.925-1.006-10.513c0-2.068,0.114-4.171,0.354-6.285
		l5.417-65.742l2.754-33.448l0.015-0.157c-11.242-0.306-22.091-0.971-32.365-2.06l-0.217,2.217l-2.754,33.448l-5.417,65.742
		c-0.24,2.114-0.354,4.217-0.354,6.285c0,3.588,0.343,7.108,1.006,10.513c4.914,25.437,27.289,45.104,54.703,45.104
		c5.678,0,11.134-0.862,16.27-2.427C335.819,495.004,320.952,478.48,317.058,458.32z"/>
	<path style="fill:#DDBB8E;" d="M389.143,375.78c-0.983,0.114-1.977,0.229-2.971,0.331c-14.661,1.554-30.477,2.263-46.978,2.263
		c-16.49,0-32.305-0.708-46.967-2.263c-0.994-0.103-1.988-0.217-2.971-0.331l2.754-33.448l0.217-2.217
		c14.661,1.554,30.477,2.263,46.967,2.263c16.501,0,32.317-0.708,46.978-2.263l0.217,2.217L389.143,375.78z"/>
</g>
<path style="fill:#F9DCB2;" d="M283.839,441.522c-0.24,2.114-0.354,4.217-0.354,6.285c0,3.588,0.343,7.108,1.006,10.513
	c-13.587,10.479-30.648,16.764-49.309,16.764c-45.15,0-80.906-36.739-80.906-80.757c0-3.017,0.171-6.068,0.514-9.142l8.776-106.526
	l3.085-37.527l0.126-3.257c15.964,1.703,32.877,2.708,50.452,3.108c-9.828,13.359-15.541,27.483-15.941,40.59
	c-0.011,0.491-0.023,0.983-0.023,1.474c0,34.659,37.905,51.423,90.962,57.068l-0.217,2.217L283.839,441.522z"/>
<g>
	<path style="fill:#DDBB8E;" d="M191.985,394.327c0-3.017,0.171-6.068,0.514-9.142l8.776-106.526l3.085-37.527l0.022-0.557
		c-12.992-0.53-25.569-1.417-37.604-2.7l-0.126,3.257l-3.085,37.527l-8.776,106.526c-0.343,3.074-0.514,6.125-0.514,9.142
		c0,44.018,35.756,80.757,80.906,80.757c6.511,0,12.823-0.782,18.864-2.223C218.188,464.323,191.985,432.003,191.985,394.327z"/>
	<path style="fill:#DDBB8E;" d="M217.229,240.983c-9.828,13.359-15.541,27.483-15.941,40.59c-11.896-0.537-23.438-1.383-34.511-2.56
		c-1.074-0.114-2.148-0.229-3.211-0.354l3.085-37.527l0.126-3.257C182.743,239.577,199.654,240.583,217.229,240.983z"/>
</g>
<g>
	<path style="fill:#FFFFFF;" d="M406.921,163.606c-4.733,0-8.571-3.837-8.571-8.571c0-19.764-17.895-47.154-44.528-68.159
		c-24.384-19.229-55.144-32.849-86.617-38.35c-4.662-0.815-7.782-5.255-6.967-9.918c0.816-4.662,5.255-7.782,9.919-6.966
		c34.718,6.069,67.32,20.514,94.279,41.776c31.493,24.835,51.055,56.11,51.055,81.618
		C415.492,159.768,411.655,163.606,406.921,163.606z"/>
	<path style="fill:#FFFFFF;" d="M448.56,291.619c-4.733,0-8.571-3.837-8.571-8.571c0-6.892-6.992-22.659-26.258-37.852
		c-20.842-16.436-48.01-25.862-74.535-25.862c-4.733,0-8.571-3.837-8.571-8.571s3.837-8.571,8.571-8.571
		c30.304,0,61.34,10.768,85.149,29.544c19.916,15.706,32.784,35.847,32.784,51.311C457.131,287.781,453.294,291.619,448.56,291.619z
		"/>
	<circle style="fill:#FFFFFF;" cx="235.186" cy="37.141" r="8.571"/>
</g>
<path style="fill:#333333;" d="M442.036,209.305c-4.545-3.584-9.268-6.917-14.144-9.99c10.736-12.617,16.167-27.465,16.167-44.28
	c0-34.569-23.153-73.467-61.933-104.05C340.437,18.107,288.249,0,235.179,0S129.922,18.107,88.231,50.986
	c-38.78,30.583-61.933,69.481-61.933,104.05c0,32.306,19.559,56.796,58.136,72.791c19.576,8.118,44.098,14.007,73.261,17.626
	L146.256,384.36c-0.367,3.332-0.552,6.684-0.552,9.965c0,49.255,40.139,89.328,89.476,89.328c15.853,0,31.014-4.065,44.468-11.818
	c2.752,6.802,6.652,13.159,11.64,18.736c12.178,13.618,29.64,21.429,47.909,21.429c18.269,0,35.732-7.811,47.909-21.429
	c12.15-13.586,17.968-31.757,15.977-49.869l-7.661-93.069c17.157-2.274,31.974-5.71,44.3-10.304
	c38.001-14.162,45.977-37.334,45.977-54.28C485.699,258.433,469.378,230.865,442.036,209.305z M43.439,155.035
	c0-28.926,21.231-63.638,55.406-90.59c38.682-30.504,87.098-47.304,136.334-47.304s97.654,16.799,136.334,47.304
	c34.176,26.953,55.406,61.664,55.406,90.59c0,13.867-4.716,25.598-14.371,35.708c-22.714-11.16-47.886-17.118-73.351-17.118
	c-37.14,0-73.663,12.672-102.84,35.681c-9.025,7.117-16.841,14.891-23.273,22.994c-52.112-1.491-93.173-8.317-122.087-20.306
	C58.997,198.723,43.439,180.092,43.439,155.035z M235.179,466.511c-39.886,0-72.335-32.383-72.335-72.187
	c0-2.69,0.155-5.447,0.461-8.192c0.009-0.081,0.017-0.163,0.024-0.246l11.415-138.625c8.732,0.779,17.823,1.378,27.281,1.792
	c-6.055,11.389-9.329,22.987-9.329,33.996c0,30.702,25.002,46.464,45.977,54.28c12.327,4.594,27.143,8.03,44.3,10.304l-7.661,93.069
	c-0.504,4.579-0.504,9.162-0.033,13.674C263.42,462.322,249.66,466.511,235.179,466.511z M386.012,442.229
	c0.007,0.083,0.015,0.167,0.024,0.251c1.491,13.314-2.776,26.677-11.705,36.664c-8.931,9.986-21.736,15.714-35.132,15.714
	c-13.396,0-26.202-5.727-35.132-15.714c-8.929-9.986-13.196-23.351-11.705-36.664c0.009-0.083,0.018-0.167,0.024-0.251l7.638-92.79
	c12.102,0.994,25.156,1.504,39.174,1.504s27.074-0.51,39.174-1.504L386.012,442.229z M339.198,333.803
	c-48.313,0-129.361-6.594-129.361-50.755c0-19.12,14.229-42.22,37.136-60.284c26.165-20.634,58.92-31.998,92.226-31.998
	s66.059,11.363,92.226,31.998c22.906,18.064,37.136,41.164,37.136,60.284C468.558,327.209,387.511,333.803,339.198,333.803z"/>
</svg>