<?xml version="1.0" encoding="iso-8859-1"?>
<!-- Uploaded to: SVG Repo, www.svgrepo.com, Generator: SVG Repo Mixer Tools -->
<svg height="800px" width="800px" version="1.1" id="Layer_1" xmlns="http://www.w3.org/2000/svg" xmlns:xlink="http://www.w3.org/1999/xlink"
	 viewBox="0 0 512 512" xml:space="preserve">
<g>
	<polygon style="fill:#CFF09E;" points="273.955,72.184 273.955,13.851 215.32,13.851 215.32,58.175 	"/>
	<path style="fill:#CFF09E;" d="M128.131,338.863c-0.709,6.73-1.105,13.549-1.105,20.43c0,49.309,9.676,79.569,31.245,97.303
		h175.512c21.567-17.744,31.238-48.009,31.238-97.303c0-6.881-0.396-13.7-1.105-20.43H128.131z"/>
</g>
<path style="fill:#507C5C;" d="M356.788,200.196c-5.409,5.409-5.409,14.179,0,19.589c2.705,2.704,6.25,4.057,9.794,4.057
	s7.089-1.353,9.794-4.057c4.283-4.284,8.045-9.053,11.178-14.176c18.477-30.192,13.88-68.778-11.178-93.836
	c-14.426-14.426-33.607-22.369-54.006-22.369c-11.182,0-21.99,2.4-31.856,6.934c0.003-7.708,0.508-14.672,1.535-20.807
	c0.794-4.745-0.939-9.349-4.243-12.424V13.851C287.806,6.202,281.603,0,273.955,0H215.32c-7.648,0-13.851,6.202-13.851,13.851
	v26.774l-0.903-0.216c-5.331-1.277-10.902,0.713-14.226,5.064s-3.773,10.251-1.145,15.055l17.035,31.137
	c3.364,30.67-10.575,75.608-10.687,75.965c-14.284,44.378-36.229,70.404-38.686,73.226c-0.091,0.105-0.183,0.213-0.271,0.321
	c-23.968,29.296-38.144,69.985-39.32,112.389c-0.006,0.199-0.012,0.399-0.018,0.598c-0.043,1.706-0.071,3.417-0.071,5.129
	c0,6.756,0.175,13.189,0.53,19.314c2.387,41.151,12.915,68.375,33.184,86.466v33.076c0,7.648,6.202,13.851,13.851,13.851h85.282
	c7.648,0,13.851-6.202,13.851-13.851c0-7.648-6.202-13.851-13.851-13.851h-71.431v-13.851h142.864v13.851h-12.556
	c-7.648,0-13.851,6.202-13.851,13.851c0,7.648,6.202,13.851,13.851,13.851h26.407c7.648,0,13.851-6.202,13.851-13.851v-33.071
	c1.42-1.266,2.795-2.575,4.121-3.934c20.402-20.927,29.594-52.875,29.594-101.852c0-1.713-0.029-3.424-0.072-5.133
	c-0.006-0.19-0.012-0.378-0.017-0.569c-1.172-42.399-15.345-83.093-39.31-112.402c-0.093-0.115-0.19-0.229-0.288-0.341
	c-1.519-1.741-15.207-17.798-27.907-45.402c-3.198-6.953-11.427-9.984-18.373-6.794c-6.95,3.198-9.991,11.424-6.794,18.373
	c13.789,29.968,28.77,48.075,32.046,51.857c14.56,17.866,24.797,40.953,29.709,66.131H144.183
	c4.912-25.188,15.153-48.277,29.719-66.142c4.97-5.744,28.526-34.644,44.038-82.842c0.65-2.061,15.826-50.88,11.826-87.373
	c-0.223-2.242-0.942-6.421-3.259-10.327l-2.036-3.725l38.76,9.261c-0.812,11.6-0.446,24.746,1.096,39.258
	c0.809,7.607,7.629,13.124,15.239,12.309c3.42-0.364,6.407-1.949,8.597-4.267c9.169-9.065,21.303-14.057,34.208-14.057
	c13.002,0,25.225,5.063,34.418,14.257c15.973,15.97,18.908,40.556,7.137,59.789C361.929,194.412,359.527,197.458,356.788,200.196z
	 M351.039,352.714c0.087,2.222,0.13,4.417,0.13,6.579c0,41.985-7.029,68.047-22.682,83.452H163.564
	c-15.654-15.398-22.686-41.463-22.686-83.452c0-2.2,0.05-4.392,0.13-6.579H351.039z M229.171,27.702h30.933v26.932l-30.933-7.391
	L229.171,27.702L229.171,27.702z"/>

	<g id="color" transform="translate(200, 200) scale(4)">
	<ellipse cx="35.9765" cy="36.145" rx="23.0446" ry="16.612" transform="translate(-15.0211 36.0258) rotate(-45)" fill="#b1cc33"/>
	<path fill="#5c9e31" d="M56.13,29.3742a28.57,28.57,0,0,1-7.4245,12.3719c-8.9995,9-21.6825,10.9075-28.3283,4.2617a13.7083,13.7083,0,0,1-3.8294-8.1371S12.6819,57.8985,30.999,56c0,0,18.0091-.288,24.7458-22.73Z"/>
	<path fill="#a57939" d="M47.9736,31.77a8.3972,8.3972,0,0,1-5.6728-2.6855c-2.8477-2.8477-3.5332-6.6221-1.5606-8.5948a4.3884,4.3884,0,0,1,4.1865-.9775,9.1721,9.1721,0,0,1,4.4092,2.5371h0c2.8477,2.8477,3.5332,6.6231,1.5606,8.5957A4.03,4.03,0,0,1,47.9736,31.77Z"/>
  </g>
  <g id="line" transform="translate(200, 200) scale(4)">
	<ellipse cx="35.9765" cy="36.145" rx="23.0446" ry="16.612" transform="translate(-15.0211 36.0258) rotate(-45)" fill="none" stroke="#000000" stroke-miterlimit="10" stroke-width="2"/>
	<path fill="none" stroke="#000000" stroke-linecap="round" stroke-miterlimit="10" stroke-width="2" d="M50.2559,29.9382c-1.5521,1.5521-4.7673.8535-7.1813-1.56s-3.1127-5.6292-1.56-7.1814,4.7673-.8535,7.1813,1.56a8.2239,8.2239,0,0,1,2.2534,3.85"/>
  </g>
</svg>
