<?xml version="1.0" encoding="utf-8"?>
<!-- Uploaded to: SVG Repo, www.svgrepo.com, Generator: SVG Repo Mixer Tools -->
<svg width="800px" height="800px" viewBox="0 0 1024 1024" class="icon"  version="1.1" xmlns="http://www.w3.org/2000/svg"><path d="M622.954667 384.874667c5.184-36.885333 18.005333-66.282667 33.088-93.461334a356.885333 356.885333 0 0 1 54.677333-72.298666 350.656 350.656 0 0 1 71.061333-56.256C808.618667 147.2 837.802667 133.845333 874.666667 128c-5.098667 36.949333-17.877333 66.410667-32.981334 93.568a350.656 350.656 0 0 1-54.784 72.192 356.970667 356.970667 0 0 1-71.168 56.170667c-26.858667 15.616-56.021333 29.013333-92.778666 34.944z" fill="#8BC34A" /><path d="M917.333333 277.333333c-22.826667 29.589333-48.618667 48.96-75.285333 65.258667a361.557333 361.557333 0 0 1-83.712 36.181333 354.56 354.56 0 0 1-90.048 14.165334c-31.253333 0.469333-63.424-2.218667-98.538667-15.189334 22.784-29.738667 48.554667-49.130667 75.242667-65.386666a354.688 354.688 0 0 1 83.754667-36.032 360.853333 360.853333 0 0 1 90.090666-14.016c31.253333-0.490667 63.381333 2.154667 98.496 15.018666z" fill="#7CB342" /><path d="M630.101333 438.08c-13.397333-35.157333-16.512-67.541333-16.533333-99.093333 0.384-31.445333 4.821333-61.781333 12.693333-91.178667a361.514667 361.514667 0 0 1 34.794667-85.226667C676.885333 135.338667 695.936 108.928 725.333333 85.333333c13.525333 35.178667 16.682667 67.584 16.682667 99.114667a362.026667 362.026667 0 0 1-12.842667 91.136 366.677333 366.677333 0 0 1-34.944 85.184c-15.872 27.264-34.858667 53.696-64.128 77.312z" fill="#7CB342" /><path d="M917.333333 405.333333c-31.530667 20.288-62.421333 29.930667-93.12 36.394667-30.677333 6.037333-61.098667 7.893333-91.328 6.186667a357.632 357.632 0 0 1-90.005333-16.704c-29.76-9.962667-59.285333-23.210667-88.213333-47.189334 31.530667-20.416 62.421333-30.122667 93.12-36.522666 30.677333-6.037333 61.12-7.893333 91.328-6.037334 30.229333 1.834667 60.224 7.253333 90.005333 16.832 29.738667 10.005333 59.306667 23.210667 88.213333 47.04z" fill="#558B2F" /><path d="M618.666667 85.354667c20.266667 29.824 29.909333 58.986667 36.373333 87.936 6.037333 28.928 7.893333 57.6 6.165333 86.058666a317.994667 317.994667 0 0 1-16.682666 84.629334c-9.984 27.946667-23.232 55.658667-47.189334 82.709333-20.416-29.824-30.101333-58.986667-36.522666-87.957333-6.016-28.928-7.893333-57.6-6.016-86.037334 1.834667-28.437333 7.253333-56.661333 16.832-84.608 10.005333-27.946667 23.210667-55.658667 47.04-82.730666z" fill="#558B2F" /><path d="M625.344 740.629333c50.858667-50.858667 79.232-124.16 80-198.677333 0.405333-38.677333-27.84-118.677333-60.437333-152.618667l-15.146667-15.146666-19.072-19.072s-51.584-55.872-144.021333-55.872c-76.138667 0-151.616 27.562667-203.370667 79.36L186.026667 455.850667c-102.4 102.4-104.384 266.474667-4.416 366.464 99.989333 99.968 264.064 97.984 366.464-4.416l77.269333-77.269334z" fill="#F9A825" /><path d="M470.954667 871.424h0.085333a264.149333 264.149333 0 0 0 58.325333-36.608 353.728 353.728 0 0 0-52.16-6.378667c-1.237333-24.64-5.568-65.002667-19.861333-94.272 33.728 1.408 77.269333 8.448 91.456 22.677334 7.765333 7.744 13.333333 24.362667 17.066667 43.264l35.52-35.52a140.394667 140.394667 0 0 0-6.805334-16.810667c6.997333 0.32 14.442667 0.896 21.909334 1.706667l8.853333-8.853334c9.237333-9.258667 17.685333-19.242667 25.408-29.866666a359.402667 359.402667 0 0 0-49.92-5.930667c-1.258667-24.64-5.589333-65.002667-19.882667-94.272 33.749333 1.429333 77.248 8.448 91.456 22.656 4.181333 4.202667 7.658667 11.093333 10.624 19.328a300.501333 300.501333 0 0 0 15.530667-175.978667c-15.893333-53.866667-68.821333-102.357333-68.821333-102.357333 11.157333 11.157333 17.834667 40.533333 20.885333 68.992-26.474667-8.789333-56.981333-11.882667-77.056-12.864-0.981333-20.074667-4.053333-50.602667-12.864-77.056 28.458667 3.072 57.834667 9.728 69.013333 20.906667 0 0-41.301333-54.634667-100.693333-67.776a303.253333 303.253333 0 0 0-177.216 14.592c8.042667 2.944 14.741333 6.4 18.858667 10.474666 14.208 14.208 21.248 57.749333 22.677333 91.477334-29.248-14.272-69.632-18.624-94.250667-19.861334a361.792 361.792 0 0 0-5.952-49.877333c-10.624 7.68-20.650667 16.128-29.866666 25.365333l-8.853334 8.832c0.810667 7.488 1.386667 14.912 1.685334 21.909334a133.952 133.952 0 0 0-16.789334-6.805334l-35.52 35.52c18.922667 3.733333 35.52 9.301333 43.285334 17.066667 14.186667 14.208 21.226667 57.728 22.656 91.456-29.269333-14.293333-69.632-18.624-94.272-19.861333a351.210667 351.210667 0 0 0-6.4-52.16c-15.04 18.133333-27.093333 37.781333-36.586667 58.325333v0.064a261.546667 261.546667 0 0 0-15.125333 41.365333c2.261333 1.386667 4.522667 2.816 6.101333 4.394667 14.208 14.208 21.226667 57.728 22.656 91.456-11.370667-5.525333-24.426667-9.472-37.568-12.416 0.896 15.765333 3.242667 31.424 7.04 46.784 9.258667 3.136 16.938667 6.890667 21.482667 11.413333 12.650667 12.650667 19.584 48.448 21.952 80 6.912 9.109333 14.272 18.026667 22.570666 26.325334 8.32 8.298667 17.237333 15.637333 26.325334 22.570666 31.552 2.368 67.349333 9.322667 80 21.952 4.544 4.544 8.277333 12.224 11.434666 21.482667 15.36 3.797333 30.997333 6.144 46.762667 7.04-2.944-13.141333-6.890667-26.197333-12.416-37.568 33.728 1.408 77.248 8.448 91.456 22.656 1.578667 1.578667 3.008 3.84 4.394667 6.101333 14.08-3.84 27.925333-8.874667 41.386666-15.104l0.021334 0.042667z m86.890666-160.277333c-29.248-14.293333-69.610667-18.709333-94.250666-19.968-1.258667-24.64-5.674667-65.002667-19.989334-94.250667 33.770667 1.386667 77.376 8.426667 91.584 22.656 14.229333 14.208 21.269333 57.792 22.656 91.562667z m-137.216-13.610667c-29.269333-14.314667-69.610667-18.730667-94.272-19.968-1.237333-24.661333-5.653333-65.002667-19.968-94.272 33.749333 1.408 77.354667 8.448 91.562667 22.677333 14.229333 14.208 21.248 57.792 22.677333 91.562667z m238.208-201.578667c14.186667 14.208 21.226667 57.728 22.656 91.456-29.269333-14.293333-69.632-18.602667-94.250666-19.861333-1.237333-24.618667-5.589333-64.981333-19.861334-94.250667 33.728 1.429333 77.248 8.448 91.456 22.656z m-114.602666 77.952c-29.248-14.314667-69.589333-18.730667-94.229334-19.989333-1.258667-24.64-5.696-64.96-19.989333-94.229333 33.770667 1.386667 77.354667 8.448 91.562667 22.656s21.248 57.792 22.656 91.562666z m-127.829334-251.456c33.749333 1.386667 77.333333 8.448 91.562667 22.634667l0.042667 0.042667c14.186667 14.229333 21.226667 57.813333 22.634666 91.562666-29.248-14.314667-69.589333-18.709333-94.250666-19.989333-1.258667-24.64-5.696-64.981333-19.989334-94.250667z m-123.52 123.648c33.749333 1.386667 77.290667 8.426667 91.477334 22.634667 14.208 14.208 21.226667 57.728 22.656 91.456-29.248-14.293333-69.632-18.602667-94.250667-19.861333-1.258667-24.618667-5.589333-65.002667-19.882667-94.229334z m-123.605333 123.605334c33.749333 1.386667 77.269333 8.448 91.477333 22.656 14.186667 14.208 21.226667 57.706667 22.634667 91.477333-29.248-14.314667-69.632-18.645333-94.229333-19.882667-1.258667-24.618667-5.610667-65.002667-19.882667-94.250666z m33.472 231.488c-1.258667-24.661333-5.674667-64.981333-19.989333-94.250667 33.770667 1.408 77.354667 8.448 91.584 22.656 14.208 14.229333 21.248 57.813333 22.656 91.605333-29.269333-14.357333-69.589333-18.773333-94.250667-20.010666z m137.237333 13.589333c-1.258667-24.64-5.653333-64.981333-19.989333-94.229333 33.770667 1.386667 77.376 8.426667 91.584 22.634666 14.229333 14.250667 21.248 57.813333 22.656 91.605334-29.269333-14.336-69.589333-18.730667-94.250667-20.010667z" fill="#C68632" /></svg>