<?xml version="1.0" encoding="iso-8859-1"?>
<!-- Uploaded to: SVG Repo, www.svgrepo.com, Generator: SVG Repo Mixer Tools -->
<svg height="800px" width="800px" version="1.1" id="Layer_1" xmlns="http://www.w3.org/2000/svg" xmlns:xlink="http://www.w3.org/1999/xlink" 
	 viewBox="0 0 511.988 511.988" xml:space="preserve">
<path style="fill:#FFE7B0;" d="M255.994,501.332c-42.124,0-79.811-5.279-112.014-15.686c-29.999-9.688-55.482-23.906-75.748-42.25
	C30.577,409.271,10.67,360.304,10.67,301.775c0-22.688,4.938-46.688,14.703-71.375c9.5-24.015,23.046-47.452,40.265-69.654
	c17.234-22.25,37.14-41.921,59.14-58.499c22.702-17.109,46.483-30,70.686-38.312l7.203-2.469V21.343h85.326V56.17l8.25,1.922
	c51.046,11.859,103.169,46.046,142.997,93.811c39.452,47.296,62.076,101.92,62.076,149.873c0,58.529-19.906,107.496-57.561,141.621
	c-20.266,18.344-45.75,32.562-75.749,42.25C335.805,496.053,298.117,501.332,255.994,501.332z"/>
<path style="fill:#ED5564;" d="M159.996,159.996c-11.781,0-21.328,9.562-21.328,21.343s9.547,21.328,21.328,21.328
	s21.328-9.547,21.328-21.328S171.777,159.996,159.996,159.996z"/>
<g>
	<path style="fill:#DA4453;" d="M117.325,159.996c-11.781,0-21.328,9.562-21.328,21.343s9.547,21.328,21.328,21.328
		s21.343-9.547,21.343-21.328C138.668,169.558,129.106,159.996,117.325,159.996z"/>
	<path style="fill:#DA4453;" d="M138.668,202.667c-11.78,0-21.343,9.546-21.343,21.327c0,11.781,9.562,21.344,21.343,21.344
		s21.328-9.562,21.328-21.344C159.996,212.214,150.449,202.667,138.668,202.667z"/>
</g>
<g>
	<path style="fill:#ED5564;" d="M95.997,202.667c-11.78,0-21.327,9.546-21.327,21.327c0,11.781,9.547,21.344,21.327,21.344
		c11.781,0,21.328-9.562,21.328-21.344C117.325,212.214,107.778,202.667,95.997,202.667z"/>
	<path style="fill:#ED5564;" d="M181.324,202.667c-11.781,0-21.328,9.546-21.328,21.327c0,11.781,9.547,21.344,21.328,21.344
		c11.78,0,21.343-9.562,21.343-21.344C202.667,212.214,193.104,202.667,181.324,202.667z"/>
	<path style="fill:#ED5564;" d="M330.664,223.994c-11.781,0-21.344,9.562-21.344,21.344c0,11.781,9.562,21.328,21.344,21.328
		s21.328-9.547,21.328-21.328C351.992,233.557,342.445,223.994,330.664,223.994z"/>
</g>
<path style="fill:#DA4453;" d="M373.319,223.994c-11.78,0-21.327,9.562-21.327,21.344c0,11.781,9.547,21.328,21.327,21.328
	c11.781,0,21.343-9.547,21.343-21.328C394.662,233.557,385.1,223.994,373.319,223.994z"/>
<path style="fill:#ED5564;" d="M415.99,223.994c-11.781,0-21.328,9.562-21.328,21.344c0,11.781,9.547,21.328,21.328,21.328
	s21.328-9.547,21.328-21.328C437.318,233.557,427.771,223.994,415.99,223.994z"/>
<path style="fill:#DA4453;" d="M394.662,181.339c-11.78,0-21.343,9.547-21.343,21.328s9.562,21.327,21.343,21.327
	c11.781,0,21.328-9.546,21.328-21.327C415.99,190.886,406.443,181.339,394.662,181.339z"/>
<path style="fill:#ED5564;" d="M373.319,138.668c-11.78,0-21.327,9.547-21.327,21.328s9.547,21.343,21.327,21.343
	c11.797,0,21.343-9.562,21.343-21.343S385.116,138.668,373.319,138.668z"/>
<path style="fill:#DA4453;" d="M330.664,138.668c-11.781,0-21.344,9.547-21.344,21.328s9.562,21.343,21.344,21.343
	s21.328-9.562,21.328-21.343C351.992,148.215,342.445,138.668,330.664,138.668z"/>
<path style="fill:#ED5564;" d="M309.32,95.997c-11.781,0-21.327,9.562-21.327,21.344c0,11.78,9.546,21.327,21.327,21.327
	c11.797,0,21.344-9.547,21.344-21.327C330.664,105.56,321.117,95.997,309.32,95.997z"/>
<path style="fill:#DA4453;" d="M266.666,95.997c-11.781,0-21.344,9.562-21.344,21.344c0,11.78,9.562,21.327,21.344,21.327
	c11.78,0,21.327-9.547,21.327-21.327C287.993,105.56,278.446,95.997,266.666,95.997z"/>
<g>
	<path style="fill:#ED5564;" d="M287.993,138.668c-11.781,0-21.327,9.547-21.327,21.328s9.546,21.343,21.327,21.343
		c11.78,0,21.327-9.562,21.327-21.343S299.773,138.668,287.993,138.668z"/>
	<circle style="fill:#ED5564;" cx="351.994" cy="202.664" r="21.328"/>
</g>
<g>
	<path style="fill:#DA4453;" d="M309.32,181.339c-11.781,0-21.327,9.547-21.327,21.328s9.546,21.327,21.327,21.327
		s21.344-9.546,21.344-21.327C330.664,190.886,321.101,181.339,309.32,181.339z"/>
	<path style="fill:#DA4453;" d="M138.668,287.994c-11.78,0-21.343,9.562-21.343,21.344c0,11.779,9.562,21.342,21.343,21.342
		s21.328-9.562,21.328-21.342C159.996,297.556,150.449,287.994,138.668,287.994z"/>
</g>
<path style="fill:#ED5564;" d="M95.997,287.994c-11.78,0-21.327,9.562-21.327,21.344c0,11.779,9.547,21.342,21.327,21.342
	c11.781,0,21.328-9.562,21.328-21.342C117.325,297.556,107.778,287.994,95.997,287.994z"/>
<path style="fill:#DA4453;" d="M74.67,330.68c-11.781,0-21.344,9.531-21.344,21.312s9.562,21.344,21.344,21.344
	s21.327-9.562,21.327-21.344S86.451,330.68,74.67,330.68z"/>
<g>
	<path style="fill:#ED5564;" d="M117.325,330.68c-11.781,0-21.328,9.531-21.328,21.312s9.547,21.344,21.328,21.344
		s21.343-9.562,21.343-21.344S129.106,330.68,117.325,330.68z"/>
	<path style="fill:#ED5564;" d="M159.996,330.68c-11.781,0-21.328,9.531-21.328,21.312s9.547,21.344,21.328,21.344
		s21.328-9.562,21.328-21.344S171.777,330.68,159.996,330.68z"/>
</g>
<path style="fill:#DA4453;" d="M202.667,330.68c-11.781,0-21.343,9.531-21.343,21.312s9.562,21.344,21.343,21.344
	s21.328-9.562,21.328-21.344S214.448,330.68,202.667,330.68z"/>
<path style="fill:#ED5564;" d="M181.324,372.711c-11.781,0-21.328,9.531-21.328,21.312s9.547,21.342,21.328,21.342
	c11.78,0,21.343-9.561,21.343-21.342S193.104,372.711,181.324,372.711z"/>
<path style="fill:#DA4453;" d="M138.668,372.711c-11.78,0-21.343,9.531-21.343,21.312s9.562,21.342,21.343,21.342
	s21.328-9.561,21.328-21.342S150.449,372.711,138.668,372.711z"/>
<g>
	<path style="fill:#ED5564;" d="M159.996,415.99c-11.781,0-21.328,9.562-21.328,21.344s9.547,21.344,21.328,21.344
		s21.328-9.562,21.328-21.344S171.777,415.99,159.996,415.99z"/>
	<path style="fill:#ED5564;" d="M95.997,372.711c-11.78,0-21.327,9.531-21.327,21.312s9.547,21.342,21.327,21.342
		c11.781,0,21.328-9.561,21.328-21.342S107.778,372.711,95.997,372.711z"/>
</g>
<path style="fill:#DA4453;" d="M181.324,287.994c-11.781,0-21.328,9.562-21.328,21.344c0,11.779,9.547,21.342,21.328,21.342
	c11.78,0,21.343-9.562,21.343-21.342C202.667,297.556,193.104,287.994,181.324,287.994z"/>
<path style="fill:#ED5564;" d="M223.995,287.994c-11.781,0-21.328,9.562-21.328,21.344c0,11.779,9.547,21.342,21.328,21.342
	c11.78,0,21.327-9.562,21.327-21.342C245.322,297.556,235.775,287.994,223.995,287.994z"/>
<path style="fill:#DA4453;" d="M309.32,415.99c-11.781,0-21.327,9.562-21.327,21.344s9.546,21.344,21.327,21.344
	s21.344-9.562,21.344-21.344S321.101,415.99,309.32,415.99z"/>
<path style="fill:#ED5564;" d="M351.992,415.99c-11.781,0-21.328,9.562-21.328,21.344s9.547,21.344,21.328,21.344
	s21.327-9.562,21.327-21.344S363.773,415.99,351.992,415.99z"/>
<path style="fill:#DA4453;" d="M373.319,373.336c-11.78,0-21.327,9.562-21.327,21.344s9.547,21.311,21.327,21.311
	c11.781,0,21.343-9.529,21.343-21.311S385.1,373.336,373.319,373.336z"/>
<g>
	<path style="fill:#ED5564;" d="M415.99,372.711c-11.781,0-21.328,9.531-21.328,21.312s9.547,21.342,21.328,21.342
		s21.328-9.561,21.328-21.342S427.771,372.711,415.99,372.711z"/>
	<path style="fill:#ED5564;" d="M394.662,330.68c-11.78,0-21.343,9.531-21.343,21.312s9.562,21.344,21.343,21.344
		c11.781,0,21.328-9.562,21.328-21.344S406.443,330.68,394.662,330.68z"/>
</g>
<path style="fill:#DA4453;" d="M351.992,330.68c-11.781,0-21.328,9.531-21.328,21.312s9.547,21.344,21.328,21.344
	s21.327-9.562,21.327-21.344S363.773,330.68,351.992,330.68z"/>
<path style="fill:#ED5564;" d="M330.664,373.336c-11.781,0-21.344,9.562-21.344,21.344s9.562,21.311,21.344,21.311
	s21.328-9.529,21.328-21.311S342.445,373.336,330.664,373.336z"/>
<path style="fill:#DA4453;" d="M202.667,245.338c-11.781,0-21.343,9.546-21.343,21.328c0,11.782,9.562,21.328,21.343,21.328
	s21.328-9.547,21.328-21.328S214.448,245.338,202.667,245.338z"/>
<g>
	<circle style="fill:#ED5564;" cx="159.994" cy="266.664" r="21.328"/>
	<path style="fill:#ED5564;" d="M117.325,245.338c-11.781,0-21.328,9.546-21.328,21.328c0,11.782,9.547,21.328,21.328,21.328
		s21.343-9.547,21.343-21.328S129.106,245.338,117.325,245.338z"/>
</g>
<path style="fill:#DA4453;" d="M74.67,245.338c-11.781,0-21.344,9.546-21.344,21.328c0,11.782,9.563,21.328,21.344,21.328
	s21.327-9.547,21.327-21.328S86.451,245.338,74.67,245.338z"/>
<path style="opacity:0.1;enable-background:new    ;" d="M430.099,296.494c-48.874-25.188-110.451-7.219-137.935,3.203
	c-0.234-3.469-0.547-6.938-0.969-10.391c-7.672-62.437-44.921-109.795-72.264-139.982c-30.656-33.812-33.406-75.827-33.422-76.249
	l-21.312,1.156c0.109,2.016,3.016,49.796,38.921,89.42c25.391,28.031,59.968,71.827,66.89,128.264
	c3.5,28.451-0.312,58.139-11.344,88.201c-12.781,34.873-35.624,71.404-67.874,108.592l16.125,13.998
	c33.952-39.154,58.093-77.936,71.779-115.246c8-21.812,12.562-43.5,13.656-64.844c18.39-7.688,81.857-30.92,127.981-7.156
	c26.109,13.438,42.843,40.5,49.718,80.375l21.03-3.625C483.004,345.398,462.489,313.18,430.099,296.494z"/>
<path style="fill:#ED5564;" d="M298.664,47.702v-37.03c0-5.891-4.78-10.672-10.671-10.672s-10.672,4.781-10.672,10.672h-21.327
	C255.994,4.781,251.213,0,245.322,0s-10.656,4.781-10.656,10.672h-21.343C213.323,4.781,208.557,0,202.667,0
	s-10.672,4.781-10.672,10.672v43.171C88.545,89.388,0,203.277,0,301.775c0,118.403,77.514,210.213,255.994,210.213
	s255.994-91.811,255.994-210.213C511.988,196.574,410.959,73.795,298.664,47.702z M436.599,435.49
	c-19.141,17.312-43.328,30.781-71.873,40c-31.141,10.062-67.718,15.188-108.732,15.188s-77.592-5.125-108.732-15.188
	c-28.546-9.219-52.733-22.688-71.873-40c-17.906-16.219-31.593-35.998-40.671-58.811c-8.875-22.312-13.391-47.5-13.391-74.904
	c0-21.328,4.703-44.031,13.969-67.453c9.125-23.078,22.171-45.64,38.765-67.045c16.672-21.5,35.89-40.499,57.14-56.514
	c21.812-16.438,44.593-28.796,67.732-36.734c0,0-31.015,10.468,13.703-4.718c44.718-15.188,84.576,0,84.576,0
	c47.749,12.046,96.341,44.468,133.841,89.42c37.874,45.405,59.607,97.544,59.607,143.044c0,27.404-4.516,52.592-13.39,74.904
	C468.192,399.492,454.506,419.271,436.599,435.49z"/>
</svg>