<?xml version="1.0" encoding="iso-8859-1"?>
<!-- Uploaded to: SVG Repo, www.svgrepo.com, Generator: SVG Repo Mixer Tools -->
<svg height="800px" width="800px" version="1.1" id="Layer_1" xmlns="http://www.w3.org/2000/svg" xmlns:xlink="http://www.w3.org/1999/xlink" 
	 viewBox="0 0 512 512" xml:space="preserve">
<path style="fill:#9AD14B;" d="M312.484,54.019c-13.683,14.744-22.857,31.658-27.378,49.344l1.688,2.713
	c-0.711,0.482-1.411,0.977-2.11,1.495l-1.447,0.663c-8.813-9.994-18.505-15.516-28.668-15.516c-7.945,0-15.6,3.376-22.761,9.608
	l-1.857-2.785c5.63-26.92,18.903-52.804,39.615-75.107C283.888,34.296,298.186,44.158,312.484,54.019z"/>
<g>
	<path style="fill:#E09B2D;" d="M136.846,454.796c-8.439,3.822-17.312,5.871-26.462,5.871c-55.962,0-101.34-76.36-101.34-170.527
		c0-94.179,45.377-170.527,101.34-170.527c9.15,0,18.023,2.049,26.462,5.871c-28.186,34.672-46.848,95.468-46.848,164.656
		S108.66,420.112,136.846,454.796z"/>
	<path style="fill:#E09B2D;" d="M191.337,94.888c12.478,0,24.449,4.352,35.468,12.321c-26.92,29.38-45.908,100.218-45.908,182.932
		s18.988,153.553,45.908,182.932c-11.019,7.969-22.99,12.309-35.468,12.309c-20.049,0-38.747-11.212-54.491-30.585
		c-28.186-34.684-46.848-95.469-46.848-164.656s18.662-129.984,46.848-164.656C152.59,106.112,171.289,94.888,191.337,94.888z"/>
</g>
<g>
	<path style="fill:#F7B239;" d="M401.611,119.614c55.974,0,101.352,76.348,101.352,170.527c0,94.167-45.377,170.527-101.352,170.527
		c-9.15,0-18.023-2.049-26.462-5.871c28.186-34.684,46.86-95.469,46.86-164.656s-18.674-129.984-46.86-164.656
		C383.588,121.663,392.461,119.614,401.611,119.614z"/>
	<path style="fill:#F7B239;" d="M375.149,125.485c28.186,34.672,46.86,95.469,46.86,164.656s-18.674,129.972-46.86,164.656
		c-15.733,19.373-34.443,30.585-54.491,30.585c-12.67,0-24.798-4.473-35.974-12.67l-1.447-0.663
		c26.438-29.97,44.992-100.134,44.992-181.907s-18.554-151.937-44.992-181.907l1.447-0.663c0.699-0.518,1.398-1.013,2.11-1.495
		c10.585-7.245,21.989-11.188,33.864-11.188C340.706,94.888,359.417,106.112,375.149,125.485z"/>
	<path style="fill:#F7B239;" d="M226.805,107.209c1.64-1.784,3.303-3.412,5.003-4.883c7.161-6.233,14.816-9.608,22.761-9.608
		c10.163,0,19.856,5.521,28.668,15.516c26.438,29.97,44.992,100.134,44.992,181.907s-18.554,151.937-44.992,181.907
		c-8.813,9.994-18.505,15.516-28.668,15.516c-9.813,0-19.193-5.148-27.764-14.491c-26.92-29.38-45.908-100.218-45.908-182.932
		S199.885,136.588,226.805,107.209z"/>
</g>
<g>
	<path style="fill:#FFFFFF;" d="M298.09,299.181c-4.995,0-9.042-4.048-9.042-9.042c0-46.666-9.373-126.719-35.198-155.993
		c-1.94-2.2-3.093-2.946-3.263-3.051c-4.446-2.175-6.321-7.53-4.187-12.009c2.147-4.508,7.543-6.423,12.051-4.274
		c1.935,0.922,5.061,2.95,8.962,7.374c19.769,22.409,39.718,83.034,39.718,167.953C307.132,295.133,303.084,299.181,298.09,299.181z
		 M250.675,131.139h0.012H250.675z"/>
	<path style="fill:#FFFFFF;" d="M391.871,299.181c-4.995,0-9.042-4.048-9.042-9.042c0-57.423-14.592-111.044-38.081-139.941
		c-3.905-4.809-7.852-8.641-11.735-11.399c-4.074-2.89-5.032-8.534-2.141-12.607c2.889-4.071,8.532-5.031,12.605-2.141
		c5.223,3.706,10.373,8.666,15.306,14.743c25.986,31.965,42.13,89.958,42.13,151.343
		C400.912,295.133,396.865,299.181,391.871,299.181z"/>
	<path style="fill:#FFFFFF;" d="M471.133,328.504c-0.351,0-0.705-0.02-1.062-0.061c-4.96-0.58-8.511-5.072-7.93-10.032
		c1.089-9.309,1.641-18.821,1.641-28.272c0-38.048-8.816-74.7-24.186-100.563c-2.551-4.293-1.139-9.841,3.153-12.392
		c4.294-2.55,9.84-1.14,12.392,3.154c16.984,28.575,26.724,68.597,26.724,109.801c0,10.15-0.593,20.368-1.764,30.373
		C479.563,325.115,475.656,328.504,471.133,328.504z"/>
	<circle style="fill:#FFFFFF;" cx="429.94" cy="162.8" r="9.042"/>
</g>
<path style="fill:#333333;" d="M481.046,164.942c-20.837-35.061-49.048-54.371-79.436-54.371c-8.035,0-16.012,1.401-23.8,4.133
	c-17.061-18.901-36.707-28.854-57.151-28.854c-7.165,0-14.214,1.208-21.099,3.606c4.743-10.508,11.346-20.443,19.553-29.295
	c1.784-1.925,2.644-4.529,2.357-7.138c-0.288-2.609-1.695-4.965-3.855-6.453c-14.302-9.86-28.604-19.718-42.922-29.578
	c-3.695-2.545-8.699-1.993-11.753,1.292c-20.303,21.858-34.38,47.833-40.913,75.348c-9.878-5.162-20.157-7.781-30.688-7.781
	c-20.444,0-40.091,9.954-57.151,28.854c-7.788-2.732-15.764-4.133-23.799-4.133c-30.389,0-58.599,19.309-79.437,54.371
	C10.992,198.528,0,242.99,0,290.138s10.992,91.611,30.953,125.197c20.838,35.061,49.048,54.371,79.437,54.371
	c8.035,0,16.011-1.401,23.799-4.133c17.061,18.901,36.708,28.854,57.151,28.854c11.857,0,23.395-3.315,34.402-9.851
	c9.002,7.901,18.71,12.028,28.825,12.028c10.55,0,20.66-4.485,29.985-13.066c11.518,7.226,23.637,10.89,36.109,10.89
	c20.444,0,40.09-9.954,57.151-28.854c7.788,2.732,15.764,4.133,23.799,4.133c30.387,0,58.598-19.309,79.436-54.371
	C501.008,381.75,512,337.288,512,290.14S501.008,198.529,481.046,164.942z M271.029,36.423c9.358,6.446,18.712,12.892,28.062,19.34
	c-8.813,11.154-15.616,23.511-20.068,36.445c-7.747-5.614-15.958-8.533-24.456-8.533c-3.867,0-7.676,0.612-11.408,1.797
	C249.079,67.912,258.517,51.259,271.029,36.423z M46.499,406.097c-18.323-30.832-28.415-72.013-28.415-115.958
	s10.092-85.126,28.415-115.958c17.448-29.358,40.138-45.526,63.891-45.526c3.968,0,7.931,0.467,11.864,1.376
	c-26.017,38.372-41.303,97.006-41.303,160.108s15.287,121.738,41.303,160.108c-3.933,0.908-7.896,1.376-11.863,1.376
	C86.637,451.622,63.945,435.454,46.499,406.097z M143.867,449.089c-28.074-34.539-44.834-93.96-44.834-158.951
	s16.76-124.412,44.835-158.953c10.099-12.433,26.532-27.252,47.47-27.252c7.455,0,14.84,1.886,22.055,5.597
	c-7.175,9.942-13.707,22.625-19.387,37.849c-14.281,38.274-22.146,88.974-22.146,142.759s7.865,104.486,22.146,142.76
	c5.681,15.223,12.21,27.905,19.387,37.847c-7.213,3.712-14.598,5.597-22.053,5.597C170.401,476.344,153.968,461.524,143.867,449.089
	z M254.567,478.521c-15.176,0-31.481-19.418-43.617-51.943c-13.546-36.302-21.006-84.757-21.006-136.438
	c0-111.015,34.057-188.381,64.623-188.381c15.176,0,31.482,19.418,43.617,51.943c13.546,36.303,21.006,84.757,21.006,136.438
	C319.19,401.155,285.132,478.521,254.567,478.521z M320.66,476.344c-8.171,0-16.258-2.263-24.128-6.719
	c6.864-9.77,13.124-22.065,18.595-36.726c14.281-38.274,22.146-88.974,22.146-142.76s-7.865-104.485-22.146-142.759
	c-5.471-14.661-11.731-26.956-18.596-36.727c7.87-4.456,15.957-6.719,24.129-6.719c20.938,0,37.371,14.82,47.471,27.254
	c28.074,34.538,44.834,93.959,44.834,158.951s-16.76,124.413-44.835,158.953C358.032,461.524,341.599,476.344,320.66,476.344z
	 M465.5,406.097c-17.448,29.358-40.138,45.526-63.89,45.526c-3.967,0-7.931-0.467-11.864-1.376
	c26.017-38.371,41.303-97.006,41.303-160.108s-15.285-121.738-41.303-160.108c3.933-0.908,7.896-1.376,11.864-1.376
	c23.752,0,46.442,16.168,63.89,45.526c18.323,30.832,28.415,72.013,28.415,115.958S483.825,375.264,465.5,406.097z"/>
</svg>