<?xml version="1.0" encoding="utf-8"?>
<!-- Uploaded to: SVG Repo, www.svgrepo.com, Generator: SVG Repo Mixer Tools -->
<svg width="800px" height="800px" viewBox="0 0 1024 1024" class="icon"  version="1.1" xmlns="http://www.w3.org/2000/svg"><path d="M524.8 605.866667s-19.2-27.733333-38.4-46.933334c-19.2-19.2-44.8-36.266667-46.933333-38.4-110.933333-83.2-206.933333-53.333333-256 0-38.4 42.666667-55.466667 85.333333-55.466667 128 0 32 12.8 64 17.066667 93.866667 12.8 59.733333 17.066667 98.133333-6.4 132.266667l-25.6 25.6c-8.533333 8.533333-8.533333 21.333333 0 29.866666 4.266667 6.4 8.533333 8.533333 14.933333 8.533334s10.666667-2.133333 14.933333-6.4l34.133334-34.133334c27.733333-23.466667 72.533333-12.8 123.733333-2.133333 34.133333 6.4 70.4 21.333333 108.8 21.333333 40.533333 0 83.2-19.2 119.466667-53.333333 55.466667-51.2 70.4-162.133333-4.266667-258.133333z" fill="#FF4081" /><path d="M531.2 701.866667c12.8-12.8 21.333333-29.866667 23.466667-49.066667-6.4-14.933333-17.066667-29.866667-27.733334-46.933333 0 0-19.2-27.733333-38.4-46.933334-19.2-19.2-44.8-36.266667-46.933333-38.4-17.066667-12.8-32-21.333333-46.933333-29.866666-19.2 2.133333-36.266667 8.533333-49.066667 21.333333-38.4 38.4-27.733333 113.066667 23.466667 164.266667s123.733333 64 162.133333 25.6z" fill="#F8BBD0" /><path d="M640 426.666667s100.266667-85.333333 174.933333-85.333334c49.066667 0 102.4 32 102.4 89.6 0 46.933333-12.8 102.4-70.4 102.4-55.466667 0-55.466667-42.666667-59.733333-59.733333-12.8 14.933333-72.533333 34.133333-89.6-14.933333 0 0-91.733333 27.733333-157.866667 76.8L640 426.666667z m-46.933333 21.333333c66.133333-76.8 10.666667-256-89.6-256C426.666667 192 405.333333 230.4 405.333333 264.533333c0 29.866667 29.866667 66.133333 72.533334 59.733334-8.533333 53.333333 40.533333 76.8 76.8 49.066666 21.333333 6.4-4.266667 121.6-61.866667 174.933334l100.266667-100.266667z" fill="#4CAF50" /><path d="M706.133333 85.333333C659.2 85.333333 618.666667 110.933333 618.666667 149.333333c0 51.2 57.6 44.8 57.6 44.8s-49.066667 59.733333 36.266666 76.8c-4.266667 21.333333-36.266667 61.866667-81.066666 110.933334l-198.4 198.4c-8.533333 8.533333-8.533333 21.333333 0 29.866666 4.266667 4.266667 10.666667 6.4 14.933333 6.4s10.666667-2.133333 14.933333-6.4l53.333334-53.333333c46.933333-42.666667 104.533333-102.4 172.8-172.8 0 0 61.866667-64 76.8-81.066667C870.4 198.4 853.333333 85.333333 706.133333 85.333333z" fill="#388E3C" /></svg>