<?xml version="1.0" encoding="utf-8"?>
<!-- Uploaded to: SVG Repo, www.svgrepo.com, Generator: SVG Repo Mixer Tools -->
<svg width="800px" height="800px" viewBox="0 0 1024 1024" class="icon"  version="1.1" xmlns="http://www.w3.org/2000/svg"><path d="M597.333333 320s-10.666667-21.333333 21.333334-42.666667c104.533333-59.733333 183.466667-10.666667 234.666666-64-4.266667 81.066667-42.666667 106.666667-42.666666 106.666667H597.333333z m-64 14.933333C477.866667 157.866667 601.6 85.333333 608 83.2L597.333333 64l10.666667 19.2-21.333333-38.4c-2.133333 0-160 91.733333-96 302.933333l42.666666-12.8z m-170.666666-14.933333v-21.333333c-17.066667-117.333333-115.2-40.533333-213.333334-85.333334 12.8 57.6 64 106.666667 64 106.666667h149.333334z" fill="#388E3C" /><path d="M682.666667 341.333333h-149.333334c-6.4-21.333333-10.666667-49.066667-12.8-68.266666 27.733333-42.666667 117.333333-36.266667 183.466667-145.066667 51.2 117.333333-21.333333 213.333333-21.333333 213.333333z m-192 0s8.533333 14.933333 0-42.666666c-17.066667-119.466667-119.466667-74.666667-170.666667-213.333334-104.533333 168.533333 21.333333 256 21.333333 256h149.333334z" fill="#4CAF50" /><path d="M320 704m-106.666667 0a106.666667 106.666667 0 1 0 213.333334 0 106.666667 106.666667 0 1 0-213.333334 0Z" fill="#FF4081" /><path d="M512 725.333333m-106.666667 0a106.666667 106.666667 0 1 0 213.333334 0 106.666667 106.666667 0 1 0-213.333334 0Z" fill="#FF4081" /><path d="M704 704m-106.666667 0a106.666667 106.666667 0 1 0 213.333334 0 106.666667 106.666667 0 1 0-213.333334 0Z" fill="#FF4081" /><path d="M597.333333 576m-106.666666 0a106.666667 106.666667 0 1 0 213.333333 0 106.666667 106.666667 0 1 0-213.333333 0Z" fill="#FF4081" /><path d="M768 554.666667m-106.666667 0a106.666667 106.666667 0 1 0 213.333334 0 106.666667 106.666667 0 1 0-213.333334 0Z" fill="#FF4081" /><path d="M256 554.666667m-106.666667 0a106.666667 106.666667 0 1 0 213.333334 0 106.666667 106.666667 0 1 0-213.333334 0Z" fill="#FF4081" /><path d="M426.666667 576m-106.666667 0a106.666667 106.666667 0 1 0 213.333333 0 106.666667 106.666667 0 1 0-213.333333 0Z" fill="#FF4081" /><path d="M234.666667 405.333333m-106.666667 0a106.666667 106.666667 0 1 0 213.333333 0 106.666667 106.666667 0 1 0-213.333333 0Z" fill="#FF4081" /><path d="M789.333333 405.333333m-106.666666 0a106.666667 106.666667 0 1 0 213.333333 0 106.666667 106.666667 0 1 0-213.333333 0Z" fill="#FF4081" /><path d="M362.666667 405.333333m-106.666667 0a106.666667 106.666667 0 1 0 213.333333 0 106.666667 106.666667 0 1 0-213.333333 0Z" fill="#FF4081" /><path d="M661.333333 405.333333m-106.666666 0a106.666667 106.666667 0 1 0 213.333333 0 106.666667 106.666667 0 1 0-213.333333 0Z" fill="#FF4081" /><path d="M512 405.333333m-106.666667 0a106.666667 106.666667 0 1 0 213.333334 0 106.666667 106.666667 0 1 0-213.333334 0Z" fill="#FF4081" /><path d="M512 874.666667m-106.666667 0a106.666667 106.666667 0 1 0 213.333334 0 106.666667 106.666667 0 1 0-213.333334 0Z" fill="#FF4081" /><path d="M618.666667 810.666667m-106.666667 0a106.666667 106.666667 0 1 0 213.333333 0 106.666667 106.666667 0 1 0-213.333333 0Z" fill="#FF4081" /><path d="M405.333333 810.666667m-106.666666 0a106.666667 106.666667 0 1 0 213.333333 0 106.666667 106.666667 0 1 0-213.333333 0Z" fill="#FF4081" /><path d="M512 810.666667c-4.266667-2.133333-6.4-2.133333-8.533333-2.133334 2.133333 2.133333 6.4 2.133333 8.533333 2.133334z" fill="#C51162" /><path d="M896 405.333333c0-59.733333-46.933333-106.666667-106.666667-106.666666 36.266667 0 64 70.4 64 106.666666s-27.733333 64-64 64c-12.8 0-25.6-4.266667-36.266666-10.666666 8.533333-14.933333 14.933333-34.133333 14.933333-53.333334 0-25.6-8.533333-49.066667-23.466667-66.133333 10.666667-21.333333 27.733333-40.533333 44.8-40.533333-23.466667 0-46.933333 8.533333-64 21.333333-17.066667-12.8-40.533333-21.333333-64-21.333333 36.266667 0 64 70.4 64 106.666666s-27.733333 64-64 64c-21.333333 0-38.4-10.666667-51.2-25.6 4.266667-12.8 8.533333-25.6 8.533334-38.4 0-17.066667-4.266667-32-10.666667-46.933333 10.666667-29.866667 29.866667-59.733333 53.333333-59.733333-29.866667 0-55.466667 12.8-74.666666 29.866666-19.2-17.066667-44.8-29.866667-74.666667-29.866666 36.266667 0 64 70.4 64 106.666666s-27.733333 64-64 64-64-27.733333-64-64 27.733333-106.666667 64-106.666666c-29.866667 0-55.466667 12.8-74.666667 29.866666-19.2-17.066667-44.8-29.866667-74.666666-29.866666 23.466667 0 42.666667 29.866667 53.333333 59.733333-6.4 14.933333-10.666667 29.866667-10.666667 46.933333 0 12.8 2.133333 27.733333 8.533334 38.4-12.8 14.933333-29.866667 25.6-51.2 25.6-36.266667 0-64-27.733333-64-64s27.733333-106.666667 64-106.666666c-23.466667 0-46.933333 8.533333-64 21.333333-17.066667-12.8-40.533333-21.333333-64-21.333333 17.066667 0 34.133333 17.066667 44.8 40.533333-14.933333 17.066667-23.466667 40.533333-23.466667 66.133333 0 19.2 4.266667 36.266667 14.933333 53.333334-10.666667 6.4-21.333333 10.666667-36.266666 10.666666-36.266667 0-64-27.733333-64-64s27.733333-106.666667 64-106.666666c-59.733333 0-106.666667 46.933333-106.666667 106.666666 0 34.133333 17.066667 66.133333 42.666667 85.333334-12.8 17.066667-21.333333 40.533333-21.333334 64 0 46.933333 32 87.466667 74.666667 102.4-6.4 12.8-10.666667 29.866667-10.666667 46.933333 0 51.2 36.266667 93.866667 85.333334 104.533333v2.133334c0 59.733333 46.933333 106.666667 106.666666 106.666666h8.533334c17.066667 38.4 53.333333 64 98.133333 64 44.8 0 81.066667-27.733333 98.133333-64h8.533334c59.733333 0 106.666667-46.933333 106.666666-106.666666v-2.133334c49.066667-10.666667 85.333333-53.333333 85.333334-104.533333 0-17.066667-4.266667-34.133333-12.8-46.933333 44.8-12.8 76.8-53.333333 76.8-102.4 0-23.466667-8.533333-46.933333-21.333334-64 25.6-19.2 42.666667-51.2 42.666667-85.333334z m-339.2 96c10.666667-4.266667 21.333333-12.8 29.866667-21.333333 14.933333 14.933333 34.133333 25.6 55.466666 29.866667 10.666667 21.333333 19.2 49.066667 19.2 66.133333 0 36.266667-27.733333 64-64 64s-64-27.733333-64-64c0-19.2 8.533333-51.2 23.466667-74.666667zM512 512z m0 128c12.8 17.066667 32 32 53.333333 38.4 6.4 17.066667 10.666667 34.133333 10.666667 49.066667 0 36.266667-27.733333 64-64 64s-64-27.733333-64-64c0-12.8 4.266667-29.866667 10.666667-49.066667 21.333333-8.533333 40.533333-21.333333 53.333333-38.4z m-130.133333-130.133333c21.333333-4.266667 40.533333-14.933333 55.466666-29.866667 8.533333 8.533333 19.2 14.933333 29.866667 21.333333C482.133333 524.8 490.666667 554.666667 490.666667 576c0 36.266667-27.733333 64-64 64s-64-27.733333-64-64c0-17.066667 6.4-42.666667 19.2-66.133333zM192 554.666667c0-12.8 4.266667-29.866667 10.666667-49.066667 10.666667 4.266667 21.333333 6.4 32 6.4 23.466667 0 46.933333-8.533333 64-21.333333 2.133333 2.133333 4.266667 2.133333 6.4 4.266666 10.666667 21.333333 14.933333 44.8 14.933333 59.733334 0 36.266667-27.733333 64-64 64s-64-27.733333-64-64z m128 213.333333c-36.266667 0-64-27.733333-64-64 0-12.8 4.266667-27.733333 8.533333-42.666667 27.733333-2.133333 51.2-14.933333 68.266667-34.133333 10.666667 19.2 25.6 34.133333 44.8 42.666667 4.266667 12.8 6.4 25.6 6.4 34.133333 0 36.266667-27.733333 64-64 64z m21.333333 42.666667v-2.133334c29.866667-6.4 53.333333-23.466667 68.266667-49.066666 4.266667 10.666667 8.533333 21.333333 17.066667 29.866666l27.733333 25.6 12.8 6.4c-4.266667 29.866667-29.866667 53.333333-61.866667 53.333334-36.266667 0-64-27.733333-64-64z m170.666667 128c-23.466667 0-44.8-14.933333-55.466667-34.133334 27.733333-14.933333 46.933333-40.533333 53.333334-72.533333h4.266666c6.4 32 27.733333 57.6 53.333334 72.533333-10.666667 19.2-32 34.133333-55.466667 34.133334z m106.666667-64c-32 0-57.6-23.466667-61.866667-53.333334l12.8-6.4L597.333333 789.333333c6.4-8.533333 12.8-19.2 17.066667-29.866666 14.933333 23.466667 38.4 42.666667 68.266667 49.066666h2.133333v2.133334c-2.133333 36.266667-29.866667 64-66.133333 64z m85.333333-106.666667c-36.266667 0-64-27.733333-64-64 0-8.533333 2.133333-21.333333 6.4-34.133333 19.2-10.666667 34.133333-25.6 44.8-42.666667 17.066667 19.2 42.666667 29.866667 68.266667 34.133333 6.4 14.933333 8.533333 32 8.533333 42.666667 0 36.266667-27.733333 64-64 64z m64-149.333333c-36.266667 0-64-27.733333-64-64 0-17.066667 6.4-38.4 14.933333-59.733334 2.133333-2.133333 4.266667-2.133333 6.4-4.266666 17.066667 12.8 40.533333 21.333333 64 21.333333 10.666667 0 21.333333-2.133333 32-6.4 6.4 17.066667 10.666667 34.133333 10.666667 49.066667 0 36.266667-27.733333 64-64 64z" fill="#C51162" /></svg>