<svg xmlns="http://www.w3.org/2000/svg" viewBox="0 0 1024 1024" width="800px" height="800px"><path d="M300 140C420 260 560 420 640 860" fill="none" stroke="#5B7F2A" stroke-width="26" stroke-linecap="round"/><circle cx="360" cy="330" r="80" fill="#E0202A" stroke="#3A2A22" stroke-width="22" stroke-linejoin="round" stroke-linecap="round"/><circle cx="332" cy="302" r="16" fill="#FFFFFF" fill-opacity="0.5"/><circle cx="360" cy="330" r="10" fill="#8A0C12"/><circle cx="450" cy="440" r="80" fill="#E0202A" stroke="#3A2A22" stroke-width="22" stroke-linejoin="round" stroke-linecap="round"/><circle cx="422" cy="412" r="16" fill="#FFFFFF" fill-opacity="0.5"/><circle cx="450" cy="440" r="10" fill="#8A0C12"/><circle cx="510" cy="560" r="80" fill="#E0202A" stroke="#3A2A22" stroke-width="22" stroke-linejoin="round" stroke-linecap="round"/><circle cx="482" cy="532" r="16" fill="#FFFFFF" fill-opacity="0.5"/><circle cx="510" cy="560" r="10" fill="#8A0C12"/><circle cx="560" cy="680" r="80" fill="#E0202A" stroke="#3A2A22" stroke-width="22" stroke-linejoin="round" stroke-linecap="round"/><circle cx="532" cy="652" r="16" fill="#FFFFFF" fill-opacity="0.5"/><circle cx="560" cy="680" r="10" fill="#8A0C12"/><circle cx="610" cy="800" r="80" fill="#E0202A" stroke="#3A2A22" stroke-width="22" stroke-linejoin="round" stroke-linecap="round"/><circle cx="582" cy="772" r="16" fill="#FFFFFF" fill-opacity="0.5"/><circle cx="610" cy="800" r="10" fill="#8A0C12"/><circle cx="430" cy="640" r="80" fill="#E0202A" stroke="#3A2A22" stroke-width="22" stroke-linejoin="round" stroke-linecap="round"/><circle cx="402" cy="612" r="16" fill="#FFFFFF" fill-opacity="0.5"/><circle cx="430" cy="640" r="10" fill="#8A0C12"/><circle cx="660" cy="560" r="80" fill="#E0202A" stroke="#3A2A22" stroke-width="22" stroke-linejoin="round" stroke-linecap="round"/><circle cx="632" cy="532" r="16" fill="#FFFFFF" fill-opacity="0.5"/><circle cx="660" cy="560" r="10" fill="#8A0C12"/></svg>
