<svg xmlns="http://www.w3.org/2000/svg" viewBox="0 0 1024 1024" width="800px" height="800px"><path d="M512 950L512 90" fill="none" stroke="#6B4A2A" stroke-width="30" stroke-linecap="round"/><g transform="rotate(-70 442 880)"><path d="M442 795Q464 880 442 965Q420 880 442 795Z" fill="#4F7942" stroke="#3A2A22" stroke-width="22" stroke-linejoin="round" stroke-linecap="round"/></g><g transform="rotate(70 582 836)"><path d="M582 751Q604 836 582 921Q560 836 582 751Z" fill="#4F7942" stroke="#3A2A22" stroke-width="22" stroke-linejoin="round" stroke-linecap="round"/></g><g transform="rotate(-70 442 792)"><path d="M442 707Q464 792 442 877Q420 792 442 707Z" fill="#4F7942" stroke="#3A2A22" stroke-width="22" stroke-linejoin="round" stroke-linecap="round"/></g><g transform="rotate(70 582 748)"><path d="M582 663Q604 748 582 833Q560 748 582 663Z" fill="#4F7942" stroke="#3A2A22" stroke-width="22" stroke-linejoin="round" stroke-linecap="round"/></g><g transform="rotate(-70 442 704)"><path d="M442 619Q464 704 442 789Q420 704 442 619Z" fill="#4F7942" stroke="#3A2A22" stroke-width="22" stroke-linejoin="round" stroke-linecap="round"/></g><g transform="rotate(70 582 660)"><path d="M582 575Q604 660 582 745Q560 660 582 575Z" fill="#4F7942" stroke="#3A2A22" stroke-width="22" stroke-linejoin="round" stroke-linecap="round"/></g><g transform="rotate(-70 442 616)"><path d="M442 531Q464 616 442 701Q420 616 442 531Z" fill="#4F7942" stroke="#3A2A22" stroke-width="22" stroke-linejoin="round" stroke-linecap="round"/></g><g transform="rotate(70 582 572)"><path d="M582 487Q604 572 582 657Q560 572 582 487Z" fill="#4F7942" stroke="#3A2A22" stroke-width="22" stroke-linejoin="round" stroke-linecap="round"/></g><g transform="rotate(-70 442 528)"><path d="M442 443Q464 528 442 613Q420 528 442 443Z" fill="#4F7942" stroke="#3A2A22" stroke-width="22" stroke-linejoin="round" stroke-linecap="round"/></g><g transform="rotate(70 582 484)"><path d="M582 399Q604 484 582 569Q560 484 582 399Z" fill="#4F7942" stroke="#3A2A22" stroke-width="22" stroke-linejoin="round" stroke-linecap="round"/></g><g transform="rotate(-70 442 440)"><path d="M442 355Q464 440 442 525Q420 440 442 355Z" fill="#4F7942" stroke="#3A2A22" stroke-width="22" stroke-linejoin="round" stroke-linecap="round"/></g><g transform="rotate(70 582 396)"><path d="M582 311Q604 396 582 481Q560 396 582 311Z" fill="#4F7942" stroke="#3A2A22" stroke-width="22" stroke-linejoin="round" stroke-linecap="round"/></g><g transform="rotate(-70 442 352)"><path d="M442 267Q464 352 442 437Q420 352 442 267Z" fill="#4F7942" stroke="#3A2A22" stroke-width="22" stroke-linejoin="round" stroke-linecap="round"/></g><g transform="rotate(70 582 308)"><path d="M582 223Q604 308 582 393Q560 308 582 223Z" fill="#4F7942" stroke="#3A2A22" stroke-width="22" stroke-linejoin="round" stroke-linecap="round"/></g><g transform="rotate(-70 442 264)"><path d="M442 179Q464 264 442 349Q420 264 442 179Z" fill="#4F7942" stroke="#3A2A22" stroke-width="22" stroke-linejoin="round" stroke-linecap="round"/></g><g transform="rotate(70 582 220)"><path d="M582 135Q604 220 582 305Q560 220 582 135Z" fill="#4F7942" stroke="#3A2A22" stroke-width="22" stroke-linejoin="round" stroke-linecap="round"/></g><g transform="rotate(-70 442 176)"><path d="M442 91Q464 176 442 261Q420 176 442 91Z" fill="#4F7942" stroke="#3A2A22" stroke-width="22" stroke-linejoin="round" stroke-linecap="round"/></g><g transform="rotate(70 582 132)"><path d="M582 47Q604 132 582 217Q560 132 582 47Z" fill="#4F7942" stroke="#3A2A22" stroke-width="22" stroke-linejoin="round" stroke-linecap="round"/></g></svg>
