<svg xmlns="http://www.w3.org/2000/svg" viewBox="0 0 1024 1024" width="800px" height="800px"><path d="M512 120c120 80 160 240 150 400H362c-10-160 30-320 150-400z" fill="#F2B8C6" stroke="#3A2A22" stroke-width="22" stroke-linejoin="round" stroke-linecap="round"/><path d="M400 510Q380 760 420 930" fill="none" stroke="#3A2A22" stroke-width="54" stroke-linecap="round"/><path d="M400 510Q380 760 420 930" fill="none" stroke="#F2B8C6" stroke-width="14" stroke-linecap="round"/><path d="M445 510Q430 760 460 930" fill="none" stroke="#3A2A22" stroke-width="54" stroke-linecap="round"/><path d="M445 510Q430 760 460 930" fill="none" stroke="#F2B8C6" stroke-width="14" stroke-linecap="round"/><path d="M490 510Q480 760 500 930" fill="none" stroke="#3A2A22" stroke-width="54" stroke-linecap="round"/><path d="M490 510Q480 760 500 930" fill="none" stroke="#F2B8C6" stroke-width="14" stroke-linecap="round"/><path d="M535 510Q530 760 540 930" fill="none" stroke="#3A2A22" stroke-width="54" stroke-linecap="round"/><path d="M535 510Q530 760 540 930" fill="none" stroke="#F2B8C6" stroke-width="14" stroke-linecap="round"/><path d="M580 510Q580 760 580 930" fill="none" stroke="#3A2A22" stroke-width="54" stroke-linecap="round"/><path d="M580 510Q580 760 580 930" fill="none" stroke="#F2B8C6" stroke-width="14" stroke-linecap="round"/><path d="M625 510Q630 760 620 930" fill="none" stroke="#3A2A22" stroke-width="54" stroke-linecap="round"/><path d="M625 510Q630 760 620 930" fill="none" stroke="#F2B8C6" stroke-width="14" stroke-linecap="round"/><circle cx="460" cy="420" r="22" fill="#3A2A22"/><circle cx="564" cy="420" r="22" fill="#3A2A22"/></svg>
