<?xml version="1.0" encoding="iso-8859-1"?>
<!-- Uploaded to: SVG Repo, www.svgrepo.com, Generator: SVG Repo Mixer Tools -->
<svg fill="#000000" height="800px" width="800px" version="1.1" id="Layer_1" xmlns="http://www.w3.org/2000/svg" xmlns:xlink="http://www.w3.org/1999/xlink" 
	 viewBox="0 0 512 512" xml:space="preserve">
<g>
	<g>
		<path d="M332.797,0H120.342c-6.826,0-12.359,5.533-12.359,12.359v212.454c0,6.826,5.533,12.359,12.359,12.359h119.646
			l49.292-83.703c1.419-2.409,3.284-4.553,5.594-6.127c6.155-4.197,13.886-4.282,19.948-0.713l30.335,17.863V12.359
			C345.156,5.533,339.623,0,332.797,0z"/>
	</g>
</g>
<g>
	<g>
		<path d="M505.703,302.061L311.981,187.984l-37.939,64.426c0.267,1.252,0.414,2.548,0.414,3.879v184.835l110.9,65.306
			c5.882,3.463,13.457,1.503,16.92-4.379L510.082,318.98C513.545,313.1,511.584,305.525,505.703,302.061z"/>
	</g>
</g>
<g>
	<g>
		<path d="M225.02,274.829H12.566c-6.826,0-12.359,5.533-12.359,12.359v212.454C0.207,506.467,5.74,512,12.566,512H225.02
			c6.826,0,12.359-5.533,12.359-12.359V287.187C237.379,280.362,231.846,274.829,225.02,274.829z"/>
	</g>
</g>
</svg>