<?xml version="1.0" encoding="iso-8859-1"?>
<!-- Uploaded to: SVG Repo, www.svgrepo.com, Generator: SVG Repo Mixer Tools -->
<svg fill="#000000" height="800px" width="800px" version="1.1" id="Layer_1" xmlns="http://www.w3.org/2000/svg" xmlns:xlink="http://www.w3.org/1999/xlink" 
	 viewBox="0 0 512.001 512.001" xml:space="preserve">
<g>
	<g>
		<path d="M491.668,8.889c-0.499-3.855-3.146-7.091-6.826-8.344c-3.68-1.253-7.752-0.307-10.5,2.443L183.917,293.412L20.022,457.307
			c-1.912,1.912-2.987,4.507-2.987,7.212s1.075,5.299,2.987,7.212l17.409,17.408c14.742,14.743,34.342,22.862,55.191,22.862
			c20.849,0,40.45-8.119,55.192-22.862l108.703-108.703l42.042,42.041c1.916,1.917,4.513,2.987,7.211,2.987
			c0.17,0,0.341-0.004,0.512-0.013c2.879-0.145,5.563-1.501,7.387-3.734l92.46-113.185c34.095-41.737,58.884-89.177,73.677-140.999
			C494.6,115.713,498.591,62.336,491.668,8.889z M133.39,474.715c-10.889,10.89-25.367,16.887-40.767,16.887
			s-29.878-5.997-40.767-16.887l-10.197-10.196l149.471-149.47l50.964,50.964L133.39,474.715z M390.332,295.629l-85.325,104.45
			l-99.454-99.454L473.558,32.62C480.304,127.138,450.525,221.943,390.332,295.629z"/>
	</g>
</g>
<g>
	<g>
		<path d="M346.95,199.151c-3.983-3.983-10.441-3.983-14.424,0l-91.713,91.713c-3.983,3.983-3.983,10.441,0,14.425
			c1.992,1.992,4.602,2.987,7.212,2.987s5.221-0.995,7.212-2.987l91.713-91.713C350.932,209.593,350.932,203.135,346.95,199.151z"/>
	</g>
</g>
<g>
	<g>
		<path d="M380.069,166.033c-3.983-3.984-10.441-3.983-14.424,0l-5.944,5.945c-3.983,3.983-3.983,10.441,0,14.424
			c1.992,1.992,4.602,2.987,7.212,2.987c2.61,0,5.221-0.996,7.212-2.987l5.944-5.945
			C384.051,176.474,384.051,170.016,380.069,166.033z"/>
	</g>
</g>
</svg>