<?xml version="1.0" encoding="iso-8859-1"?>
<!-- Uploaded to: SVG Repo, www.svgrepo.com, Generator: SVG Repo Mixer Tools -->
<svg fill="#000000" height="800px" width="800px" version="1.1" id="Layer_1" xmlns="http://www.w3.org/2000/svg" xmlns:xlink="http://www.w3.org/1999/xlink" 
	 viewBox="0 0 511.999 511.999" xml:space="preserve">
<g>
	<g>
		<path d="M502.6,25.848c-12.534-12.532-32.926-12.533-45.46,0L186.51,296.479l-5.351-5.35c-15.386-15.385-40.419-15.385-55.805,0
			L11.558,404.927C4.104,412.379,0,422.288,0,432.829c0,10.54,4.104,20.449,11.558,27.902c22.454,22.454,52.308,34.82,84.062,34.82
			c31.754,0,61.608-12.366,84.06-34.82l57.638-57.637c7.454-7.453,11.558-17.363,11.558-27.903s-4.104-20.448-11.558-27.902
			l-5.35-5.35L502.6,71.308C515.132,58.775,515.132,38.382,502.6,25.848z M488.176,56.884L210.333,334.726
			c-3.983,3.984-3.983,10.442,0,14.425l12.563,12.562c3.6,3.599,5.583,8.387,5.583,13.478c0,5.092-1.984,9.879-5.583,13.479
			l-57.638,57.637c-18.6,18.601-43.332,28.845-69.637,28.845c-26.306,0-51.037-10.244-69.638-28.845
			c-3.6-3.599-5.583-8.387-5.583-13.478c0-5.092,1.983-9.879,5.583-13.479l113.797-113.797c3.717-3.717,8.597-5.574,13.479-5.574
			c4.88,0,9.762,1.857,13.479,5.574l12.562,12.562c1.912,1.912,4.507,2.987,7.212,2.987s5.3-1.075,7.212-2.987L471.565,40.273
			c4.578-4.581,12.029-4.581,16.611-0.001C492.756,44.852,492.756,52.304,488.176,56.884z"/>
	</g>
</g>
<g>
	<g>
		<path d="M160.47,316.252c-3.984-3.981-10.441-3.982-14.424,0l-56.161,56.16c-3.983,3.984-3.983,10.442,0,14.425
			c1.992,1.991,4.601,2.987,7.212,2.987c2.61,0,5.221-0.997,7.212-2.987l56.161-56.16
			C164.453,326.693,164.453,320.235,160.47,316.252z"/>
	</g>
</g>
<g>
	<g>
		<path d="M81.191,395.653c-3.984-3.983-10.441-3.983-14.425-0.001l-3.601,3.6c-3.983,3.983-3.984,10.441-0.001,14.424
			c1.992,1.992,4.602,2.988,7.213,2.988c2.61,0,5.22-0.995,7.212-2.987l3.601-3.6C85.173,406.094,85.174,399.636,81.191,395.653z"/>
	</g>
</g>
</svg>